<?xml version="1.0" standalone="no"?>
<!DOCTYPE svg PUBLIC "-//W3C//DTD SVG 1.1//EN" "http://www.w3.org/Graphics/SVG/1.1/DTD/svg11.dtd" >
<svg xmlns="http://www.w3.org/2000/svg" xmlns:xlink="http://www.w3.org/1999/xlink" version="1.1">
<metadata>
Created by FontForge 20170731 at Thu Feb 18 13:22:09 2016
 By Aleksey,,,
Copyright 2021, Kris Sowersby, Klim Type Foundry.
</metadata>
<defs>
<font id="Newzald-Book" horiz-adv-x="568" >
  <font-face 
    font-family="Copyright Klim Type Foundry"
    font-weight="400"
    font-stretch="normal"
    units-per-em="1000"
    panose-1="2 10 5 3 7 7 3 4 2 3"
    ascent="800"
    descent="-200"
    x-height="436"
    cap-height="588"
    bbox="-175 -272 1248 906.242"
    underline-thickness="50"
    underline-position="-175"
    unicode-range="U+000D-FB06"
  />
<missing-glyph horiz-adv-x="262" 
 />
    <glyph glyph-name="f_j" unicode="fj" horiz-adv-x="502" 
d="M297 -164q0 -7 -2 -15t-5 -12q24 0 40.5 28.5t16.5 76.5v475h-176v-341l70 -19l-13 -29h-192v28l47 16v345h-73v34l73 16v27q0 107 52.5 164t150.5 57q54 0 85 -20.5t31 -57.5q0 -25 -15.5 -41.5t-38.5 -16.5q-24 0 -39 14t-15 36q0 15 5.5 28t15.5 20q-8 2 -14.5 3
t-14.5 1q-59 0 -87 -40t-28 -122v-55h210l38 13h16v-498q0 -80 -43 -125t-123 -45q-31 0 -49 14t-18 39q0 22 14 35.5t37 13.5q21 0 32.5 -12.5t11.5 -34.5z" />
    <glyph glyph-name="fi" unicode="fi" horiz-adv-x="520" 
d="M419 449h16v-401l70 -19l-13 -29h-192v28l47 16v345h-176v-341l70 -19l-13 -29h-192v28l47 16v345h-73v34l73 16v27q0 107 52.5 164t150.5 57q54 0 85 -20.5t31 -57.5q0 -25 -15.5 -41.5t-38.5 -16.5q-24 0 -39 14t-15 36q0 15 5.5 28t15.5 20q-8 2 -14.5 3t-14.5 1
q-59 0 -87 -40t-28 -122v-55h210z" />
    <glyph glyph-name="ff" unicode="ff" horiz-adv-x="563" 
d="M300 28l47 16v345h-176v-341l70 -19l-13 -29h-192v28l47 16v345h-73v34l73 16v25q0 102 56.5 157.5t158.5 55.5q34 0 62.5 -10.5t44.5 -29.5q25 25 58 37.5t73 12.5q52 0 82 -20.5t30 -57.5q0 -25 -15.5 -41.5t-38.5 -16.5q-24 0 -39 14t-15 36q0 15 5.5 28t15.5 20
q-8 2 -14.5 3t-14.5 1q-50 0 -73.5 -36t-23.5 -113v-68h122l-8 -47h-114v-341l90 -18l-13 -30h-212v28zM347 436v30q0 21 1.5 38.5t5.5 32.5q-19 4 -29.5 17t-10.5 32q0 15 5.5 28t15.5 20q-5 4 -14 6.5t-21 2.5q-64 0 -96.5 -40t-32.5 -118v-49h176z" />
    <glyph glyph-name="fl" unicode="fl" horiz-adv-x="520" 
d="M171 389v-341l70 -19l-13 -29h-192v28l47 16v345h-73v34l73 16v39q0 98 51 153.5t142 55.5q31 0 53.5 -7.5t41.5 -23.5l48 25h16v-633l70 -19l-13 -29h-192v28l47 16v504q-20 2 -30.5 14t-10.5 31q0 15 7 26.5t20 19.5q-10 6 -22.5 9t-29.5 3q-55 0 -82.5 -39t-27.5 -118
v-58h102l-8 -47h-94z" />
    <glyph glyph-name="ffi" unicode="ffi" horiz-adv-x="784" 
d="M564 28l47 16v345h-176v-341l70 -19l-13 -29h-192v28l47 16v345h-176v-341l70 -19l-13 -29h-192v28l47 16v345h-73v34l73 16v25q0 102 56.5 157.5t158.5 55.5q34 0 63 -11t45 -30q25 25 61.5 38t82.5 13q54 0 85 -20.5t31 -57.5q0 -25 -15.5 -41.5t-38.5 -16.5
q-24 0 -39 14t-15 36q0 15 5.5 28t15.5 20q-8 2 -14.5 3t-14.5 1q-59 0 -87 -40t-28 -122v-55h210l38 13h16v-401l70 -19l-13 -29h-192v28zM347 436v30q0 17 1.5 35t5.5 36q-19 4 -29.5 17t-10.5 32q0 15 5.5 28t15.5 20q-5 4 -14 6.5t-21 2.5q-64 0 -96.5 -40t-32.5 -118
v-49h176z" />
    <glyph glyph-name="ffl" unicode="ffl" horiz-adv-x="784" 
d="M36 28l47 16v345h-73v34l73 16v25q0 102 56.5 157.5t158.5 55.5q33 0 61 -10.5t45 -28.5q25 24 59.5 36.5t76.5 12.5q31 0 53.5 -7.5t41.5 -23.5l48 25h16v-633l70 -19l-13 -29h-192v28l47 16v504q-20 2 -30.5 14t-10.5 31q0 15 7 26.5t20 19.5q-10 6 -22.5 9t-29.5 3
q-55 0 -82.5 -39t-27.5 -118v-58h102l-8 -47h-94v-341l70 -19l-13 -29h-192v28l47 16v345h-176v-341l70 -19l-13 -29h-192v28zM347 436v42q0 14 1.5 29t3.5 30q-18 5 -28 18t-10 31q0 15 5.5 28t15.5 20q-5 4 -14 6.5t-21 2.5q-64 0 -96.5 -40t-32.5 -118v-49h176z" />
    <glyph glyph-name="f_b" unicode="fb" horiz-adv-x="781" 
d="M495 -10q-41 0 -77.5 7t-70.5 21v530q-20 2 -30.5 14t-10.5 31q0 15 7 26.5t20 19.5q-10 6 -22.5 9t-29.5 3q-55 0 -82.5 -39t-27.5 -118v-58h102l-8 -47h-94v-341l70 -19l-13 -29h-192v28l47 16v345h-73v34l73 16v39q0 98 51 153.5t142 55.5q31 0 53.5 -7.5t41.5 -23.5
l48 25h16v-301h4q20 33 52.5 49.5t75.5 16.5q77 0 125.5 -57t48.5 -151q0 -115 -66.5 -181.5t-179.5 -66.5zM527 379q-27 0 -49 -8.5t-43 -27.5v-283q10 -12 29 -19.5t41 -7.5q66 0 104.5 46.5t38.5 129.5q0 81 -32 125.5t-89 44.5z" />
    <glyph glyph-name="f_f_b" unicode="ffb" horiz-adv-x="1056" 
d="M612 18v530h-1q-20 2 -30.5 14t-10.5 31q0 15 7 26.5t20 19.5q-10 6 -22.5 9t-29.5 3q-55 0 -82.5 -39t-27.5 -118v-58h102l-8 -47h-94v-341l70 -19l-13 -29h-192v28l47 16v345h-176v-341l70 -19l-13 -29h-192v28l47 16v345h-73v34l73 16v25q0 102 56.5 157.5t158.5 55.5
q33 0 61 -10.5t45 -28.5q25 24 59.5 36.5t76.5 12.5q31 0 53.5 -7.5t41.5 -23.5l48 25h17v-301h4q20 33 52.5 49.5t75.5 16.5q77 0 125.5 -57t48.5 -151q0 -115 -66.5 -181.5t-179.5 -66.5q-41 0 -77.5 7t-70.5 21zM792 379q-27 0 -49 -8.5t-43 -27.5v-283q10 -12 29 -19.5
t41 -7.5q66 0 104.5 46.5t38.5 129.5q0 81 -32 125.5t-89 44.5zM347 436v42q0 14 1.5 29t3.5 30q-18 5 -28 18t-10 31q0 15 5.5 28t15.5 20q-5 4 -14 6.5t-21 2.5q-64 0 -96.5 -40t-32.5 -118v-49h176z" />
    <glyph glyph-name="f_f_h" unicode="ffh" horiz-adv-x="1043" 
d="M564 28l47 17v503q-20 2 -30.5 14t-10.5 31q0 15 7 26.5t20 19.5q-10 6 -22.5 9t-29.5 3q-55 0 -82.5 -39t-27.5 -118v-58h102l-8 -47h-94v-341l70 -19l-13 -29h-192v28l47 16v345h-176v-341l70 -19l-13 -29h-192v28l47 16v345h-73v34l73 16v25q0 102 56.5 157.5
t158.5 55.5q33 0 61 -10.5t45 -28.5q25 24 59.5 36.5t76.5 12.5q31 0 53.5 -7.5t41.5 -23.5l48 25h16v-312h4q24 37 62.5 57.5t79.5 20.5q56 0 87 -34t31 -98v-267l70 -19l-13 -29h-192v28l47 17v253q0 37 -19 57t-54 20q-26 0 -54.5 -11t-48.5 -29v-287l70 -19l-13 -29
h-192v28zM347 436v42q0 14 1.5 29t3.5 30q-18 5 -28 18t-10 31q0 15 5.5 28t15.5 20q-5 4 -14 6.5t-21 2.5q-64 0 -96.5 -40t-32.5 -118v-49h176z" />
    <glyph glyph-name="f_f_j" unicode="ffj" horiz-adv-x="766" 
d="M554 -191q24 0 40.5 28.5t16.5 76.5v475h-176v-341l70 -19l-13 -29h-192v28l47 16v345h-176v-341l70 -19l-13 -29h-192v28l47 16v345h-73v34l73 16v25q0 102 56.5 157.5t158.5 55.5q34 0 63 -11t45 -30q25 25 61.5 38t82.5 13q54 0 85 -20.5t31 -57.5q0 -25 -15.5 -41.5
t-38.5 -16.5q-24 0 -39 14t-15 36q0 15 5.5 28t15.5 20q-8 2 -14.5 3t-14.5 1q-59 0 -87 -40t-28 -122v-55h210l38 13h16v-498q0 -80 -43 -125t-123 -45q-31 0 -49 14t-18 39q0 22 14 35.5t37 13.5q21 0 32.5 -12.5t11.5 -34.5q0 -7 -2 -15t-5 -12zM347 436v30q0 17 1.5 35
t5.5 36q-19 4 -29.5 17t-10.5 32q0 15 5.5 28t15.5 20q-5 4 -14 6.5t-21 2.5q-64 0 -96.5 -40t-32.5 -118v-49h176z" />
    <glyph glyph-name="f_f_k" unicode="ffk" horiz-adv-x="1019" 
d="M564 28l47 16v504q-20 2 -30.5 14t-10.5 31q0 15 7 26.5t20 19.5q-10 6 -22.5 9t-29.5 3q-55 0 -82.5 -39t-27.5 -118v-58h102l-8 -47h-94v-341l70 -19l-13 -29h-192v28l47 16v345h-176v-341l70 -19l-13 -29h-192v28l47 16v345h-73v34l73 16v25q0 102 56.5 157.5
t158.5 55.5q33 0 61 -10.5t45 -28.5q25 24 59.5 36.5t76.5 12.5q31 0 53.5 -7.5t41.5 -23.5l48 25h16v-434l35 8l137 134l-52 18l7 29h160l7 -29l-55 -23l-134 -124l146 -211l69 -21l-4 -28h-139l-139 212h-38v-164l70 -19l-13 -29h-192v28zM347 436v42q0 14 1.5 29t3.5 30
q-18 5 -28 18t-10 31q0 15 5.5 28t15.5 20q-5 4 -14 6.5t-21 2.5q-64 0 -96.5 -40t-32.5 -118v-49h176z" />
    <glyph glyph-name="f_h" unicode="fh" horiz-adv-x="779" 
d="M300 28l47 17v503q-20 2 -30.5 14t-10.5 31q0 15 7 26.5t20 19.5q-10 6 -22.5 9t-29.5 3q-55 0 -82.5 -39t-27.5 -118v-58h102l-8 -47h-94v-341l70 -19l-13 -29h-192v28l47 16v345h-73v34l73 16v39q0 98 51 153.5t142 55.5q31 0 53.5 -7.5t41.5 -23.5l48 25h16v-312h4
q24 37 62.5 57.5t79.5 20.5q56 0 87 -34t31 -98v-267l70 -19l-13 -29h-192v28l47 17v253q0 37 -19 57t-54 20q-26 0 -54.5 -11t-48.5 -29v-287l70 -19l-13 -29h-192v28z" />
    <glyph glyph-name="f_k" unicode="fk" horiz-adv-x="755" 
d="M300 28l47 16v504q-20 2 -30.5 14t-10.5 31q0 15 7 26.5t20 19.5q-10 6 -22.5 9t-29.5 3q-55 0 -82.5 -39t-27.5 -118v-58h102l-8 -47h-94v-341l70 -19l-13 -29h-192v28l47 16v345h-73v34l73 16v39q0 98 51 153.5t142 55.5q31 0 53.5 -7.5t41.5 -23.5l48 25h16v-434l35 8
l137 134l-52 18l7 29h160l7 -29l-55 -23l-134 -124l146 -211l69 -21l-4 -28h-139l-139 212h-38v-164l70 -19l-13 -29h-192v28z" />
    <glyph glyph-name=".notdef" horiz-adv-x="262" 
 />
    <glyph glyph-name="uni0000" horiz-adv-x="0" 
 />
    <glyph glyph-name="nonmarkingreturn" unicode="&#xd;" horiz-adv-x="185" 
 />
    <glyph glyph-name="NULL" horiz-adv-x="0" 
 />
    <glyph glyph-name="NULL" horiz-adv-x="0" 
 />
    <glyph glyph-name="space" unicode=" " horiz-adv-x="185" 
 />
    <glyph glyph-name="exclam" unicode="!" horiz-adv-x="265" 
d="M150 181h-39l-37 350v57h113v-58zM132 -8q-29 0 -48.5 19.5t-19.5 48.5t20 49t48 20q29 0 49 -20t20 -49t-20 -48.5t-49 -19.5z" />
    <glyph glyph-name="quotedbl" unicode="&#x22;" horiz-adv-x="348" 
d="M95 653q24 0 39.5 -14t15.5 -36l-42 -214h-26l-42 214q0 22 15.5 36t39.5 14zM253 653q24 0 39.5 -14t15.5 -36l-42 -214h-26l-42 214q0 22 15.5 36t39.5 14z" />
    <glyph glyph-name="numbersign" unicode="#" horiz-adv-x="689" 
d="M385 233l32 112h-116l-32 -112h116zM222 233l32 112h-166l13 43h166l57 199h47l-57 -199h116l57 199h47l-57 -199h162l-13 -43h-162l-32 -112h169l-13 -43h-169l-54 -190h-47l54 190h-116l-54 -190h-47l54 190h-159l13 43h159z" />
    <glyph glyph-name="dollar" unicode="$" horiz-adv-x="499" 
d="M239 558q-41 -5 -65 -31t-24 -65q0 -37 19 -59.5t70 -44.5v200zM279 33q43 6 66 31t23 66q0 38 -17 61t-72 48v-206zM279 -8v-102h-40v100q-82 3 -135.5 35.5t-53.5 82.5q0 28 16.5 45t44.5 17q26 0 41.5 -15t15.5 -40q0 -18 -10.5 -32t-27.5 -18q18 -15 46 -24t63 -10
v225l-45 20q-63 28 -92 67.5t-29 97.5q0 67 45 108.5t121 47.5v100h40v-100q72 -4 118.5 -34t46.5 -74q0 -29 -15.5 -46.5t-42.5 -17.5q-25 0 -40 13t-15 36q0 20 12.5 34.5t32.5 15.5q-16 14 -41 23t-56 11v-217l46 -20q65 -28 94.5 -69t29.5 -102q0 -69 -45 -110t-125 -48
z" />
    <glyph glyph-name="percent" unicode="%" horiz-adv-x="902" 
d="M190 227q-70 0 -112.5 50t-42.5 134q0 83 43.5 135t111.5 52q73 0 114.5 -49.5t41.5 -137.5q0 -82 -43 -133t-113 -51zM205 550q-42 0 -64 -35t-22 -103q0 -69 23 -106t66 -37q39 0 63.5 40t24.5 103q0 58 -25.5 98t-65.5 40zM696 628l-437 -667h-53l437 667h53zM711 -7
q-70 0 -112.5 50t-42.5 134q0 83 43.5 135t111.5 52q73 0 114.5 -49.5t41.5 -137.5q0 -82 -43 -133t-113 -51zM726 316q-42 0 -64 -35t-22 -103q0 -69 23 -106t66 -37q39 0 63.5 40t24.5 103q0 58 -25.5 98t-65.5 40z" />
    <glyph glyph-name="ampersand" unicode="&#x26;" horiz-adv-x="576" 
d="M234 333q46 40 62.5 70t16.5 71q0 38 -23 63t-60 25t-59.5 -24t-22.5 -65q0 -23 7.5 -41.5t24.5 -37.5zM184 269q-33 -22 -51 -55t-18 -73q0 -50 30 -79t82 -29q41 0 73.5 11.5t59.5 34.5zM515 44l51 -13l-5 -31h-128l-46 53q-28 -31 -74.5 -47t-105.5 -16
q-92 0 -138.5 35.5t-46.5 105.5q0 55 32 93t105 67l-38 39q-26 27 -40 60.5t-14 66.5q0 66 45 103.5t121 37.5q77 0 118.5 -33t41.5 -95q0 -50 -37 -92t-101 -69l154 -159q22 47 29.5 73.5t8.5 53.5l-68 22l3 27h165l3 -27l-44 -22q-8 -33 -26 -73t-42 -79z" />
    <glyph glyph-name="quotesingle" unicode="'" horiz-adv-x="190" 
d="M95 653q24 0 39.5 -14t15.5 -36l-42 -214h-26l-42 214q0 22 15.5 36t39.5 14z" />
    <glyph glyph-name="parenleft" unicode="(" horiz-adv-x="318" 
d="M293 699q-97 -111 -137.5 -209t-40.5 -211t40.5 -211t137.5 -209h-63q-89 86 -137 195t-48 225t48 225t137 195h63z" />
    <glyph glyph-name="parenright" unicode=")" horiz-adv-x="318" 
d="M25 -141q97 111 137.5 209t40.5 211t-40.5 211t-137.5 209h63q89 -86 137 -195t48 -225t-48 -225t-137 -195h-63z" />
    <glyph glyph-name="asterisk" unicode="*" horiz-adv-x="370" 
d="M151 328q7 28 11.5 61.5t5.5 66.5q-27 -16 -54 -36.5t-48 -41.5l-36 18l2 41q26 6 58 19t62 29q-27 15 -58.5 28.5t-61.5 21.5l-2 40l36 19q20 -21 46.5 -41.5t55.5 -38.5q-1 33 -5.5 67t-11.5 62l34 21l34 -21q-8 -29 -12.5 -62.5t-4.5 -65.5q27 16 54 36.5t48 41.5
l36 -18l-2 -41q-28 -7 -59.5 -19.5t-60.5 -28.5q28 -16 59.5 -29.5t60.5 -20.5l2 -40l-36 -19q-20 21 -46.5 41.5t-55.5 38.5q0 -32 4.5 -66t12.5 -63l-34 -21z" />
    <glyph glyph-name="plus" unicode="+" horiz-adv-x="496" 
d="M225 223h-170v43h170v165h43v-165h173v-43h-173v-178h-43v178z" />
    <glyph glyph-name="comma" unicode="," horiz-adv-x="260" 
d="M154 29h-6q-3 -14 -14 -21.5t-25 -7.5q-24 0 -38 16t-14 43q0 28 19 45.5t50 17.5q37 0 58 -22.5t21 -62.5q0 -61 -44 -111.5t-112 -69.5l-9 31q54 24 84 62t30 80z" />
    <glyph glyph-name="hyphen" unicode="-" horiz-adv-x="329" 
d="M289 260v-51h-249v51h249z" />
    <glyph glyph-name="period" unicode="." horiz-adv-x="247" 
d="M123 -8q-29 0 -48.5 19.5t-19.5 48.5t20 49t48 20q29 0 49 -20t20 -49t-20 -48.5t-49 -19.5z" />
    <glyph glyph-name="slash" unicode="/" horiz-adv-x="303" 
d="M293 701l-230 -842h-53l230 842h53z" />
    <glyph glyph-name="zero" unicode="0" horiz-adv-x="570" 
d="M304 453q-70 0 -111 -55t-41 -149t41 -149t111 -55t114.5 58.5t44.5 145.5t-44.5 145.5t-114.5 58.5zM520 249q0 -116 -65 -187.5t-170 -71.5t-170 71.5t-65 187.5t65 187.5t170 71.5t170 -71.5t65 -187.5z" />
    <glyph glyph-name="one" unicode="1" horiz-adv-x="391" 
d="M231 509l17 -6v-449l118 -17l-10 -37h-306l-10 37l120 17v357h-122l-8 29z" />
    <glyph glyph-name="two" unicode="2" horiz-adv-x="450" 
d="M146 79v-4h249v-75h-368l-7 34q90 70 114.5 90.5t43.5 38.5q50 48 74 89.5t24 81.5q0 46 -25.5 72.5t-67.5 26.5q-44 0 -70 -23.5t-26 -64.5q0 -5 1 -12t2 -12l-33 -10q-6 14 -9 30t-3 33q0 60 41.5 97t111.5 37q79 0 123.5 -41t44.5 -112q0 -46 -18 -85.5t-56 -77.5
q-28 -26 -81.5 -65t-64.5 -48z" />
    <glyph glyph-name="three" unicode="3" horiz-adv-x="459" 
d="M191 -100q-71 0 -118.5 30t-47.5 76q0 28 15.5 44.5t41.5 16.5q24 0 40 -16t16 -39q0 -18 -11 -30.5t-27 -15.5q12 -12 34.5 -18.5t51.5 -6.5q62 0 95 28.5t33 84.5q0 62 -48.5 97t-137.5 37l-8 30q96 27 132 56.5t36 76.5q0 42 -24 65t-67 23q-44 0 -70.5 -24.5
t-26.5 -63.5q0 -7 1 -14.5t4 -17.5l-32 -11q-7 15 -10 29t-3 33q0 61 44.5 99.5t118.5 38.5t117 -37t43 -101q0 -55 -34 -89.5t-103 -48.5v-4q81 -12 122 -51.5t41 -106.5q0 -79 -59 -124.5t-159 -45.5z" />
    <glyph glyph-name="four" unicode="4" horiz-adv-x="500" 
d="M384 498v-384h101v-52h-101v-152h-92v152h-287v30l287 406h92zM152 114h140v190q0 38 1 68t3 52h-4q-9 -18 -25 -44t-39 -59l-101 -143q-16 -23 -29 -38.5t-23 -24.5v-4q7 2 26 2.5t51 0.5z" />
    <glyph glyph-name="five" unicode="5" horiz-adv-x="447" 
d="M377 407h-254l-5 -118q138 0 208.5 -52.5t70.5 -155.5q0 -85 -60 -133t-160 -48q-68 0 -110 29t-42 75q0 29 16.5 45.5t42.5 16.5q24 0 39 -15t15 -39q0 -20 -12.5 -33t-31.5 -15q9 -12 30.5 -18t51.5 -6q62 0 96.5 33.5t34.5 94.5q0 72 -61 110t-174 38l12 282h293v-91z
" />
    <glyph glyph-name="six" unicode="6" horiz-adv-x="524" 
d="M264 319q-31 0 -61 -9t-52 -24q-1 -10 -2 -23t-1 -27q0 -99 31 -151t91 -52q54 0 86 39t32 105t-33.5 104t-90.5 38zM158 322q19 23 56.5 37t82.5 14q85 0 133.5 -48.5t48.5 -135.5q0 -92 -56.5 -145.5t-152.5 -53.5q-108 0 -164 63.5t-56 184.5q0 147 107.5 247
t284.5 113l8 -35q-121 -22 -196.5 -84.5t-95.5 -156.5z" />
    <glyph glyph-name="seven" unicode="7" horiz-adv-x="435" 
d="M112 -23q0 20 5 38.5t17 38.5l161 279q15 26 26 45.5t18 32.5v4q-7 -4 -26 -6t-51 -2h-170l-64 -90l-18 6l19 175h401l5 -8l-275 -487h4q7 11 17 16t25 5q24 0 39 -16.5t15 -42.5q0 -30 -19 -47.5t-52 -17.5q-35 0 -56 21t-21 56z" />
    <glyph glyph-name="eight" unicode="8" horiz-adv-x="526" 
d="M149 158q0 -60 30.5 -94t83.5 -34t83.5 34t30.5 94q0 62 -29 93.5t-85 31.5t-85 -31.5t-29 -93.5zM160 439q0 -57 27.5 -88.5t75.5 -31.5t75 31.5t27 88.5q0 56 -26.5 86t-75.5 30t-76 -30t-27 -86zM476 149q0 -74 -57 -116.5t-156 -42.5t-156 42.5t-57 116.5
q0 58 31 96.5t89 51.5v4q-50 11 -77.5 47.5t-27.5 90.5q0 72 53 115.5t145 43.5q91 0 144 -43t53 -116q0 -54 -27 -90.5t-77 -47.5v-4q58 -13 89 -51.5t31 -96.5z" />
    <glyph glyph-name="nine" unicode="9" horiz-adv-x="524" 
d="M260 179q31 0 61 9t52 24q1 10 2 23t1 27q0 99 -31 151t-91 52q-54 0 -86 -39t-32 -105t33.5 -104t90.5 -38zM366 176q-19 -23 -56.5 -37t-82.5 -14q-85 0 -133.5 48.5t-48.5 135.5q0 92 56.5 145.5t152.5 53.5q108 0 164 -63.5t56 -184.5q0 -147 -107.5 -247
t-284.5 -113l-8 35q121 22 196.5 84.5t95.5 156.5z" />
    <glyph glyph-name="colon" unicode=":" horiz-adv-x="247" 
d="M123 -8q-29 0 -48.5 19.5t-19.5 48.5t20 49t48 20q29 0 49 -20t20 -49t-20 -48.5t-49 -19.5zM123 285q-29 0 -48.5 19.5t-19.5 48.5t20 49t48 20q29 0 49 -20t20 -49t-20 -48.5t-49 -19.5z" />
    <glyph glyph-name="semicolon" unicode=";" horiz-adv-x="260" 
d="M154 29h-6q-3 -14 -14 -21.5t-25 -7.5q-24 0 -38 16t-14 43q0 28 19 45.5t50 17.5q37 0 58 -22.5t21 -62.5q0 -61 -44 -111.5t-112 -69.5l-9 31q54 24 84 62t30 80zM122 285q-29 0 -48.5 19.5t-19.5 48.5t20 49t48 20q29 0 49 -20t20 -49t-20 -48.5t-49 -19.5z" />
    <glyph glyph-name="less" unicode="&#x3c;" horiz-adv-x="378" 
d="M55 244l239 200l28 -34l-201 -166l202 -169l-29 -33z" />
    <glyph glyph-name="equal" unicode="=" horiz-adv-x="496" 
d="M55 324h386v-43h-386v43zM55 205h386v-43h-386v43z" />
    <glyph glyph-name="greater" unicode="&#x3e;" horiz-adv-x="378" 
d="M84 42l-29 33l203 169l-201 166l27 34l239 -200z" />
    <glyph glyph-name="question" unicode="?" horiz-adv-x="400" 
d="M206 205v-22h-25q-11 13 -15.5 26t-4.5 31q0 14 4.5 26.5t15.5 23.5q8 9 23.5 22t17.5 15q29 24 42 49.5t13 55.5q0 49 -25.5 76.5t-72.5 27.5q-44 0 -70.5 -28.5t-26.5 -72.5q0 -22 6 -40t26 -45l-27 -17q-30 22 -43.5 49t-13.5 62q0 67 46.5 110.5t123.5 43.5
q82 0 128.5 -43t46.5 -117q0 -28 -7.5 -50.5t-22.5 -41.5q-8 -10 -19.5 -19.5t-58.5 -40.5q-41 -27 -51 -42t-10 -39zM190 -8q-29 0 -48.5 19.5t-19.5 48.5t20 49t48 20q29 0 49 -20t20 -49t-20 -48.5t-49 -19.5z" />
    <glyph glyph-name="at" unicode="@" horiz-adv-x="802" 
d="M762 248q0 -116 -47.5 -178t-131.5 -62q-47 0 -75.5 15t-38.5 46h-4q-10 -29 -39 -45t-70 -16q-55 0 -87 29.5t-32 80.5q0 57 44 87t126 30q12 0 27.5 -1t28.5 -3v44q0 37 -23.5 57.5t-64.5 20.5q-31 0 -59 -8.5t-55 -26.5l-12 26q30 38 70.5 56.5t92.5 18.5
q64 0 101.5 -36t37.5 -100v-165q0 -32 11.5 -47t35.5 -15q53 0 83 50t30 142q0 131 -83 207t-214 76q-144 0 -233.5 -89t-89.5 -233q0 -151 87 -239t236 -88q81 0 141.5 13.5t137.5 49.5l13 -28q-61 -41 -131.5 -60t-160.5 -19q-175 0 -274.5 98.5t-99.5 272.5
q0 165 102 265.5t272 100.5q159 0 253.5 -87t94.5 -240zM389 64q20 0 37 9t37 30v93h-24q-61 0 -87.5 -17t-26.5 -55q0 -28 17 -44t47 -16z" />
    <glyph glyph-name="A" unicode="A" horiz-adv-x="591" 
d="M279 520q-4 -27 -12.5 -56.5t-20.5 -62.5l-60 -161h183l-58 162q-12 35 -19 64.5t-9 53.5h-4zM365 0l-6 34l79 17l-52 143h-217l-52 -139l83 -21l-5 -34h-183l-7 31l50 24l201 533h80l200 -533l50 -24l-7 -31h-214z" />
    <glyph glyph-name="B" unicode="B" horiz-adv-x="539" 
d="M256 588q105 0 157.5 -36.5t52.5 -110.5q0 -49 -35 -85.5t-88 -40.5v-4q76 -10 116 -48.5t40 -102.5q0 -76 -56.5 -118t-153.5 -42h-246l-8 32l75 23v478l-75 23l8 32h213zM370 434q0 58 -30.5 84.5t-95.5 26.5h-42v-216h66q49 0 75.5 27.5t26.5 77.5zM270 43
q71 0 103.5 30t32.5 96q0 52 -35 84t-92 32h-77v-230l43 -12h25z" />
    <glyph glyph-name="C" unicode="C" horiz-adv-x="544" 
d="M514 78q-31 -42 -83.5 -65t-118.5 -23q-125 0 -198.5 81t-73.5 221q0 142 73 224t196 82q28 0 57 -4.5t67 -14.5l59 19v-167l-21 -5l-38 59q-25 39 -51.5 55t-69.5 16q-81 0 -124 -67.5t-43 -196.5q0 -118 45.5 -181t130.5 -63q52 0 90.5 14.5t80.5 46.5z" />
    <glyph glyph-name="D" unicode="D" horiz-adv-x="613" 
d="M110 533l-75 23l8 32h215q152 0 233.5 -73.5t81.5 -211.5q0 -136 -84 -219.5t-217 -83.5h-229l-8 32l75 23v478zM250 542h-48v-487l61 -15q101 0 153 65.5t52 191.5q0 122 -55 183.5t-163 61.5z" />
    <glyph glyph-name="E" unicode="E" horiz-adv-x="518" 
d="M361 190l-21 -4l-39 90h-99v-213l45 -17h133l82 142l26 -6l-20 -182h-425l-8 32l75 23v478l-75 23l8 32h416v-157l-21 -5l-74 116h-162v-220h98l39 88l22 -4v-216z" />
    <glyph glyph-name="F" unicode="F" horiz-adv-x="494" 
d="M202 276v-221l105 -20l-8 -35h-256l-8 32l75 23v478l-75 23l8 32h426v-157l-21 -5l-74 116h-172v-220h98l39 88l22 -4v-216l-21 -4l-39 90h-99z" />
    <glyph glyph-name="G" unicode="G" horiz-adv-x="607" 
d="M443 485q-25 39 -51.5 55t-69.5 16q-84 0 -130.5 -69.5t-46.5 -194.5q0 -122 43.5 -189t123.5 -67q32 0 59.5 6.5t56.5 21.5v158l-74 23l7 32h213l8 -32l-62 -23v-232h-15l-48 40q-33 -21 -69 -30.5t-81 -9.5q-119 0 -193 82t-74 220q0 140 77 223t202 83q28 0 57 -4.5
t67 -14.5l59 19v-167l-21 -5z" />
    <glyph glyph-name="H" unicode="H" horiz-adv-x="697" 
d="M495 533l-74 23l7 32h226l8 -32l-75 -23v-478l75 -23l-8 -32h-226l-7 32l74 23v221h-293v-221l75 -23l-8 -32h-226l-8 32l75 23v478l-75 23l8 32h226l8 -32l-75 -23v-211h293v211z" />
    <glyph glyph-name="I" unicode="I" horiz-adv-x="312" 
d="M110 533l-75 23l8 32h226l8 -32l-75 -23v-478l75 -23l-8 -32h-226l-8 32l75 23v478z" />
    <glyph glyph-name="J" unicode="J" horiz-adv-x="287" 
d="M15 -156q41 2 60.5 30.5t19.5 86.5v572l-75 23l8 32h226l8 -32l-75 -23v-532q0 -89 -50 -139.5t-138 -50.5q-40 0 -62 16t-22 46q0 26 15 41t39 15q26 0 40 -14.5t14 -39.5q0 -9 -2 -17t-6 -14z" />
    <glyph glyph-name="K" unicode="K" horiz-adv-x="601" 
d="M277 556l-75 -23v-211l63 8l163 205l-63 21l5 32h178l7 -33l-61 -19l-171 -210l194 -271l84 -22l-7 -33h-152l-192 282h-48v-227l75 -23l-8 -32h-226l-8 32l75 23v478l-75 23l8 32h226z" />
    <glyph glyph-name="L" unicode="L" horiz-adv-x="491" 
d="M43 588h226l8 -32l-75 -23v-470l45 -17h113l85 161l26 -6l-23 -201h-405l-8 32l75 23v478l-75 23z" />
    <glyph glyph-name="M" unicode="M" horiz-adv-x="799" 
d="M598 525q-11 -38 -22 -73t-23 -66l-146 -386h-48l-147 386q-11 31 -22 65.5t-22 73.5h-4q3 -34 4 -70t1 -73v-327l75 -23l-8 -32h-193l-8 32l75 23v478l-75 23l8 32h194l138 -388q11 -30 16.5 -54t5.5 -42h4q1 16 7 40t17 56l140 388h191l8 -32l-75 -23v-478l75 -23
l-8 -32h-226l-8 32l75 23v327q0 37 1.5 73t3.5 70h-4z" />
    <glyph glyph-name="N" unicode="N" horiz-adv-x="662" 
d="M164 503q3 -33 4 -68.5t1 -72.5v-307l75 -23l-8 -32h-193l-8 32l75 23v478l-75 23l8 32h165l234 -333q19 -26 35.5 -56.5t31.5 -65.5h4q-2 34 -3.5 68t-1.5 68v264l-75 23l8 32h193l8 -32l-75 -23v-533h-53l-274 381q-19 27 -37 57.5t-35 64.5h-4z" />
    <glyph glyph-name="O" unicode="O" horiz-adv-x="624" 
d="M312 598q124 0 198 -83t74 -221t-74 -221t-198 -83t-198 83t-74 221t74 221t198 83zM312 552q-84 0 -125 -63.5t-41 -194.5t41 -194.5t125 -63.5t125 63.5t41 194.5t-41 194.5t-125 63.5z" />
    <glyph glyph-name="P" unicode="P" horiz-adv-x="506" 
d="M256 588q111 0 168 -45t57 -133q0 -90 -60 -138t-165 -48h-54v-169l105 -20l-8 -35h-256l-8 32l75 23v478l-75 23l8 32h213zM385 410q0 70 -35.5 102.5t-112.5 32.5h-35v-278h36q79 0 113 33.5t34 109.5z" />
    <glyph glyph-name="Q" unicode="Q" horiz-adv-x="624" 
d="M569 -170h-145l-95 108q-17 19 -35.5 33t-40.5 25q-99 19 -156 98.5t-57 199.5q0 138 74 221t198 83t198 -83t74 -221q0 -126 -62.5 -207t-170.5 -94v-5q34 -3 59.5 -18t52.5 -47l32 -39l81 -26zM312 552q-84 0 -125 -63.5t-41 -194.5t41 -194.5t125 -63.5t125 63.5
t41 194.5t-41 194.5t-125 63.5z" />
    <glyph glyph-name="R" unicode="R" horiz-adv-x="583" 
d="M385 428q0 58 -32 87.5t-94 29.5h-57v-238h57q68 0 97 29t29 92zM316 273q31 -6 54.5 -23t41.5 -47l90 -149l81 -26l-7 -28h-153l-124 217q-16 28 -38.5 39t-58.5 11v-212l75 -23l-8 -32h-226l-8 32l75 23v478l-75 23l8 32h227q104 0 157.5 -41t53.5 -122
q0 -66 -46 -105.5t-119 -42.5v-4z" />
    <glyph glyph-name="S" unicode="S" horiz-adv-x="464" 
d="M106 124q27 -51 57.5 -71.5t77.5 -20.5q45 0 70.5 26t25.5 72q0 40 -18.5 64.5t-74.5 49.5l-70 32q-60 28 -88 67.5t-28 97.5q0 73 47.5 115t125.5 42q14 0 29 -1.5t32 -4.5q12 -2 32 -6.5t27 -5.5l45 18l1 -164l-25 -6l-29 56q-21 40 -47 57t-66 17q-42 0 -68.5 -25
t-26.5 -66q0 -40 18.5 -64t66.5 -46l80 -36q62 -28 90.5 -69.5t28.5 -101.5q0 -74 -50 -117t-130 -43q-26 0 -49 3.5t-82 24.5l-45 -28l-18 186l29 6z" />
    <glyph glyph-name="T" unicode="T" horiz-adv-x="546" 
d="M416 0h-286l-8 35l105 20v487h-112l-74 -116l-21 5v157h506v-157l-21 -5l-74 116h-112v-487l105 -20z" />
    <glyph glyph-name="U" unicode="U" horiz-adv-x="641" 
d="M613 588l8 -32l-75 -23v-323q0 -103 -60.5 -161.5t-163.5 -58.5q-115 0 -171.5 52t-56.5 157v334l-74 23l7 32h226l8 -32l-75 -23v-320q0 -85 35.5 -126t108.5 -41q76 0 116.5 45t40.5 129v313l-75 23l8 32h193z" />
    <glyph glyph-name="V" unicode="V" horiz-adv-x="581" 
d="M306 68q5 27 13.5 57t19.5 62l124 346l-83 21l5 34h184l7 -31l-50 -24l-196 -533h-80l-195 533l-50 24l7 31h214l6 -34l-79 -17l122 -351q11 -30 17.5 -59.5t9.5 -58.5h4z" />
    <glyph glyph-name="W" unicode="W" horiz-adv-x="798" 
d="M738 533l-134 -533h-87l-90 353q-8 34 -13.5 67.5t-7.5 67.5h-4q-3 -36 -9.5 -70t-15.5 -67l-95 -351h-88l-133 532l-51 25l7 31h214l6 -34l-80 -17l73 -327q7 -31 12.5 -64.5t8.5 -69.5h4q6 34 13.5 67.5t15.5 67.5l94 377h76l96 -378q9 -33 14 -66.5t7 -67.5h4
q3 34 8.5 67.5t13.5 67.5l79 321l-84 22l5 34h184l7 -31z" />
    <glyph glyph-name="X" unicode="X" horiz-adv-x="606" 
d="M259 554l-77 -17l126 -184l131 181l-65 20l4 34h188l6 -34l-56 -14l-175 -228l190 -257l65 -23l-8 -32h-240l-7 32l84 20l-142 195l-142 -191l82 -28l-7 -28h-198l-8 28l59 27l180 233l-175 245l-54 24l7 31h224z" />
    <glyph glyph-name="Y" unicode="Y" horiz-adv-x="560" 
d="M226 588l6 -34l-79 -17l109 -196q15 -26 23 -46t9 -34h4q4 13 13 33t24 46l107 193l-83 21l5 34h184l7 -31l-50 -24l-179 -315v-163l105 -20l-8 -35h-286l-8 35l105 20v163l-179 315l-50 24l7 31h214z" />
    <glyph glyph-name="Z" unicode="Z" horiz-adv-x="510" 
d="M458 0h-427l-6 12l273 459q15 26 28 44t23 29v4q-10 -1 -31 -2t-53 -1h-107l-87 -121l-22 4l14 160h401l5 -14l-277 -454q-16 -27 -29.5 -45t-23.5 -28v-4q12 2 33.5 2.5t52.5 0.5h146l90 126l24 -7z" />
    <glyph glyph-name="bracketleft" unicode="[" horiz-adv-x="335" 
d="M295 -107v-34h-195v842h195v-33l-127 -10v-755z" />
    <glyph glyph-name="backslash" unicode="\" horiz-adv-x="303" 
d="M240 -141l-230 842h53l230 -842h-53z" />
    <glyph glyph-name="bracketright" unicode="]" horiz-adv-x="335" 
d="M40 668v33h195v-842h-195v34l127 10v755z" />
    <glyph glyph-name="asciicircum" unicode="^" horiz-adv-x="425" 
d="M210 513l-125 -236l-65 4l172 307h41l172 -307l-69 -4z" />
    <glyph glyph-name="underscore" unicode="_" horiz-adv-x="372" 
d="M332 -40v-41h-292v41h292z" />
    <glyph glyph-name="grave" unicode="`" horiz-adv-x="302" 
d="M167 635l55 -133l-15 -12l-113 100q-15 13 -13.5 32t21.5 32q20 12 38 6.5t27 -25.5z" />
    <glyph glyph-name="a" unicode="a" horiz-adv-x="438" 
d="M47 365q33 41 75 61t95 20q63 0 103.5 -36t40.5 -97v-221q0 -35 16 -45.5t58 -4.5l3 -22q-17 -16 -38 -23t-48 -7q-29 0 -48.5 15.5t-24.5 44.5h-4q-13 -27 -44.5 -43.5t-69.5 -16.5q-60 0 -93 32t-33 90q0 63 46.5 97t132.5 34q15 0 31 -1.5t28 -4.5v53q0 42 -24.5 65
t-68.5 23q-32 0 -61.5 -10.5t-58.5 -31.5zM192 48q27 0 45.5 8t35.5 26v118h-26q-66 0 -94.5 -20t-28.5 -64q0 -32 18 -50t50 -18z" />
    <glyph glyph-name="b" unicode="b" horiz-adv-x="502" 
d="M216 -10q-41 0 -77.5 7t-70.5 21v564l-58 46v11l130 42h16v-301h4q20 33 52.5 49.5t75.5 16.5q77 0 125.5 -57t48.5 -151q0 -115 -66.5 -181.5t-179.5 -66.5zM369 209q0 81 -32 125.5t-89 44.5q-27 0 -49 -8.5t-43 -27.5v-283q10 -12 29 -19.5t41 -7.5q66 0 104.5 46.5
t38.5 129.5z" />
    <glyph glyph-name="c" unicode="c" horiz-adv-x="417" 
d="M328 299q-25 0 -41 15.5t-16 40.5q0 13 6 25t16 20q-12 3 -19 3.5t-16 0.5q-62 0 -98 -46.5t-36 -127.5q0 -82 37 -128.5t102 -46.5q29 0 56 9.5t60 31.5l13 -23q-29 -43 -68.5 -63t-95.5 -20q-85 0 -136.5 61t-51.5 165q0 102 61.5 166t156.5 64q59 0 93 -22.5t34 -63.5
q0 -27 -16 -44t-41 -17z" />
    <glyph glyph-name="d" unicode="d" horiz-adv-x="510" 
d="M495 20l-131 -30l-7 66l-3 1q-24 -33 -57.5 -50t-76.5 -17q-82 0 -131 57.5t-49 155.5q0 112 65 177.5t166 65.5q23 0 42 -3.5t33 -11.5v151l-58 46v11l130 42h16v-604l61 -47v-10zM346 379q-13 13 -31.5 19t-44.5 6q-63 0 -100.5 -49.5t-37.5 -133.5q0 -79 34.5 -123
t95.5 -44q22 0 44.5 7.5t39.5 20.5v297z" />
    <glyph glyph-name="e" unicode="e" horiz-adv-x="431" 
d="M401 289q0 -15 -1 -27.5t-4 -24.5h-272q0 -86 36 -134t99 -48q35 0 63.5 9.5t60.5 31.5l13 -23q-28 -43 -68 -63t-96 -20q-88 0 -140 60t-52 164q0 105 57.5 168.5t148.5 63.5q71 0 113 -42.5t42 -114.5zM310 280q1 4 1 10v17q0 48 -19.5 72t-57.5 24q-40 0 -68.5 -32.5
t-38.5 -90.5h183z" />
    <glyph glyph-name="f" unicode="f" horiz-adv-x="299" 
d="M285 389h-114v-341l90 -18l-13 -30h-212v28l47 16v345h-73v34l73 16v27q0 102 52 161.5t137 59.5q52 0 82 -20.5t30 -57.5q0 -25 -15.5 -41.5t-38.5 -16.5q-24 0 -39 14t-15 36q0 15 5.5 28t15.5 20q-8 2 -14.5 3t-14.5 1q-48 0 -72.5 -37.5t-24.5 -111.5v-68h122z" />
    <glyph glyph-name="g" unicode="g" horiz-adv-x="457" 
d="M142 295q0 -56 18 -80t58 -24q41 0 59 24t18 80q0 57 -18 81t-59 24q-40 0 -58 -24t-18 -81zM167 158q-24 -11 -35 -24t-11 -29q0 -18 10.5 -27t32.5 -9h144q65 0 102.5 -34t37.5 -94q0 -77 -63.5 -119.5t-172.5 -42.5q-92 0 -142 29.5t-50 84.5q0 40 25 66t78 41v4
q-35 4 -54.5 25t-19.5 54q0 32 22.5 54t62.5 29q-42 16 -63.5 48t-21.5 77q0 69 46.5 112t125.5 43q40 0 78 -9t77 -28q-3 5 -4 10.5t-1 13.5q0 21 13.5 34t34.5 13q22 0 35 -14t13 -37q0 -25 -15 -38.5t-43 -13.5q-17 0 -35 4.5t-43 14.5v-9q25 -13 41 -39.5t16 -56.5
q0 -63 -48 -101.5t-119 -38.5q-16 0 -29.5 1.5t-24.5 5.5zM368 -79q0 35 -19.5 51t-60.5 16h-133q-24 -13 -36 -34t-12 -50q0 -43 27 -63t84 -20q74 0 112 25t38 75z" />
    <glyph glyph-name="h" unicode="h" horiz-adv-x="515" 
d="M300 0v28l47 17v253q0 37 -19 57t-54 20q-26 0 -54.5 -11t-48.5 -29v-287l70 -19l-13 -29h-192v28l47 17v537l-58 46v11l130 42h16v-312h4q24 37 62.5 57.5t79.5 20.5q56 0 87 -34t31 -98v-267l70 -19l-13 -29h-192z" />
    <glyph glyph-name="i" unicode="i" horiz-adv-x="261" 
d="M193 577q0 -26 -18 -44t-44 -18t-44 18t-18 44t18 44t44 18t44 -18t18 -44zM160 446h16v-398l70 -19l-13 -29h-192v28l47 16v291l-48 54v11z" />
    <glyph glyph-name="j" unicode="j" horiz-adv-x="225" 
d="M175 577q0 -26 -18 -44t-44 -18t-44 18t-18 44t18 44t44 18t44 -18t18 -44zM22 408l120 42h16v-499q0 -80 -43 -125t-123 -45q-31 0 -49 14t-18 39q0 22 14 35.5t37 13.5q21 0 32.5 -12.5t11.5 -34.5q0 -7 -2 -15t-5 -12q24 0 40.5 28.5t16.5 76.5v429l-48 54v11z" />
    <glyph glyph-name="k" unicode="k" horiz-adv-x="491" 
d="M209 212h-38v-164l70 -19l-13 -29h-192v28l47 16v538l-58 46v11l130 42h16v-434l35 8l143 134l-58 18l7 29h160l7 -29l-55 -23l-134 -124l146 -211l69 -21l-11 -28h-132z" />
    <glyph glyph-name="l" unicode="l" horiz-adv-x="256" 
d="M155 681h16v-633l70 -19l-13 -29h-192v28l47 16v538l-58 46v11z" />
    <glyph glyph-name="m" unicode="m" horiz-adv-x="764" 
d="M596 295q0 37 -17.5 57t-49.5 20q-24 0 -51 -11.5t-48 -30.5v-282l70 -19l-13 -29h-192v28l47 17v250q0 37 -17.5 57t-49.5 20q-24 0 -51 -11.5t-48 -30.5v-282l70 -19l-13 -29h-192v28l47 16v291l-48 54v11l120 46h15l-3 -84h4q28 43 62.5 64t77.5 21q42 0 70.5 -22
t39.5 -63h4q28 43 62.5 64t77.5 21q53 0 83.5 -35.5t30.5 -101.5v-262l70 -19l-13 -29h-192v28l47 17v250z" />
    <glyph glyph-name="n" unicode="n" horiz-adv-x="520" 
d="M322 446q54 0 86 -36t32 -101v-261l70 -19l-13 -29h-192v28l47 17v247q0 38 -19 57.5t-55 19.5q-26 0 -53.5 -11t-48.5 -29v-281l70 -19l-13 -29h-192v28l47 16v291l-48 54v11l120 46h15l-3 -85h4q25 41 63.5 63t82.5 22z" />
    <glyph glyph-name="o" unicode="o" horiz-adv-x="489" 
d="M40 218q0 108 54 168t151 60q96 0 150 -60t54 -168t-54 -168t-150 -60q-97 0 -151 60t-54 168zM353 218q0 93 -27 139.5t-81 46.5q-55 0 -82 -46.5t-27 -139.5t27 -139.5t82 -46.5q54 0 81 46.5t27 139.5z" />
    <glyph glyph-name="p" unicode="p" horiz-adv-x="502" 
d="M369 214q0 77 -33 121t-88 44q-27 0 -49 -8.5t-43 -27.5v-283q10 -12 29 -19.5t41 -7.5q66 0 104.5 48t38.5 133zM288 446q77 0 125.5 -57t48.5 -151q0 -115 -66.5 -181.5t-179.5 -66.5q-13 0 -25 1.5t-35 6.5v-160l70 -19l-13 -29h-192v28l47 17v500l-48 54v11l123 46
h16l-3 -67h4q17 31 51.5 49t76.5 18z" />
    <glyph glyph-name="q" unicode="q" horiz-adv-x="499" 
d="M299 -182l47 17v211h-3q-19 -28 -50 -42t-73 -14q-82 0 -131 57.5t-49 155.5q0 112 65 177.5t166 65.5q21 0 41.5 -5t36.5 -13l85 19v-609l70 -19l-13 -29h-192v28zM346 379q-13 13 -31.5 19t-44.5 6q-63 0 -100.5 -49.5t-37.5 -133.5q0 -79 34.5 -123t95.5 -44
q22 0 44.5 7.5t39.5 20.5v297z" />
    <glyph glyph-name="r" unicode="r" horiz-adv-x="377" 
d="M262 382q-22 -8 -43 -27.5t-43 -52.5v-254l90 -18l-13 -30h-212v28l47 16v291l-48 54v11l120 46h15l-3 -103h4q22 48 55.5 76t71.5 28q34 0 54 -17.5t20 -47.5q0 -28 -16 -44.5t-42 -16.5t-41.5 17t-15.5 44z" />
    <glyph glyph-name="s" unicode="s" horiz-adv-x="389" 
d="M94 13l-45 -23l-9 144l24 7q28 -61 58.5 -87t76.5 -26q38 0 56.5 15.5t18.5 47.5q0 28 -16.5 45.5t-55.5 30.5l-57 20q-51 18 -75 50t-24 82q0 60 39 93.5t107 33.5q18 0 42.5 -5.5t37.5 -12.5l48 17l8 -128l-21 -7q-29 51 -57 73t-64 22q-31 0 -49.5 -16.5t-18.5 -43.5
q0 -28 16 -46t51 -30l57 -19q57 -20 82 -51.5t25 -82.5q0 -61 -41 -93.5t-115 -32.5q-24 0 -49 5.5t-50 17.5z" />
    <glyph glyph-name="t" unicode="t" horiz-adv-x="317" 
d="M72 114v275h-57v28l125 138h20v-119h146l-7 -47h-139v-260q0 -40 16.5 -59.5t49.5 -19.5q21 0 39.5 5t41.5 16l10 -25q-27 -30 -59.5 -43t-76.5 -13q-55 0 -82 31t-27 93z" />
    <glyph glyph-name="u" unicode="u" horiz-adv-x="484" 
d="M227 51q28 0 53.5 12.5t46.5 35.5v236l-48 54v11l120 46h16v-377l54 -38v-11l-129 -30l-9 72h-4q-21 -34 -58 -53t-80 -19q-58 0 -92 36.5t-34 102.5v206l-48 54v11l120 46h16v-298q0 -48 19.5 -72.5t56.5 -24.5z" />
    <glyph glyph-name="v" unicode="v" horiz-adv-x="450" 
d="M244 93q7 30 16 60.5t21 61.5l61 170l-66 22l6 29h162l6 -29l-46 -19l-152 -388h-50l-159 383l-43 27l7 26h184l7 -30l-64 -16l70 -176q12 -30 21 -60t15 -61h4z" />
    <glyph glyph-name="w" unicode="w" horiz-adv-x="660" 
d="M43 383l-43 27l7 26h187l6 -28l-64 -18l55 -185q8 -25 13.5 -50t8.5 -50h4q3 25 9 50t15 50l81 231h50l75 -231q8 -25 14.5 -50t11.5 -50h4q4 25 9.5 50t13.5 50l58 180l-66 22l7 29h156l5 -29l-45 -19l-129 -388h-55l-76 209q-8 22 -15 46.5t-13 51.5h-4
q-6 -29 -12.5 -53.5t-13.5 -44.5l-73 -209h-55z" />
    <glyph glyph-name="x" unicode="x" horiz-adv-x="460" 
d="M6 0l-6 28l69 29l115 157l-124 175l-47 20l6 27h177l10 -29l-45 -10l77 -121h4l78 115l-50 18l7 27h155l7 -29l-60 -22l-109 -148l132 -189l58 -19l-13 -29h-176l-7 28l42 12l-86 133h-5l-92 -129l68 -16l-6 -28h-179z" />
    <glyph glyph-name="y" unicode="y" horiz-adv-x="461" 
d="M98 -141q0 -10 -2.5 -18.5t-7.5 -15.5q29 0 63.5 46.5t56.5 113.5l-158 398l-43 27l7 26h185l7 -30l-64 -16l71 -188q14 -37 22.5 -69t10.5 -58h4q9 32 18.5 64t19.5 64l59 182l-66 22l6 29h160l6 -29l-46 -19l-139 -379q-46 -124 -90 -174.5t-108 -50.5
q-37 0 -58.5 18.5t-21.5 49.5q0 27 15.5 42.5t41.5 15.5q23 0 37 -14.5t14 -36.5z" />
    <glyph glyph-name="z" unicode="z" horiz-adv-x="427" 
d="M278 396q-10 -1 -31 -2t-53 -1h-60l-77 -101l-22 4l14 140h341l5 -14l-200 -307q-16 -24 -30 -42.5t-26 -30.5v-4q9 2 29 2.5t51 0.5h77l82 112l24 -7l-24 -146h-347l-6 12l202 307q17 25 29.5 43.5t21.5 29.5v4z" />
    <glyph glyph-name="braceleft" unicode="{" horiz-adv-x="371" 
d="M220 408q0 -52 -19 -82t-72 -46v-4q53 -16 72 -46t19 -82v-143q0 -50 25.5 -78t85.5 -38v-32q-83 0 -132 38t-49 105v144q0 54 -24.5 83t-95.5 40v22q71 11 95.5 40t24.5 83v144q0 67 49 105t132 38v-32q-60 -10 -85.5 -38t-25.5 -78v-143z" />
    <glyph glyph-name="bar" unicode="|" horiz-adv-x="148" 
d="M98 701v-842h-48v842h48z" />
    <glyph glyph-name="braceright" unicode="}" horiz-adv-x="371" 
d="M151 148q0 52 19 82t72 46v4q-53 16 -72 46t-19 82v143q0 50 -25.5 78t-85.5 38v32q83 0 132 -38t49 -105v-144q0 -54 24.5 -83t95.5 -40v-22q-71 -11 -95.5 -40t-24.5 -83v-144q0 -67 -49 -105t-132 -38v32q60 10 85.5 38t25.5 78v143z" />
    <glyph glyph-name="asciitilde" unicode="~" horiz-adv-x="454" 
d="M379 254q0 -31 -21 -51t-55 -21q-15 0 -30 3t-30 9l-61 26q-7 3 -14.5 4.5t-15.5 1.5q-20 -1 -33 -15.5t-16 -40.5l-17 2q-6 12 -8.5 21.5t-2.5 19.5q0 33 23 54.5t60 21.5q12 0 25.5 -3t27.5 -9l62 -26q9 -4 17 -5.5t16 -1.5q19 0 30.5 15t12.5 42l20 -4q5 -12 7.5 -22
t2.5 -21z" />
    <glyph glyph-name="nonbreakingspace" unicode="&#xa0;" horiz-adv-x="170" 
 />
    <glyph glyph-name="exclamdown" unicode="&#xa1;" horiz-adv-x="225" 
d="M112 301q-30 0 -51 21.5t-21 51.5t21 51t51 21t51.5 -21t21.5 -51t-21.5 -51.5t-51.5 -21.5zM54 -152v57l37 350h39l37 -349v-58h-113z" />
    <glyph glyph-name="cent" unicode="&#xa2;" horiz-adv-x="503" 
d="M291 -9v-105h-40v105q-90 5 -140.5 63t-50.5 159q0 97 53 159.5t138 71.5v108h40v-107q65 -3 107.5 -34t42.5 -74q0 -25 -15.5 -41t-38.5 -16q-22 0 -37 14.5t-15 36.5q0 18 11 32t27 15q-17 13 -38 20.5t-44 8.5v-362q40 2 72 16t62 43l18 -18q-28 -45 -64.5 -68
t-87.5 -27zM251 406q-52 -9 -78 -55t-26 -126q0 -73 27.5 -119.5t76.5 -57.5v358z" />
    <glyph glyph-name="sterling" unicode="&#xa3;" horiz-adv-x="611" 
d="M180 151l23 134h-83v39h89l12 66q18 105 69.5 156.5t138.5 51.5q61 0 96.5 -25.5t35.5 -70.5q0 -28 -14.5 -44t-39.5 -16q-23 0 -37.5 13.5t-14.5 34.5t13.5 34t32.5 13q-7 12 -27 19.5t-46 7.5q-30 0 -49 -12t-32 -39q-6 -13 -11.5 -33t-14.5 -66l-18 -90h149v-39h-157
l-20 -104q-6 -28 -8.5 -38.5t-5.5 -19.5q8 -3 35 -16t43 -19q25 -10 44.5 -14.5t37.5 -4.5q52 0 75 21t26 68l23 3q5 -14 6.5 -24t1.5 -21q0 -63 -31.5 -94.5t-93.5 -31.5q-35 0 -71 13.5t-118 67.5q-21 -40 -51 -60.5t-70 -20.5q-42 0 -65 20.5t-23 55.5q0 42 26 66.5
t71 24.5q14 0 27 -1.5t26 -4.5zM125 119q-23 0 -36.5 -13.5t-13.5 -34.5q0 -19 10 -29.5t27 -10.5q24 0 38.5 18.5t21.5 55.5v3q-13 6 -24.5 8.5t-22.5 2.5z" />
    <glyph glyph-name="currency" unicode="&#xa4;" horiz-adv-x="526" 
d="M408 305q0 61 -43 104t-105 43q-61 0 -103.5 -43t-42.5 -104t42.5 -103.5t103.5 -42.5q62 0 105 42.5t43 103.5zM385 470l68 68l43 -42l-70 -69q19 -26 29 -57t10 -63q0 -33 -10 -63.5t-29 -57.5l69 -68l-42 -43l-68 68q-27 -20 -59 -30t-66 -10q-33 0 -63.5 9.5
t-56.5 28.5l-68 -68l-42 42l69 68q-20 26 -31 58t-11 66q0 33 11 65t31 58l-69 69l42 42l68 -70q27 20 58 30t64 10t64.5 -10.5t58.5 -30.5z" />
    <glyph glyph-name="yen" unicode="&#xa5;" horiz-adv-x="600" 
d="M246 588l6 -34l-79 -17l109 -196q15 -26 23 -46t9 -34h4q4 13 13 33t24 46l107 193l-83 21l5 34h184l7 -31l-50 -24l-129 -226h117v-39h-139l-28 -50v-31h167v-39h-167v-93l105 -20l-8 -35h-286l-8 35l105 20v93h-153v39h153v31l-29 50h-124v39h102l-128 226l-50 24l7 31
h214z" />
    <glyph glyph-name="brokenbar" unicode="&#xa6;" horiz-adv-x="148" 
d="M98 701v-384h-48v384h48zM98 243v-384h-48v384h48z" />
    <glyph glyph-name="section" unicode="&#xa7;" horiz-adv-x="476" 
d="M257 147q35 5 54.5 27.5t19.5 59.5q0 35 -19.5 57t-58.5 32l-18 4q-37 -3 -60.5 -25t-23.5 -58q0 -29 16.5 -49t50.5 -33zM179 -20q0 -18 -8.5 -30.5t-22.5 -16.5q12 -10 32.5 -15.5t44.5 -5.5q50 0 74 16.5t24 49.5q0 27 -14 43t-49 31l-72 29q-60 25 -84.5 56t-24.5 81
q0 46 26 77.5t74 46.5q-46 13 -69 44.5t-23 79.5q0 60 45.5 96t116.5 36q65 0 102.5 -24t37.5 -65q0 -24 -14.5 -39.5t-37.5 -15.5q-22 0 -36.5 14.5t-14.5 36.5q0 15 8 26.5t22 14.5q-9 7 -27.5 11t-40.5 4q-41 0 -65 -18t-24 -49q0 -28 14.5 -44.5t52.5 -28.5l56 -19
q69 -24 96.5 -56.5t27.5 -86.5q0 -49 -27 -81.5t-77 -46.5q51 -21 73.5 -51t22.5 -74q0 -59 -47 -93t-125 -34q-72 0 -114 24.5t-42 68.5q0 25 14.5 41t38.5 17q26 1 41 -13t15 -37z" />
    <glyph glyph-name="dieresis" unicode="&#xa8;" horiz-adv-x="463" 
d="M194 563q0 -23 -17 -40t-42 -17q-22 0 -38.5 17t-16.5 40q0 24 16 41t39 17q25 0 42 -16.5t17 -41.5zM383 562q0 -23 -17 -40t-41 -17q-23 0 -40 17t-17 40q0 24 16.5 41t40.5 17t41 -17t17 -41z" />
    <glyph glyph-name="copyright" unicode="&#xa9;" horiz-adv-x="685" 
d="M663 294q0 -131 -88.5 -218.5t-218.5 -87.5q-129 0 -217.5 87.5t-88.5 218.5t88.5 219t217.5 88t218 -88t89 -219zM633 294q0 119 -79.5 198.5t-196.5 79.5t-196.5 -79.5t-79.5 -198.5t79.5 -198t196.5 -79t196.5 79t79.5 198zM274 295q0 -66 25.5 -98.5t77.5 -32.5
q28 0 52.5 8.5t50.5 27.5l15 -18q-18 -27 -52 -43t-75 -16q-83 0 -130 46t-47 126q0 76 48.5 122.5t128.5 46.5q16 0 33 -2.5t43 -8.5l39 11v-109l-15 -2l-19 30q-18 26 -36 36t-45 10q-48 0 -71 -32.5t-23 -101.5z" />
    <glyph glyph-name="ordfeminine" unicode="&#xaa;" horiz-adv-x="385" 
d="M222 446q-56 -4 -82 -21.5t-26 -53.5q0 -20 13 -33t33 -13q19 0 34 4t28 12v105zM40 567q26 33 60 49.5t78 16.5q55 0 89 -31.5t34 -85.5v-169q0 -20 10 -29.5t42 -11.5l2 -16q-17 -11 -38 -17.5t-38 -6.5q-22 0 -36 13t-17 36h-2q-21 -28 -45 -40t-58 -12q-39 0 -65 26
t-26 65q0 56 47 86t145 35v25q0 34 -19.5 52.5t-54.5 18.5q-28 0 -52 -8t-45 -24z" />
    <glyph glyph-name="guillemotleft" unicode="&#xab;" horiz-adv-x="423" 
d="M280 219l113 -166l-47 -7l-156 173l156 174l47 -7zM120 219l113 -166l-47 -7l-156 173l156 174l47 -7z" />
    <glyph glyph-name="logicalnot" unicode="&#xac;" horiz-adv-x="553" 
d="M503 141h-50v164h-403v45h453v-209z" />
    <glyph glyph-name="uni00AD" unicode="&#xad;" horiz-adv-x="329" 
d="M289 260v-51h-249v51h249z" />
    <glyph glyph-name="registered" unicode="&#xae;" horiz-adv-x="685" 
d="M649 294q0 -131 -88.5 -218.5t-218.5 -87.5q-129 0 -217.5 87.5t-88.5 218.5t88.5 219t217.5 88t218 -88t89 -219zM619 294q0 119 -79.5 198.5t-196.5 79.5t-196.5 -79.5t-79.5 -198.5t79.5 -198t196.5 -79t196.5 79t79.5 198zM402 370q0 37 -16.5 51t-67.5 14h-25v-128
h30q45 2 62 16t17 47zM372 286q20 -5 31 -12.5t21 -26.5l44 -77l57 -16l-5 -19h-107l-62 112q-15 24 -26.5 29.5t-31.5 6.5v-112l53 -14l-6 -22h-156l-4 22l48 14v256l-48 15l4 21h147q77 0 110.5 -22t33.5 -70q0 -40 -27 -61.5t-76 -23.5z" />
    <glyph glyph-name="macron" unicode="&#xaf;" horiz-adv-x="439" 
d="M80 561h279v-48h-279v48z" />
    <glyph glyph-name="degree" unicode="&#xb0;" horiz-adv-x="290" 
d="M260 543q0 -48 -32 -80t-82 -32q-53 0 -84.5 31t-31.5 81q0 47 33 78.5t83 31.5q49 0 81.5 -31.5t32.5 -78.5zM215 542q0 32 -19.5 52.5t-49.5 20.5q-32 0 -51.5 -20.5t-19.5 -52.5q0 -33 19 -52.5t52 -19.5q31 0 50 20t19 52z" />
    <glyph glyph-name="plusminus" unicode="&#xb1;" horiz-adv-x="496" 
d="M225 282h-170v43h170v130h43v-130h173v-43h-173v-144h-43v144zM55 100h386v-43h-386v43z" />
    <glyph glyph-name="twosuperior" unicode="&#xb2;" horiz-adv-x="365" 
d="M130 299v-4h180v-61h-271l-4 33q56 40 77.5 56t36.5 29q37 32 52 59t15 61q0 32 -18.5 51t-50.5 19q-30 0 -46.5 -17t-16.5 -47q0 -7 1 -14.5t2 -15.5l-31 -9q-5 9 -8 21.5t-3 24.5q0 51 32.5 82t89.5 31q58 0 93 -32t35 -86q0 -48 -32.5 -88t-132.5 -93z" />
    <glyph glyph-name="threesuperior" unicode="&#xb3;" horiz-adv-x="350" 
d="M155 226q-59 0 -89.5 26t-30.5 76l38 7q3 -33 20.5 -50.5t48.5 -17.5q35 0 54.5 15.5t19.5 44.5q0 36 -25 53.5t-75 17.5l-5 25q56 13 72 26.5t16 43.5q0 27 -14.5 40.5t-41.5 13.5t-41.5 -14t-14.5 -39q0 -4 1 -9.5t2 -8.5l-30 -6q-4 9 -6 18.5t-2 19.5q0 40 31 65
t85 25t83.5 -24t29.5 -69q0 -35 -25 -58.5t-64 -28.5v-4q51 -2 77.5 -23.5t26.5 -60.5q0 -49 -38 -76.5t-103 -27.5z" />
    <glyph glyph-name="acute" unicode="&#xb4;" horiz-adv-x="302" 
d="M135 635q9 20 27 25.5t38 -6.5q20 -13 21.5 -32t-13.5 -32l-113 -100l-15 12z" />
    <glyph glyph-name="mu" unicode="&#xb5;" horiz-adv-x="484" 
d="M227 51q28 0 53.5 12.5t46.5 35.5v320l72 27h16v-377l54 -38v-11l-129 -30l-9 72h-4q-21 -34 -58 -53t-80 -19q-20 0 -40.5 11.5t-30.5 30.5l34 -200l-7 -24l-82 18v593l72 27h16v-298q0 -48 19.5 -72.5t56.5 -24.5z" />
    <glyph glyph-name="paragraph" unicode="&#xb6;" horiz-adv-x="461" 
d="M416 588v-43l-64 -10v-544q0 -66 -38 -103t-106 -37q-42 0 -66 18t-24 50q0 25 15.5 39.5t40.5 14.5q23 0 36 -13.5t13 -35.5q0 -10 -3 -19t-10 -17q50 1 68.5 27t18.5 90v219h-70q-92 0 -144.5 46.5t-52.5 129.5q0 86 65.5 137t167.5 51h153z" />
    <glyph glyph-name="periodcentered" unicode="&#xb7;" horiz-adv-x="217" 
d="M177 250q0 -29 -20 -48.5t-49 -19.5t-48.5 19.5t-19.5 48.5t20 49t48 20q29 0 49 -20t20 -49z" />
    <glyph glyph-name="cedilla" unicode="&#xb8;" horiz-adv-x="358" 
d="M278 -132q0 -42 -28.5 -64t-83.5 -22q-27 0 -50 8.5t-36 23.5l17 22q14 -12 29 -17.5t34 -5.5q22 0 35 10t13 28q0 21 -14 34t-67 28l37 102h31l-21 -57q49 -9 76.5 -32.5t27.5 -57.5z" />
    <glyph glyph-name="onesuperior" unicode="&#xb9;" horiz-adv-x="345" 
d="M40 535l169 63l17 -6v-310l99 -16l-10 -32h-255l-10 32l101 16v229h-103z" />
    <glyph glyph-name="ordmasculine" unicode="&#xba;" horiz-adv-x="407" 
d="M203 259q-85 0 -129 47t-44 139q0 87 47.5 137.5t126.5 50.5q81 0 127 -49.5t46 -138.5q0 -88 -46.5 -137t-127.5 -49zM205 600q-44 0 -66 -39t-22 -117q0 -79 22 -116.5t66 -37.5q42 0 64.5 41t22.5 113q0 75 -22.5 115.5t-64.5 40.5z" />
    <glyph glyph-name="guillemotright" unicode="&#xbb;" horiz-adv-x="423" 
d="M190 386l47 7l156 -174l-156 -173l-47 7l113 166zM30 386l47 7l156 -174l-156 -173l-47 7l113 166z" />
    <glyph glyph-name="onequarter" unicode="&#xbc;" horiz-adv-x="863" 
d="M710 628l-437 -667h-53l437 667h53zM40 535l169 63l17 -6v-310l99 -16l-10 -32h-255l-10 32l101 16v229h-103zM682 354h85v-233h71v-41h-71v-80h-76v80h-183v32zM558 117q4 2 16.5 3t33.5 1h83v117q0 21 1 39.5t3 34.5h-4q-5 -14 -14 -30.5t-22 -35.5l-54 -79
q-12 -17 -22.5 -28.5t-20.5 -17.5v-4z" />
    <glyph glyph-name="onehalf" unicode="&#xbd;" horiz-adv-x="900" 
d="M710 628l-437 -667h-53l437 667h53zM40 535l169 63l17 -6v-310l99 -16l-10 -32h-255l-10 32l101 16v229h-103zM665 66v-4h180v-61h-271l-4 33q56 40 77.5 56t36.5 29q37 32 52 59t15 61q0 32 -18.5 51t-50.5 19q-30 0 -46.5 -17t-16.5 -47q0 -7 1 -14.5t2 -15.5l-31 -9
q-5 9 -8 21.5t-3 24.5q0 51 32.5 82t89.5 31q58 0 93 -32t35 -86q0 -48 -32.5 -88t-132.5 -93z" />
    <glyph glyph-name="threequarters" unicode="&#xbe;" horiz-adv-x="818" 
d="M665 628l-437 -667h-53l437 667h53zM155 226q-59 0 -89.5 26t-30.5 76l38 7q3 -33 20.5 -50.5t48.5 -17.5q35 0 54.5 15.5t19.5 44.5q0 36 -25 53.5t-75 17.5l-5 25q56 13 72 26.5t16 43.5q0 27 -14.5 40.5t-41.5 13.5t-41.5 -14t-14.5 -39q0 -4 1 -9.5t2 -8.5l-30 -6
q-4 9 -6 18.5t-2 19.5q0 40 31 65t85 25t83.5 -24t29.5 -69q0 -35 -25 -58.5t-64 -28.5v-4q51 -2 77.5 -23.5t26.5 -60.5q0 -49 -38 -76.5t-103 -27.5zM637 354h85v-233h71v-41h-71v-80h-76v80h-183v32zM513 117q4 2 16.5 3t33.5 1h83v117q0 21 1 39.5t3 34.5h-4
q-5 -14 -14 -30.5t-22 -35.5l-54 -79q-12 -17 -22.5 -28.5t-20.5 -17.5v-4z" />
    <glyph glyph-name="questiondown" unicode="&#xbf;" horiz-adv-x="400" 
d="M204 233v22h25q11 -13 15.5 -26t4.5 -31q0 -14 -4.5 -26.5t-15.5 -23.5q-8 -9 -23.5 -22t-17.5 -15q-29 -24 -42 -49.5t-13 -55.5q0 -49 25.5 -76.5t72.5 -27.5q44 0 70.5 28.5t26.5 72.5q0 22 -6 40t-26 45l27 17q30 -22 43.5 -49t13.5 -62q0 -67 -46.5 -110.5
t-123.5 -43.5q-82 0 -128.5 43t-46.5 117q0 28 7.5 50.5t22.5 41.5q8 10 19.5 19.5t58.5 40.5q41 27 51 42t10 39zM220 446q29 0 48.5 -19.5t19.5 -48.5t-20 -49t-48 -20q-29 0 -49 20t-20 49t20 48.5t49 19.5z" />
    <glyph glyph-name="Agrave" unicode="&#xc0;" horiz-adv-x="591" 
d="M279 520q-4 -27 -12.5 -56.5t-20.5 -62.5l-60 -161h183l-58 162q-12 35 -19 64.5t-9 53.5h-4zM365 0l-6 34l79 17l-52 143h-217l-52 -139l83 -21l-5 -34h-183l-7 31l50 24l201 533h80l200 -533l50 -24l-7 -31h-214zM269 753l88 -118l-13 -17l-128 77q-18 11 -22 29t12 34
q15 15 32.5 13.5t30.5 -18.5z" />
    <glyph glyph-name="Aacute" unicode="&#xc1;" horiz-adv-x="591" 
d="M279 520q-4 -27 -12.5 -56.5t-20.5 -62.5l-60 -161h183l-58 162q-12 35 -19 64.5t-9 53.5h-4zM365 0l-6 34l79 17l-52 143h-217l-52 -139l83 -21l-5 -34h-183l-7 31l50 24l201 533h80l200 -533l50 -24l-7 -31h-214zM334 762q13 17 30.5 18.5t32.5 -13.5q16 -16 12 -34
t-22 -29l-128 -77l-13 17z" />
    <glyph glyph-name="Acircumflex" unicode="&#xc2;" horiz-adv-x="591" 
d="M279 520q-4 -27 -12.5 -56.5t-20.5 -62.5l-60 -161h183l-58 162q-12 35 -19 64.5t-9 53.5h-4zM365 0l-6 34l79 17l-52 143h-217l-52 -139l83 -21l-5 -34h-183l-7 31l50 24l201 533h80l200 -533l50 -24l-7 -31h-214zM209 618h-47l138 137h14l134 -137h-92l-70 71z" />
    <glyph glyph-name="Atilde" unicode="&#xc3;" horiz-adv-x="591" 
d="M279 520q-4 -27 -12.5 -56.5t-20.5 -62.5l-60 -161h183l-58 162q-12 35 -19 64.5t-9 53.5h-4zM365 0l-6 34l79 17l-52 143h-217l-52 -139l83 -21l-5 -34h-183l-7 31l50 24l201 533h80l200 -533l50 -24l-7 -31h-214zM455 717q0 -31 -21 -51t-55 -21q-15 0 -30 3t-30 9
l-61 26q-7 3 -14.5 4.5t-15.5 1.5q-20 -1 -33 -15.5t-16 -40.5l-17 2q-6 12 -8.5 21.5t-2.5 19.5q0 33 23 54.5t60 21.5q12 0 25.5 -3t27.5 -9l62 -26q9 -4 17 -5.5t16 -1.5q19 0 30.5 15t12.5 42l20 -4q5 -12 7.5 -22t2.5 -21z" />
    <glyph glyph-name="Adieresis" unicode="&#xc4;" horiz-adv-x="591" 
d="M279 520q-4 -27 -12.5 -56.5t-20.5 -62.5l-60 -161h183l-58 162q-12 35 -19 64.5t-9 53.5h-4zM365 0l-6 34l79 17l-52 143h-217l-52 -139l83 -21l-5 -34h-183l-7 31l50 24l201 533h80l200 -533l50 -24l-7 -31h-214zM260 679q0 -23 -17 -40t-42 -17q-22 0 -38.5 17
t-16.5 40q0 24 16 41t39 17q25 0 42 -16.5t17 -41.5zM449 678q0 -23 -17 -40t-41 -17q-23 0 -40 17t-17 40q0 24 16.5 41t40.5 17t41 -17t17 -41z" />
    <glyph glyph-name="Aring" unicode="&#xc5;" horiz-adv-x="591" 
d="M279 520q-4 -27 -12.5 -56.5t-20.5 -62.5l-60 -161h183l-58 162q-12 35 -19 64.5t-9 53.5h-4zM365 0l-6 34l79 17l-52 143h-217l-52 -139l83 -21l-5 -34h-183l-7 31l50 24l201 533h80l200 -533l50 -24l-7 -31h-214zM385 709q0 -39 -26 -64.5t-66 -25.5q-41 0 -66.5 25
t-25.5 65q0 37 26 62.5t66 25.5t66 -25.5t26 -62.5zM342 708q0 22 -13.5 36.5t-35.5 14.5t-35.5 -14.5t-13.5 -36.5q0 -23 13 -36.5t36 -13.5q22 0 35.5 14t13.5 36z" />
    <glyph glyph-name="AE" unicode="&#xc6;" horiz-adv-x="817" 
d="M405 539q-4 -18 -15.5 -42.5t-30.5 -56.5l-118 -200h168v299h-4zM345 533l-74 23l7 32h480v-157l-21 -5l-74 116h-162v-220h98l39 88l22 -4v-216l-21 -4l-39 90h-99v-213l45 -17h133l82 142l26 -6l-20 -182h-425l-7 32l74 23v139h-195l-83 -141l70 -19l-5 -34h-184l-7 30
l61 25z" />
    <glyph glyph-name="Ccedilla" unicode="&#xc7;" horiz-adv-x="544" 
d="M397 -132q0 -42 -28.5 -64t-83.5 -22q-27 0 -50 8.5t-36 23.5l17 22q14 -12 29 -17.5t34 -5.5q22 0 35 10t13 28q0 21 -14 34t-67 28l28 79q-109 12 -171.5 91.5t-62.5 208.5q0 142 73 224t196 82q28 0 57 -4.5t67 -14.5l59 19v-167l-21 -5l-38 59q-25 39 -51.5 55
t-69.5 16q-81 0 -124 -67.5t-43 -196.5q0 -118 45.5 -181t130.5 -63q52 0 90.5 14.5t80.5 46.5l22 -31q-31 -42 -83.5 -65t-118.5 -23h-7l-12 -32q49 -9 76.5 -32.5t27.5 -57.5z" />
    <glyph glyph-name="Egrave" unicode="&#xc8;" horiz-adv-x="518" 
d="M361 190l-21 -4l-39 90h-99v-213l45 -17h133l82 142l26 -6l-20 -182h-425l-8 32l75 23v478l-75 23l8 32h416v-157l-21 -5l-74 116h-162v-220h98l39 88l22 -4v-216zM245 753l88 -118l-13 -17l-128 77q-18 11 -22 29t12 34q15 15 32.5 13.5t30.5 -18.5z" />
    <glyph glyph-name="Eacute" unicode="&#xc9;" horiz-adv-x="518" 
d="M361 190l-21 -4l-39 90h-99v-213l45 -17h133l82 142l26 -6l-20 -182h-425l-8 32l75 23v478l-75 23l8 32h416v-157l-21 -5l-74 116h-162v-220h98l39 88l22 -4v-216zM292 762q13 17 30.5 18.5t32.5 -13.5q16 -16 12 -34t-22 -29l-128 -77l-13 17z" />
    <glyph glyph-name="Ecircumflex" unicode="&#xca;" horiz-adv-x="518" 
d="M361 190l-21 -4l-39 90h-99v-213l45 -17h133l82 142l26 -6l-20 -182h-425l-8 32l75 23v478l-75 23l8 32h416v-157l-21 -5l-74 116h-162v-220h98l39 88l22 -4v-216zM179 628h-47l138 137h14l134 -137h-92l-70 71z" />
    <glyph glyph-name="Edieresis" unicode="&#xcb;" horiz-adv-x="518" 
d="M361 190l-21 -4l-39 90h-99v-213l45 -17h133l82 142l26 -6l-20 -182h-425l-8 32l75 23v478l-75 23l8 32h416v-157l-21 -5l-74 116h-162v-220h98l39 88l22 -4v-216zM234 679q0 -23 -17 -40t-42 -17q-22 0 -38.5 17t-16.5 40q0 24 16 41t39 17q25 0 42 -16.5t17 -41.5z
M423 678q0 -23 -17 -40t-41 -17q-23 0 -40 17t-17 40q0 24 16.5 41t40.5 17t41 -17t17 -41z" />
    <glyph glyph-name="Igrave" unicode="&#xcc;" horiz-adv-x="312" 
d="M110 533l-75 23l8 32h226l8 -32l-75 -23v-478l75 -23l-8 -32h-226l-8 32l75 23v478zM137 753l88 -118l-13 -17l-128 77q-18 11 -22 29t12 34q15 15 32.5 13.5t30.5 -18.5z" />
    <glyph glyph-name="Iacute" unicode="&#xcd;" horiz-adv-x="312" 
d="M110 533l-75 23l8 32h226l8 -32l-75 -23v-478l75 -23l-8 -32h-226l-8 32l75 23v478zM182 762q13 17 30.5 18.5t32.5 -13.5q16 -16 12 -34t-22 -29l-128 -77l-13 17z" />
    <glyph glyph-name="Icircumflex" unicode="&#xce;" horiz-adv-x="312" 
d="M70 628h-47l128 137h14l124 -137h-92l-63 68zM110 533l-74 23l7 32h226l8 -32l-75 -23v-478l75 -23l-8 -32h-226l-7 32l74 23v478z" />
    <glyph glyph-name="Idieresis" unicode="&#xcf;" horiz-adv-x="312" 
d="M135 679q0 -23 -17 -40t-42 -17q-22 0 -38.5 17t-16.5 40q0 24 16 41t39 17q25 0 42 -16.5t17 -41.5zM294 678q0 -23 -17 -40t-41 -17q-23 0 -40 17t-17 40q0 24 16.5 41t40.5 17t41 -17t17 -41zM110 533l-75 23l8 32h226l8 -32l-75 -23v-478l75 -23l-8 -32h-226l-8 32
l75 23v478z" />
    <glyph glyph-name="Eth" unicode="&#xd0;" horiz-adv-x="613" 
d="M110 55v221h-67v46h67v211l-75 23l8 32h215q152 0 233.5 -73.5t81.5 -211.5q0 -136 -84 -219.5t-217 -83.5h-229l-8 32zM324 276h-122v-221l61 -15q101 0 153 65.5t52 191.5q0 122 -55 183.5t-163 61.5h-48v-220h122v-46z" />
    <glyph glyph-name="Ntilde" unicode="&#xd1;" horiz-adv-x="662" 
d="M164 503q3 -33 4 -68.5t1 -72.5v-307l75 -23l-8 -32h-193l-8 32l75 23v478l-75 23l8 32h165l234 -333q19 -26 35.5 -56.5t31.5 -65.5h4q-2 34 -3.5 68t-1.5 68v264l-75 23l8 32h193l8 -32l-75 -23v-533h-53l-274 381q-19 27 -37 57.5t-35 64.5h-4zM482 717q0 -31 -21 -51
t-55 -21q-15 0 -30 3t-30 9l-61 26q-7 3 -14.5 4.5t-15.5 1.5q-20 -1 -33 -15.5t-16 -40.5l-17 2q-6 12 -8.5 21.5t-2.5 19.5q0 33 23 54.5t60 21.5q12 0 25.5 -3t27.5 -9l62 -26q9 -4 17 -5.5t16 -1.5q19 0 30.5 15t12.5 42l20 -4q5 -12 7.5 -22t2.5 -21z" />
    <glyph glyph-name="Ograve" unicode="&#xd2;" horiz-adv-x="624" 
d="M312 598q124 0 198 -83t74 -221t-74 -221t-198 -83t-198 83t-74 221t74 221t198 83zM312 552q-84 0 -125 -63.5t-41 -194.5t41 -194.5t125 -63.5t125 63.5t41 194.5t-41 194.5t-125 63.5zM314 753l88 -118l-13 -17l-128 77q-18 11 -22 29t12 34q15 15 32.5 13.5
t30.5 -18.5z" />
    <glyph glyph-name="Oacute" unicode="&#xd3;" horiz-adv-x="624" 
d="M312 598q124 0 198 -83t74 -221t-74 -221t-198 -83t-198 83t-74 221t74 221t198 83zM312 552q-84 0 -125 -63.5t-41 -194.5t41 -194.5t125 -63.5t125 63.5t41 194.5t-41 194.5t-125 63.5zM331 762q13 17 30.5 18.5t32.5 -13.5q16 -16 12 -34t-22 -29l-128 -77l-13 17z
" />
    <glyph glyph-name="Ocircumflex" unicode="&#xd4;" horiz-adv-x="624" 
d="M312 598q124 0 198 -83t74 -221t-74 -221t-198 -83t-198 83t-74 221t74 221t198 83zM312 552q-84 0 -125 -63.5t-41 -194.5t41 -194.5t125 -63.5t125 63.5t41 194.5t-41 194.5t-125 63.5zM223 628h-47l138 137h14l134 -137h-92l-70 71z" />
    <glyph glyph-name="Otilde" unicode="&#xd5;" horiz-adv-x="624" 
d="M312 598q124 0 198 -83t74 -221t-74 -221t-198 -83t-198 83t-74 221t74 221t198 83zM312 552q-84 0 -125 -63.5t-41 -194.5t41 -194.5t125 -63.5t125 63.5t41 194.5t-41 194.5t-125 63.5zM464 717q0 -31 -21 -51t-55 -21q-15 0 -30 3t-30 9l-61 26q-7 3 -14.5 4.5
t-15.5 1.5q-20 -1 -33 -15.5t-16 -40.5l-17 2q-6 12 -8.5 21.5t-2.5 19.5q0 33 23 54.5t60 21.5q12 0 25.5 -3t27.5 -9l62 -26q9 -4 17 -5.5t16 -1.5q19 0 30.5 15t12.5 42l20 -4q5 -12 7.5 -22t2.5 -21z" />
    <glyph glyph-name="Odieresis" unicode="&#xd6;" horiz-adv-x="624" 
d="M312 598q124 0 198 -83t74 -221t-74 -221t-198 -83t-198 83t-74 221t74 221t198 83zM312 552q-84 0 -125 -63.5t-41 -194.5t41 -194.5t125 -63.5t125 63.5t41 194.5t-41 194.5t-125 63.5zM275 679q0 -23 -17 -40t-42 -17q-22 0 -38.5 17t-16.5 40q0 24 16 41t39 17
q25 0 42 -16.5t17 -41.5zM464 678q0 -23 -17 -40t-41 -17q-23 0 -40 17t-17 40q0 24 16.5 41t40.5 17t41 -17t17 -41z" />
    <glyph glyph-name="multiply" unicode="&#xd7;" horiz-adv-x="441" 
d="M218 215l-132 -131l-31 30l132 132l-128 128l30 30l129 -127l134 133l31 -30l-135 -134l138 -138l-30 -30z" />
    <glyph glyph-name="Oslash" unicode="&#xd8;" horiz-adv-x="622" 
d="M431 497q-21 29 -51 43t-69 14q-83 0 -124.5 -63.5t-41.5 -191.5q0 -48 6.5 -88.5t18.5 -71.5zM192 98q21 -31 51 -47t68 -16q80 0 123 69t43 195q0 48 -6 87t-18 70zM502 523q39 -41 59.5 -98t20.5 -125q0 -150 -69.5 -230t-201.5 -80q-50 0 -91.5 11.5t-73.5 34.5
l-47 -65h-51l67 92q-37 40 -56 99.5t-19 137.5q0 136 73.5 217t197.5 81q46 0 86.5 -12t72.5 -35l49 67h53z" />
    <glyph glyph-name="Ugrave" unicode="&#xd9;" horiz-adv-x="641" 
d="M613 588l8 -32l-75 -23v-323q0 -103 -60.5 -161.5t-163.5 -58.5q-115 0 -171.5 52t-56.5 157v334l-74 23l7 32h226l8 -32l-75 -23v-320q0 -85 35.5 -126t108.5 -41q76 0 116.5 45t40.5 129v313l-75 23l8 32h193zM294 753l88 -118l-13 -17l-128 77q-18 11 -22 29t12 34
q15 15 32.5 13.5t30.5 -18.5z" />
    <glyph glyph-name="Uacute" unicode="&#xda;" horiz-adv-x="641" 
d="M613 588l8 -32l-75 -23v-323q0 -103 -60.5 -161.5t-163.5 -58.5q-115 0 -171.5 52t-56.5 157v334l-74 23l7 32h226l8 -32l-75 -23v-320q0 -85 35.5 -126t108.5 -41q76 0 116.5 45t40.5 129v313l-75 23l8 32h193zM369 762q13 17 30.5 18.5t32.5 -13.5q16 -16 12 -34
t-22 -29l-128 -77l-13 17z" />
    <glyph glyph-name="Ucircumflex" unicode="&#xdb;" horiz-adv-x="641" 
d="M613 588l8 -32l-75 -23v-323q0 -103 -60.5 -161.5t-163.5 -58.5q-115 0 -171.5 52t-56.5 157v334l-74 23l7 32h226l8 -32l-75 -23v-320q0 -85 35.5 -126t108.5 -41q76 0 116.5 45t40.5 129v313l-75 23l8 32h193zM228 628h-47l138 137h14l134 -137h-92l-70 71z" />
    <glyph glyph-name="Udieresis" unicode="&#xdc;" horiz-adv-x="641" 
d="M613 588l8 -32l-75 -23v-323q0 -103 -60.5 -161.5t-163.5 -58.5q-115 0 -171.5 52t-56.5 157v334l-74 23l7 32h226l8 -32l-75 -23v-320q0 -85 35.5 -126t108.5 -41q76 0 116.5 45t40.5 129v313l-75 23l8 32h193zM292 679q0 -23 -17 -40t-42 -17q-22 0 -38.5 17t-16.5 40
q0 24 16 41t39 17q25 0 42 -16.5t17 -41.5zM481 678q0 -23 -17 -40t-41 -17q-23 0 -40 17t-17 40q0 24 16.5 41t40.5 17t41 -17t17 -41z" />
    <glyph glyph-name="Yacute" unicode="&#xdd;" horiz-adv-x="560" 
d="M226 588l6 -34l-79 -17l109 -196q15 -26 23 -46t9 -34h4q4 13 13 33t24 46l107 193l-83 21l5 34h184l7 -31l-50 -24l-179 -315v-163l105 -20l-8 -35h-286l-8 35l105 20v163l-179 315l-50 24l7 31h214zM318 762q13 17 30.5 18.5t32.5 -13.5q16 -16 12 -34t-22 -29
l-128 -77l-13 17z" />
    <glyph glyph-name="Thorn" unicode="&#xde;" horiz-adv-x="505" 
d="M276 556l-75 -23v-66h54q116 0 170.5 -41.5t54.5 -126.5q0 -87 -57 -131.5t-168 -44.5h-54v-68l105 -20l-8 -35h-256l-7 32l74 23v478l-74 23l7 32h226zM384 299q0 65 -35.5 95t-112.5 30h-35v-258h36q80 0 113.5 31t33.5 102z" />
    <glyph glyph-name="germandbls" unicode="&#xdf;" horiz-adv-x="549" 
d="M255 319q0 27 11.5 48.5t63.5 71.5q35 34 46 56.5t11 58.5q0 41 -29 66.5t-76 25.5q-56 0 -83 -34.5t-27 -107.5l-1 -504h-135v28l47 20v341h-73v34l73 16v27q0 107 58 164t165 57q79 0 124 -33t45 -92q0 -37 -15 -63t-71 -68q-40 -29 -51 -46.5t-11 -39.5
q0 -24 22 -45.5t78 -49.5q67 -35 87 -63t20 -71q0 -61 -41 -93.5t-115 -32.5q-24 0 -49 5.5t-50 17.5l-45 -23l-9 144l24 7q46 -75 71.5 -96.5t63.5 -21.5q37 0 56 15.5t19 46.5q0 26 -13 43t-59 39q-79 39 -105.5 70.5t-26.5 81.5z" />
    <glyph glyph-name="agrave" unicode="&#xe0;" horiz-adv-x="438" 
d="M47 365q33 41 75 61t95 20q63 0 103.5 -36t40.5 -97v-221q0 -35 16 -45.5t58 -4.5l3 -22q-17 -16 -38 -23t-48 -7q-29 0 -48.5 15.5t-24.5 44.5h-4q-13 -27 -44.5 -43.5t-69.5 -16.5q-60 0 -93 32t-33 90q0 63 46.5 97t132.5 34q15 0 31 -1.5t28 -4.5v53q0 42 -24.5 65
t-68.5 23q-32 0 -61.5 -10.5t-58.5 -31.5zM192 48q27 0 45.5 8t35.5 26v118h-26q-66 0 -94.5 -20t-28.5 -64q0 -32 18 -50t50 -18zM218 635l55 -133l-15 -12l-113 100q-15 13 -13.5 32t21.5 32q20 12 38 6.5t27 -25.5z" />
    <glyph glyph-name="aacute" unicode="&#xe1;" horiz-adv-x="438" 
d="M47 365q33 41 75 61t95 20q63 0 103.5 -36t40.5 -97v-221q0 -35 16 -45.5t58 -4.5l3 -22q-17 -16 -38 -23t-48 -7q-29 0 -48.5 15.5t-24.5 44.5h-4q-13 -27 -44.5 -43.5t-69.5 -16.5q-60 0 -93 32t-33 90q0 63 46.5 97t132.5 34q15 0 31 -1.5t28 -4.5v53q0 42 -24.5 65
t-68.5 23q-32 0 -61.5 -10.5t-58.5 -31.5zM192 48q27 0 45.5 8t35.5 26v118h-26q-66 0 -94.5 -20t-28.5 -64q0 -32 18 -50t50 -18zM222 635q9 20 27 25.5t38 -6.5q20 -13 21.5 -32t-13.5 -32l-113 -100l-15 12z" />
    <glyph glyph-name="acircumflex" unicode="&#xe2;" horiz-adv-x="438" 
d="M47 365q33 41 75 61t95 20q63 0 103.5 -36t40.5 -97v-221q0 -35 16 -45.5t58 -4.5l3 -22q-17 -16 -38 -23t-48 -7q-29 0 -48.5 15.5t-24.5 44.5h-4q-13 -27 -44.5 -43.5t-69.5 -16.5q-60 0 -93 32t-33 90q0 63 46.5 97t132.5 34q15 0 31 -1.5t28 -4.5v53q0 42 -24.5 65
t-68.5 23q-32 0 -61.5 -10.5t-58.5 -31.5zM192 48q27 0 45.5 8t35.5 26v118h-26q-66 0 -94.5 -20t-28.5 -64q0 -32 18 -50t50 -18zM110 482h-45l138 177h14l134 -177h-87l-73 106z" />
    <glyph glyph-name="atilde" unicode="&#xe3;" horiz-adv-x="438" 
d="M47 365q33 41 75 61t95 20q63 0 103.5 -36t40.5 -97v-221q0 -35 16 -45.5t58 -4.5l3 -22q-17 -16 -38 -23t-48 -7q-29 0 -48.5 15.5t-24.5 44.5h-4q-13 -27 -44.5 -43.5t-69.5 -16.5q-60 0 -93 32t-33 90q0 63 46.5 97t132.5 34q15 0 31 -1.5t28 -4.5v53q0 42 -24.5 65
t-68.5 23q-32 0 -61.5 -10.5t-58.5 -31.5zM192 48q27 0 45.5 8t35.5 26v118h-26q-66 0 -94.5 -20t-28.5 -64q0 -32 18 -50t50 -18zM367 573q0 -31 -21 -51t-55 -21q-15 0 -30 3t-30 9l-61 26q-7 3 -14.5 4.5t-15.5 1.5q-20 -1 -33 -15.5t-16 -40.5l-17 2q-6 12 -8.5 21.5
t-2.5 19.5q0 33 23 54.5t60 21.5q12 0 25.5 -3t27.5 -9l62 -26q9 -4 17 -5.5t16 -1.5q19 0 30.5 15t12.5 42l20 -4q5 -12 7.5 -22t2.5 -21z" />
    <glyph glyph-name="adieresis" unicode="&#xe4;" horiz-adv-x="438" 
d="M47 365q33 41 75 61t95 20q63 0 103.5 -36t40.5 -97v-221q0 -35 16 -45.5t58 -4.5l3 -22q-17 -16 -38 -23t-48 -7q-29 0 -48.5 15.5t-24.5 44.5h-4q-13 -27 -44.5 -43.5t-69.5 -16.5q-60 0 -93 32t-33 90q0 63 46.5 97t132.5 34q15 0 31 -1.5t28 -4.5v53q0 42 -24.5 65
t-68.5 23q-32 0 -61.5 -10.5t-58.5 -31.5zM192 48q27 0 45.5 8t35.5 26v118h-26q-66 0 -94.5 -20t-28.5 -64q0 -32 18 -50t50 -18zM169 563q0 -23 -17 -40t-42 -17q-22 0 -38.5 17t-16.5 40q0 24 16 41t39 17q25 0 42 -16.5t17 -41.5zM358 562q0 -23 -17 -40t-41 -17
q-23 0 -40 17t-17 40q0 24 16.5 41t40.5 17t41 -17t17 -41z" />
    <glyph glyph-name="aring" unicode="&#xe5;" horiz-adv-x="438" 
d="M47 365q33 41 75 61t95 20q63 0 103.5 -36t40.5 -97v-221q0 -35 16 -45.5t58 -4.5l3 -22q-17 -16 -38 -23t-48 -7q-29 0 -48.5 15.5t-24.5 44.5h-4q-13 -27 -44.5 -43.5t-69.5 -16.5q-60 0 -93 32t-33 90q0 63 46.5 97t132.5 34q15 0 31 -1.5t28 -4.5v53q0 42 -24.5 65
t-68.5 23q-32 0 -61.5 -10.5t-58.5 -31.5zM192 48q27 0 45.5 8t35.5 26v118h-26q-66 0 -94.5 -20t-28.5 -64q0 -32 18 -50t50 -18zM305 587q0 -39 -26 -64.5t-66 -25.5q-41 0 -66.5 25t-25.5 65q0 37 26 62.5t66 25.5t66 -25.5t26 -62.5zM262 586q0 22 -13.5 36.5
t-35.5 14.5t-35.5 -14.5t-13.5 -36.5q0 -23 13 -36.5t36 -13.5q22 0 35.5 14t13.5 36z" />
    <glyph glyph-name="ae" unicode="&#xe6;" horiz-adv-x="656" 
d="M626 289q0 -15 -1 -27.5t-4 -24.5l-272 -14q0 -76 36.5 -122t98.5 -46q35 0 63.5 9.5t60.5 31.5l13 -23q-28 -43 -68 -63t-96 -20q-46 0 -84 17.5t-63 50.5q-19 -33 -55.5 -50.5t-82.5 -17.5q-65 0 -101 33t-36 92q0 68 56 103.5t177 42.5q1 7 3 15.5t5 19.5
q-2 39 -27.5 60.5t-68.5 21.5q-32 0 -61.5 -10.5t-58.5 -31.5l-13 29q33 41 75 61t95 20q36 0 66.5 -14.5t49.5 -39.5q28 26 63 40t75 14q71 0 113 -42.5t42 -114.5zM535 276q0 3 0.5 10.5t0.5 20.5q0 48 -19.5 72t-57.5 24q-43 0 -72.5 -37.5t-34.5 -99.5zM265 220
q-81 -6 -110 -26.5t-29 -69.5q0 -33 20 -52t55 -19q33 0 52.5 8t38.5 26q-13 25 -20 57t-7 70v6z" />
    <glyph glyph-name="ccedilla" unicode="&#xe7;" horiz-adv-x="417" 
d="M310 -132q0 -42 -28.5 -64t-83.5 -22q-27 0 -50 8.5t-36 23.5l17 22q14 -12 29 -17.5t34 -5.5q22 0 35 10t13 28q0 21 -14 34t-67 28l29 81q-68 14 -108 73t-40 149q0 102 61.5 166t156.5 64q59 0 93 -22.5t34 -63.5q0 -27 -16 -44t-41 -17t-41 15.5t-16 40.5q0 13 6 25
t16 20q-12 3 -19 3.5t-16 0.5q-62 0 -98 -46.5t-36 -127.5q0 -82 37 -128.5t102 -46.5q29 0 56 9.5t60 31.5l13 -23q-29 -43 -68.5 -63t-95.5 -20h-10l-12 -32q49 -9 76.5 -32.5t27.5 -57.5z" />
    <glyph glyph-name="egrave" unicode="&#xe8;" horiz-adv-x="431" 
d="M401 289q0 -15 -1 -27.5t-4 -24.5h-272q0 -86 36 -134t99 -48q35 0 63.5 9.5t60.5 31.5l13 -23q-28 -43 -68 -63t-96 -20q-88 0 -140 60t-52 164q0 105 57.5 168.5t148.5 63.5q71 0 113 -42.5t42 -114.5zM310 280q1 4 1 10v17q0 48 -19.5 72t-57.5 24q-40 0 -68.5 -32.5
t-38.5 -90.5h183zM232 635l55 -133l-15 -12l-113 100q-15 13 -13.5 32t21.5 32q20 12 38 6.5t27 -25.5z" />
    <glyph glyph-name="eacute" unicode="&#xe9;" horiz-adv-x="431" 
d="M401 289q0 -15 -1 -27.5t-4 -24.5h-272q0 -86 36 -134t99 -48q35 0 63.5 9.5t60.5 31.5l13 -23q-28 -43 -68 -63t-96 -20q-88 0 -140 60t-52 164q0 105 57.5 168.5t148.5 63.5q71 0 113 -42.5t42 -114.5zM310 280q1 4 1 10v17q0 48 -19.5 72t-57.5 24q-40 0 -68.5 -32.5
t-38.5 -90.5h183zM243 635q9 20 27 25.5t38 -6.5q20 -13 21.5 -32t-13.5 -32l-113 -100l-15 12z" />
    <glyph glyph-name="ecircumflex" unicode="&#xea;" horiz-adv-x="431" 
d="M401 289q0 -15 -1 -27.5t-4 -24.5h-272q0 -86 36 -134t99 -48q35 0 63.5 9.5t60.5 31.5l13 -23q-28 -43 -68 -63t-96 -20q-88 0 -140 60t-52 164q0 105 57.5 168.5t148.5 63.5q71 0 113 -42.5t42 -114.5zM310 280q1 4 1 10v17q0 48 -19.5 72t-57.5 24q-40 0 -68.5 -32.5
t-38.5 -90.5h183zM144 482h-45l138 177h14l134 -177h-87l-73 106z" />
    <glyph glyph-name="edieresis" unicode="&#xeb;" horiz-adv-x="431" 
d="M401 289q0 -15 -1 -27.5t-4 -24.5h-272q0 -86 36 -134t99 -48q35 0 63.5 9.5t60.5 31.5l13 -23q-28 -43 -68 -63t-96 -20q-88 0 -140 60t-52 164q0 105 57.5 168.5t148.5 63.5q71 0 113 -42.5t42 -114.5zM310 280q1 4 1 10v17q0 48 -19.5 72t-57.5 24q-40 0 -68.5 -32.5
t-38.5 -90.5h183zM205 563q0 -23 -17 -40t-42 -17q-22 0 -38.5 17t-16.5 40q0 24 16 41t39 17q25 0 42 -16.5t17 -41.5zM394 562q0 -23 -17 -40t-41 -17q-23 0 -40 17t-17 40q0 24 16.5 41t40.5 17t41 -17t17 -41z" />
    <glyph glyph-name="igrave" unicode="&#xec;" horiz-adv-x="261" 
d="M160 446h16v-398l70 -19l-13 -29h-192v28l47 20v292l-48 54v11zM113 635l55 -133l-15 -12l-113 100q-15 13 -13.5 32t21.5 32q20 12 38 6.5t27 -25.5z" />
    <glyph glyph-name="iacute" unicode="&#xed;" horiz-adv-x="261" 
d="M160 446h16v-398l70 -19l-13 -29h-192v28l47 20v292l-48 54v11zM137 635q9 20 27 25.5t38 -6.5q20 -13 21.5 -32t-13.5 -32l-113 -100l-15 12z" />
    <glyph glyph-name="icircumflex" unicode="&#xee;" horiz-adv-x="261" 
d="M40 482h-45l128 177h14l124 -177h-87l-61 97zM160 446h16v-398l70 -19l-13 -29h-192v28l47 20v292l-48 54v11z" />
    <glyph glyph-name="idieresis" unicode="&#xef;" horiz-adv-x="261" 
d="M160 446h16v-398l70 -19l-13 -29h-192v28l47 20v292l-48 54v11zM94 563q0 -23 -17 -40t-42 -17q-22 0 -38.5 17t-16.5 40q0 24 16 41t39 17q25 0 42 -16.5t17 -41.5zM283 562q0 -23 -17 -40t-41 -17q-23 0 -40 17t-17 40q0 24 16.5 41t40.5 17t41 -17t17 -41z" />
    <glyph glyph-name="eth" unicode="&#xf0;" horiz-adv-x="502" 
d="M265 554l-144 -59l-12 33l128 52q-25 22 -57.5 42.5t-73.5 40.5l14 25q53 -12 98 -32.5t82 -49.5l97 40l12 -34l-78 -32q64 -59 97.5 -144t33.5 -184q0 -126 -55.5 -194t-155.5 -68q-104 0 -157.5 59.5t-53.5 174.5q0 102 57 162t151 60q28 0 52 -8t43 -24
q-12 42 -31 76.5t-47 63.5zM139 233q0 -100 29 -152.5t85 -52.5q55 0 82.5 55t27.5 163q0 35 -2.5 65t-7.5 56q-18 18 -44 28.5t-52 10.5q-58 0 -88 -44.5t-30 -128.5z" />
    <glyph glyph-name="ntilde" unicode="&#xf1;" horiz-adv-x="520" 
d="M322 446q54 0 86 -36t32 -101v-261l70 -19l-13 -29h-192v28l47 17v247q0 38 -19 57.5t-55 19.5q-26 0 -53.5 -11t-48.5 -29v-281l70 -19l-13 -29h-192v28l47 16v291l-48 54v11l120 46h15l-3 -85h4q25 41 63.5 63t82.5 22zM423 573q0 -31 -21 -51t-55 -21q-15 0 -30 3
t-30 9l-61 26q-7 3 -14.5 4.5t-15.5 1.5q-20 -1 -33 -15.5t-16 -40.5l-17 2q-6 12 -8.5 21.5t-2.5 19.5q0 33 23 54.5t60 21.5q12 0 25.5 -3t27.5 -9l62 -26q9 -4 17 -5.5t16 -1.5q19 0 30.5 15t12.5 42l20 -4q5 -12 7.5 -22t2.5 -21z" />
    <glyph glyph-name="ograve" unicode="&#xf2;" horiz-adv-x="489" 
d="M40 218q0 108 54 168t151 60q96 0 150 -60t54 -168t-54 -168t-150 -60q-97 0 -151 60t-54 168zM353 218q0 93 -27 139.5t-81 46.5q-55 0 -82 -46.5t-27 -139.5t27 -139.5t82 -46.5q54 0 81 46.5t27 139.5zM240 635l55 -133l-15 -12l-113 100q-15 13 -13.5 32t21.5 32
q20 12 38 6.5t27 -25.5z" />
    <glyph glyph-name="oacute" unicode="&#xf3;" horiz-adv-x="489" 
d="M40 218q0 108 54 168t151 60q96 0 150 -60t54 -168t-54 -168t-150 -60q-97 0 -151 60t-54 168zM353 218q0 93 -27 139.5t-81 46.5q-55 0 -82 -46.5t-27 -139.5t27 -139.5t82 -46.5q54 0 81 46.5t27 139.5zM258 635q9 20 27 25.5t38 -6.5q20 -13 21.5 -32t-13.5 -32
l-113 -100l-15 12z" />
    <glyph glyph-name="ocircumflex" unicode="&#xf4;" horiz-adv-x="489" 
d="M40 218q0 108 54 168t151 60q96 0 150 -60t54 -168t-54 -168t-150 -60q-97 0 -151 60t-54 168zM353 218q0 93 -27 139.5t-81 46.5q-55 0 -82 -46.5t-27 -139.5t27 -139.5t82 -46.5q54 0 81 46.5t27 139.5zM151 482h-45l138 177h14l134 -177h-87l-73 106z" />
    <glyph glyph-name="otilde" unicode="&#xf5;" horiz-adv-x="489" 
d="M40 218q0 108 54 168t151 60q96 0 150 -60t54 -168t-54 -168t-150 -60q-97 0 -151 60t-54 168zM353 218q0 93 -27 139.5t-81 46.5q-55 0 -82 -46.5t-27 -139.5t27 -139.5t82 -46.5q54 0 81 46.5t27 139.5zM400 573q0 -31 -21 -51t-55 -21q-15 0 -30 3t-30 9l-61 26
q-7 3 -14.5 4.5t-15.5 1.5q-20 -1 -33 -15.5t-16 -40.5l-17 2q-6 12 -8.5 21.5t-2.5 19.5q0 33 23 54.5t60 21.5q12 0 25.5 -3t27.5 -9l62 -26q9 -4 17 -5.5t16 -1.5q19 0 30.5 15t12.5 42l20 -4q5 -12 7.5 -22t2.5 -21z" />
    <glyph glyph-name="odieresis" unicode="&#xf6;" horiz-adv-x="489" 
d="M40 218q0 108 54 168t151 60q96 0 150 -60t54 -168t-54 -168t-150 -60q-97 0 -151 60t-54 168zM353 218q0 93 -27 139.5t-81 46.5q-55 0 -82 -46.5t-27 -139.5t27 -139.5t82 -46.5q54 0 81 46.5t27 139.5zM209 563q0 -23 -17 -40t-42 -17q-22 0 -38.5 17t-16.5 40
q0 24 16 41t39 17q25 0 42 -16.5t17 -41.5zM398 562q0 -23 -17 -40t-41 -17q-23 0 -40 17t-17 40q0 24 16.5 41t40.5 17t41 -17t17 -41z" />
    <glyph glyph-name="divide" unicode="&#xf7;" horiz-adv-x="496" 
d="M286 407q0 -16 -12 -28t-29 -12q-16 0 -28 12t-12 28q0 17 12 29t28 12q17 0 29 -12t12 -29zM55 266h386v-43h-386v43zM286 77q0 -16 -12 -28t-29 -12q-16 0 -28 12t-12 28q0 17 12 29t28 12q17 0 29 -12t12 -29z" />
    <glyph glyph-name="oslash" unicode="&#xf8;" horiz-adv-x="503" 
d="M322 372q-13 17 -31 25.5t-39 8.5q-56 0 -84 -47t-28 -142q0 -33 3 -59t9 -47zM169 72q14 -22 34.5 -33t48.5 -11q53 0 81 50t28 139q0 37 -5 67t-14 53zM103 37q-31 28 -47 73.5t-16 106.5q0 106 57.5 167.5t154.5 61.5q29 0 55 -6t49 -17l28 43h43l-41 -62
q38 -29 57.5 -76.5t19.5 -110.5q0 -108 -56.5 -167.5t-155.5 -59.5q-35 0 -64.5 6.5t-53.5 19.5l-30 -45h-43z" />
    <glyph glyph-name="ugrave" unicode="&#xf9;" horiz-adv-x="484" 
d="M227 51q28 0 53.5 12.5t46.5 35.5v236l-48 54v11l120 46h16v-377l54 -38v-11l-129 -30l-9 72h-4q-21 -34 -58 -53t-80 -19q-58 0 -92 36.5t-34 102.5v206l-48 54v11l120 46h16v-298q0 -48 19.5 -72.5t56.5 -24.5zM231 635l55 -133l-15 -12l-113 100q-15 13 -13.5 32
t21.5 32q20 12 38 6.5t27 -25.5z" />
    <glyph glyph-name="uacute" unicode="&#xfa;" horiz-adv-x="484" 
d="M227 51q28 0 53.5 12.5t46.5 35.5v236l-48 54v11l120 46h16v-377l54 -38v-11l-129 -30l-9 72h-4q-21 -34 -58 -53t-80 -19q-58 0 -92 36.5t-34 102.5v206l-48 54v11l120 46h16v-298q0 -48 19.5 -72.5t56.5 -24.5zM249 635q9 20 27 25.5t38 -6.5q20 -13 21.5 -32
t-13.5 -32l-113 -100l-15 12z" />
    <glyph glyph-name="ucircumflex" unicode="&#xfb;" horiz-adv-x="484" 
d="M227 51q28 0 53.5 12.5t46.5 35.5v236l-48 54v11l120 46h16v-377l54 -38v-11l-129 -30l-9 72h-4q-21 -34 -58 -53t-80 -19q-58 0 -92 36.5t-34 102.5v206l-48 54v11l120 46h16v-298q0 -48 19.5 -72.5t56.5 -24.5zM154 482h-45l138 177h14l134 -177h-87l-73 106z" />
    <glyph glyph-name="udieresis" unicode="&#xfc;" horiz-adv-x="484" 
d="M227 51q28 0 53.5 12.5t46.5 35.5v236l-48 54v11l120 46h16v-377l54 -38v-11l-129 -30l-9 72h-4q-21 -34 -58 -53t-80 -19q-58 0 -92 36.5t-34 102.5v206l-48 54v11l120 46h16v-298q0 -48 19.5 -72.5t56.5 -24.5zM214 563q0 -23 -17 -40t-42 -17q-22 0 -38.5 17t-16.5 40
q0 24 16 41t39 17q25 0 42 -16.5t17 -41.5zM403 562q0 -23 -17 -40t-41 -17q-23 0 -40 17t-17 40q0 24 16.5 41t40.5 17t41 -17t17 -41z" />
    <glyph glyph-name="yacute" unicode="&#xfd;" horiz-adv-x="461" 
d="M98 -141q0 -10 -2.5 -18.5t-7.5 -15.5q29 0 63.5 46.5t56.5 113.5l-158 398l-43 27l7 26h185l7 -30l-64 -16l71 -188q14 -37 22.5 -69t10.5 -58h4q9 32 18.5 64t19.5 64l59 182l-66 22l6 29h160l6 -29l-46 -19l-139 -379q-46 -124 -90 -174.5t-108 -50.5
q-37 0 -58.5 18.5t-21.5 49.5q0 27 15.5 42.5t41.5 15.5q23 0 37 -14.5t14 -36.5zM245 635q9 20 27 25.5t38 -6.5q20 -13 21.5 -32t-13.5 -32l-113 -100l-15 12z" />
    <glyph glyph-name="thorn" unicode="&#xfe;" horiz-adv-x="497" 
d="M364 214q0 77 -33 121t-88 44q-27 0 -49 -8.5t-43 -27.5v-283q10 -12 29 -19.5t41 -7.5q66 0 104.5 48t38.5 133zM283 446q77 0 125.5 -57t48.5 -151q0 -115 -66.5 -181.5t-179.5 -66.5q-13 0 -25 1.5t-35 6.5v-160l70 -19l-13 -29h-192v28l47 17v747l-58 46v11l130 42
h16v-302h4q17 31 51.5 49t76.5 18z" />
    <glyph glyph-name="ydieresis" unicode="&#xff;" horiz-adv-x="461" 
d="M98 -141q0 -10 -2.5 -18.5t-7.5 -15.5q29 0 63.5 46.5t56.5 113.5l-158 398l-43 27l7 26h185l7 -30l-64 -16l71 -188q14 -37 22.5 -69t10.5 -58h4q9 32 18.5 64t19.5 64l59 182l-66 22l6 29h160l6 -29l-46 -19l-139 -379q-46 -124 -90 -174.5t-108 -50.5
q-37 0 -58.5 18.5t-21.5 49.5q0 27 15.5 42.5t41.5 15.5q23 0 37 -14.5t14 -36.5zM202 563q0 -23 -17 -40t-42 -17q-22 0 -38.5 17t-16.5 40q0 24 16 41t39 17q25 0 42 -16.5t17 -41.5zM391 562q0 -23 -17 -40t-41 -17q-23 0 -40 17t-17 40q0 24 16.5 41t40.5 17t41 -17
t17 -41z" />
    <glyph glyph-name="Amacron" unicode="&#x100;" horiz-adv-x="591" 
d="M279 520q-4 -27 -12.5 -56.5t-20.5 -62.5l-60 -161h183l-58 162q-12 35 -19 64.5t-9 53.5h-4zM365 0l-6 34l79 17l-52 143h-217l-52 -139l83 -21l-5 -34h-183l-7 31l50 24l201 533h80l200 -533l50 -24l-7 -31h-214zM140 701h309v-48h-309v48z" />
    <glyph glyph-name="amacron" unicode="&#x101;" horiz-adv-x="438" 
d="M47 365q33 41 75 61t95 20q63 0 103.5 -36t40.5 -97v-221q0 -35 16 -45.5t58 -4.5l3 -22q-17 -16 -38 -23t-48 -7q-29 0 -48.5 15.5t-24.5 44.5h-4q-13 -27 -44.5 -43.5t-69.5 -16.5q-60 0 -93 32t-33 90q0 63 46.5 97t132.5 34q15 0 31 -1.5t28 -4.5v53q0 42 -24.5 65
t-68.5 23q-32 0 -61.5 -10.5t-58.5 -31.5zM192 48q27 0 45.5 8t35.5 26v118h-26q-66 0 -94.5 -20t-28.5 -64q0 -32 18 -50t50 -18zM66 561h279v-48h-279v48z" />
    <glyph glyph-name="Abreve" unicode="&#x102;" horiz-adv-x="591" 
d="M279 520q-4 -27 -12.5 -56.5t-20.5 -62.5l-60 -161h183l-58 162q-12 35 -19 64.5t-9 53.5h-4zM365 0l-6 34l79 17l-52 143h-217l-52 -139l83 -21l-5 -34h-183l-7 31l50 24l201 533h80l200 -533l50 -24l-7 -31h-214zM185 753q16 -38 40 -53.5t68 -15.5t68 15.5t40 53.5h29
q-5 -61 -41 -96t-96 -35t-96 35t-41 96h29z" />
    <glyph glyph-name="abreve" unicode="&#x103;" horiz-adv-x="438" 
d="M47 365q33 41 75 61t95 20q63 0 103.5 -36t40.5 -97v-221q0 -35 16 -45.5t58 -4.5l3 -22q-17 -16 -38 -23t-48 -7q-29 0 -48.5 15.5t-24.5 44.5h-4q-13 -27 -44.5 -43.5t-69.5 -16.5q-60 0 -93 32t-33 90q0 63 46.5 97t132.5 34q15 0 31 -1.5t28 -4.5v53q0 42 -24.5 65
t-68.5 23q-32 0 -61.5 -10.5t-58.5 -31.5zM192 48q27 0 45.5 8t35.5 26v118h-26q-66 0 -94.5 -20t-28.5 -64q0 -32 18 -50t50 -18zM100 653q10 -49 35 -71t73 -22t73 21.5t35 71.5h25q2 -7 2.5 -12.5t0.5 -12.5q0 -57 -38 -95t-98 -38t-98 38t-38 95q0 7 0.5 12.5t2.5 12.5
h25z" />
    <glyph glyph-name="Aogonek" unicode="&#x104;" horiz-adv-x="591" 
d="M440 -144q-15 -35 -44.5 -53t-70.5 -18q-48 0 -75 24t-27 68q0 49 33.5 84.5t107.5 62.5l74 27l-52 143h-217l-52 -139l83 -21l-5 -34h-183l-7 31l50 24l201 533h80l200 -533l50 -24l-7 -31h-191q-54 -24 -72 -45.5t-18 -56.5q0 -29 16.5 -45.5t44.5 -16.5q22 0 36.5 7.5
t30.5 26.5zM279 520q-4 -27 -12.5 -56.5t-20.5 -62.5l-60 -161h183l-58 162q-12 35 -19 64.5t-9 53.5h-4z" />
    <glyph glyph-name="aogonek" unicode="&#x105;" horiz-adv-x="438" 
d="M432 -144q-15 -35 -44.5 -53t-70.5 -18q-48 0 -75 24t-27 68q0 40 24.5 70.5t75.5 52.5q-15 6 -24 18.5t-12 31.5h-4q-13 -27 -44.5 -43.5t-69.5 -16.5q-60 0 -93 32t-33 90q0 63 46.5 97t132.5 34q13 0 29 -1t30 -3v51q0 42 -24.5 65t-68.5 23q-32 0 -61.5 -10.5
t-58.5 -31.5l-13 29q33 41 75 61t95 20q63 0 103.5 -36t40.5 -97v-217q0 -35 16 -45.5t58 -4.5l3 -22q-12 -7 -44 -21.5t-48 -24.5q-29 -17 -42.5 -36.5t-13.5 -43.5q0 -29 16.5 -45.5t44.5 -16.5q22 0 36.5 7.5t30.5 26.5zM192 48q25 0 44 9.5t37 30.5v112h-26
q-66 0 -94.5 -20t-28.5 -64q0 -32 18 -50t50 -18z" />
    <glyph glyph-name="Cacute" unicode="&#x106;" horiz-adv-x="544" 
d="M514 78q-31 -42 -83.5 -65t-118.5 -23q-125 0 -198.5 81t-73.5 221q0 142 73 224t196 82q28 0 57 -4.5t67 -14.5l59 19v-167l-21 -5l-38 59q-25 39 -51.5 55t-69.5 16q-81 0 -124 -67.5t-43 -196.5q0 -118 45.5 -181t130.5 -63q52 0 90.5 14.5t80.5 46.5zM333 762
q13 17 30.5 18.5t32.5 -13.5q16 -16 12 -34t-22 -29l-128 -77l-13 17z" />
    <glyph glyph-name="cacute" unicode="&#x107;" horiz-adv-x="417" 
d="M328 299q-25 0 -41 15.5t-16 40.5q0 13 6 25t16 20q-12 3 -19 3.5t-16 0.5q-62 0 -98 -46.5t-36 -127.5q0 -82 37 -128.5t102 -46.5q29 0 56 9.5t60 31.5l13 -23q-29 -43 -68.5 -63t-95.5 -20q-85 0 -136.5 61t-51.5 165q0 102 61.5 166t156.5 64q59 0 93 -22.5t34 -63.5
q0 -27 -16 -44t-41 -17zM240 635q9 20 27 25.5t38 -6.5q20 -13 21.5 -32t-13.5 -32l-113 -100l-15 12z" />
    <glyph glyph-name="Ccircumflex" unicode="&#x108;" horiz-adv-x="544" 
d="M514 78q-31 -42 -83.5 -65t-118.5 -23q-125 0 -198.5 81t-73.5 221q0 142 73 224t196 82q28 0 57 -4.5t67 -14.5l59 19v-167l-21 -5l-38 59q-25 39 -51.5 55t-69.5 16q-81 0 -124 -67.5t-43 -196.5q0 -118 45.5 -181t130.5 -63q52 0 90.5 14.5t80.5 46.5zM212 628h-47
l138 137h14l134 -137h-92l-70 71z" />
    <glyph glyph-name="ccircumflex" unicode="&#x109;" horiz-adv-x="417" 
d="M328 299q-25 0 -41 15.5t-16 40.5q0 13 6 25t16 20q-12 3 -19 3.5t-16 0.5q-62 0 -98 -46.5t-36 -127.5q0 -82 37 -128.5t102 -46.5q29 0 56 9.5t60 31.5l13 -23q-29 -43 -68.5 -63t-95.5 -20q-85 0 -136.5 61t-51.5 165q0 102 61.5 166t156.5 64q59 0 93 -22.5t34 -63.5
q0 -27 -16 -44t-41 -17zM143 482h-45l138 177h14l134 -177h-87l-73 106z" />
    <glyph glyph-name="Cdotaccent" unicode="&#x10a;" horiz-adv-x="544" 
d="M514 78q-31 -42 -83.5 -65t-118.5 -23q-125 0 -198.5 81t-73.5 221q0 142 73 224t196 82q28 0 57 -4.5t67 -14.5l59 19v-167l-21 -5l-38 59q-25 39 -51.5 55t-69.5 16q-81 0 -124 -67.5t-43 -196.5q0 -118 45.5 -181t130.5 -63q52 0 90.5 14.5t80.5 46.5zM359 691
q0 -24 -18 -42t-43 -18q-24 0 -41.5 18t-17.5 42q0 25 17.5 43t41.5 18q26 0 43.5 -17.5t17.5 -43.5z" />
    <glyph glyph-name="cdotaccent" unicode="&#x10b;" horiz-adv-x="417" 
d="M328 299q-25 0 -41 15.5t-16 40.5q0 13 6 25t16 20q-12 3 -19 3.5t-16 0.5q-62 0 -98 -46.5t-36 -127.5q0 -82 37 -128.5t102 -46.5q29 0 56 9.5t60 31.5l13 -23q-29 -43 -68.5 -63t-95.5 -20q-85 0 -136.5 61t-51.5 165q0 102 61.5 166t156.5 64q59 0 93 -22.5t34 -63.5
q0 -27 -16 -44t-41 -17zM296 557q0 -24 -18 -42t-43 -18q-24 0 -41.5 18t-17.5 42q0 25 17.5 43t41.5 18q26 0 43.5 -17.5t17.5 -43.5z" />
    <glyph glyph-name="Ccaron" unicode="&#x10c;" horiz-adv-x="544" 
d="M514 78q-31 -42 -83.5 -65t-118.5 -23q-125 0 -198.5 81t-73.5 221q0 142 73 224t196 82q28 0 57 -4.5t67 -14.5l59 19v-167l-21 -5l-38 59q-25 39 -51.5 55t-69.5 16q-81 0 -124 -67.5t-43 -196.5q0 -118 45.5 -181t130.5 -63q52 0 90.5 14.5t80.5 46.5zM410 757h48
l-138 -137h-14l-134 137h96l66 -73z" />
    <glyph glyph-name="ccaron" unicode="&#x10d;" horiz-adv-x="417" 
d="M328 299q-25 0 -41 15.5t-16 40.5q0 13 6 25t16 20q-12 3 -19 3.5t-16 0.5q-62 0 -98 -46.5t-36 -127.5q0 -82 37 -128.5t102 -46.5q29 0 56 9.5t60 31.5l13 -23q-29 -43 -68.5 -63t-95.5 -20q-85 0 -136.5 61t-51.5 165q0 102 61.5 166t156.5 64q59 0 93 -22.5t34 -63.5
q0 -27 -16 -44t-41 -17zM331 659h45l-138 -177h-14l-134 177h87l73 -106z" />
    <glyph glyph-name="Dcaron" unicode="&#x10e;" horiz-adv-x="613" 
d="M110 533l-75 23l8 32h215q152 0 233.5 -73.5t81.5 -211.5q0 -136 -84 -219.5t-217 -83.5h-229l-8 32l75 23v478zM250 542h-48v-487l61 -15q101 0 153 65.5t52 191.5q0 122 -55 183.5t-163 61.5zM378 757h48l-138 -137h-14l-134 137h96l66 -73z" />
    <glyph glyph-name="dcaron" unicode="&#x10f;" horiz-adv-x="510" 
d="M495 20l-131 -30l-7 66l-3 1q-24 -33 -57.5 -50t-76.5 -17q-82 0 -131 57.5t-49 155.5q0 112 65 177.5t166 65.5q23 0 42 -3.5t33 -11.5v151l-58 46v11l130 42h16v-604l61 -47v-10zM346 379q-13 13 -31.5 19t-44.5 6q-63 0 -100.5 -49.5t-37.5 -133.5q0 -79 34.5 -123
t95.5 -44q22 0 44.5 7.5t39.5 20.5v297zM580 612l-65 -132l-23 4l10 150q1 17 11 27.5t26 10.5q21 0 33.5 -10.5t12.5 -28.5q0 -5 -1.5 -11t-3.5 -10z" />
    <glyph glyph-name="Dcroat" unicode="&#x110;" horiz-adv-x="613" 
d="M110 55v221h-67v46h67v211l-75 23l8 32h215q152 0 233.5 -73.5t81.5 -211.5q0 -136 -84 -219.5t-217 -83.5h-229l-8 32zM324 276h-122v-221l61 -15q101 0 153 65.5t52 191.5q0 122 -55 183.5t-163 61.5h-48v-220h122v-46z" />
    <glyph glyph-name="dcroat" unicode="&#x111;" horiz-adv-x="510" 
d="M495 20l-131 -30l-7 66l-3 1q-24 -33 -57.5 -50t-76.5 -17q-82 0 -131 57.5t-49 155.5q0 112 65 177.5t166 65.5q23 0 42 -3.5t33 -11.5v87h-174v34h174v30l-58 46v11l130 42h16v-129h57v-34h-57v-441l61 -47v-10zM346 379q-13 13 -31.5 19t-44.5 6q-63 0 -100.5 -49.5
t-37.5 -133.5q0 -79 34.5 -123t95.5 -44q22 0 44.5 7.5t39.5 20.5v297z" />
    <glyph glyph-name="Emacron" unicode="&#x112;" horiz-adv-x="518" 
d="M361 190l-21 -4l-39 90h-99v-213l45 -17h133l82 142l26 -6l-20 -182h-425l-8 32l75 23v478l-75 23l8 32h416v-157l-21 -5l-74 116h-162v-220h98l39 88l22 -4v-216zM117 701h309v-48h-309v48z" />
    <glyph glyph-name="emacron" unicode="&#x113;" horiz-adv-x="431" 
d="M401 289q0 -15 -1 -27.5t-4 -24.5h-272q0 -86 36 -134t99 -48q35 0 63.5 9.5t60.5 31.5l13 -23q-28 -43 -68 -63t-96 -20q-88 0 -140 60t-52 164q0 105 57.5 168.5t148.5 63.5q71 0 113 -42.5t42 -114.5zM310 280q1 4 1 10v17q0 48 -19.5 72t-57.5 24q-40 0 -68.5 -32.5
t-38.5 -90.5h183zM94 561h279v-48h-279v48z" />
    <glyph glyph-name="Ebreve" unicode="&#x114;" horiz-adv-x="518" 
d="M361 190l-21 -4l-39 90h-99v-213l45 -17h133l82 142l26 -6l-20 -182h-425l-8 32l75 23v478l-75 23l8 32h416v-157l-21 -5l-74 116h-162v-220h98l39 88l22 -4v-216zM165 753q16 -38 40 -53.5t68 -15.5t68 15.5t40 53.5h29q-5 -61 -41 -96t-96 -35t-96 35t-41 96h29z" />
    <glyph glyph-name="ebreve" unicode="&#x115;" horiz-adv-x="431" 
d="M401 289q0 -15 -1 -27.5t-4 -24.5h-272q0 -86 36 -134t99 -48q35 0 63.5 9.5t60.5 31.5l13 -23q-28 -43 -68 -63t-96 -20q-88 0 -140 60t-52 164q0 105 57.5 168.5t148.5 63.5q71 0 113 -42.5t42 -114.5zM310 280q1 4 1 10v17q0 48 -19.5 72t-57.5 24q-40 0 -68.5 -32.5
t-38.5 -90.5h183zM127 653q10 -49 35 -71t73 -22t73 21.5t35 71.5h25q2 -7 2.5 -12.5t0.5 -12.5q0 -57 -38 -95t-98 -38t-98 38t-38 95q0 7 0.5 12.5t2.5 12.5h25z" />
    <glyph glyph-name="Edotaccent" unicode="&#x116;" horiz-adv-x="518" 
d="M361 190l-21 -4l-39 90h-99v-213l45 -17h133l82 142l26 -6l-20 -182h-425l-8 32l75 23v478l-75 23l8 32h416v-157l-21 -5l-74 116h-162v-220h98l39 88l22 -4v-216zM333 691q0 -24 -18 -42t-43 -18q-24 0 -41.5 18t-17.5 42q0 25 17.5 43t41.5 18q26 0 43.5 -17.5
t17.5 -43.5z" />
    <glyph glyph-name="edotaccent" unicode="&#x117;" horiz-adv-x="431" 
d="M401 289q0 -15 -1 -27.5t-4 -24.5h-272q0 -86 36 -134t99 -48q35 0 63.5 9.5t60.5 31.5l13 -23q-28 -43 -68 -63t-96 -20q-88 0 -140 60t-52 164q0 105 57.5 168.5t148.5 63.5q71 0 113 -42.5t42 -114.5zM310 280q1 4 1 10v17q0 48 -19.5 72t-57.5 24q-40 0 -68.5 -32.5
t-38.5 -90.5h183zM295 567q0 -24 -18 -42t-43 -18q-24 0 -41.5 18t-17.5 42q0 25 17.5 43t41.5 18q26 0 43.5 -17.5t17.5 -43.5z" />
    <glyph glyph-name="Eogonek" unicode="&#x118;" horiz-adv-x="518" 
d="M465 -144q-15 -35 -44.5 -53t-70.5 -18q-48 0 -75 24t-27 68q0 40 23.5 70t74.5 53h-303l-8 32l75 23v478l-75 23l8 32h416v-157l-21 -5l-74 116h-162v-220h98l39 88l22 -4v-216l-21 -4l-39 90h-99v-213l45 -17h133l82 142l26 -6l-20 -182h-55q-54 -24 -72 -45.5
t-18 -56.5q0 -29 16.5 -45.5t44.5 -16.5q22 0 36.5 7.5t30.5 26.5z" />
    <glyph glyph-name="eogonek" unicode="&#x119;" horiz-adv-x="431" 
d="M363 -144q-15 -35 -44.5 -53t-70.5 -18q-48 0 -75 24t-27 68q0 36 18.5 66t51.5 48q-82 6 -129 64.5t-47 158.5q0 105 57.5 168.5t148.5 63.5q71 0 113 -42.5t42 -114.5q0 -15 -1 -27.5t-4 -24.5h-272q0 -86 36 -134t99 -48q35 0 63.5 9.5t60.5 31.5l13 -23
q-17 -26 -40.5 -44t-57.5 -30q-43 -15 -60 -37t-17 -64q0 -29 16.5 -45.5t44.5 -16.5q22 0 36.5 7.5t30.5 26.5zM310 280q1 4 1 10v17q0 48 -19.5 72t-57.5 24q-40 0 -68.5 -32.5t-38.5 -90.5h183z" />
    <glyph glyph-name="Ecaron" unicode="&#x11a;" horiz-adv-x="518" 
d="M361 190l-21 -4l-39 90h-99v-213l45 -17h133l82 142l26 -6l-20 -182h-425l-8 32l75 23v478l-75 23l8 32h416v-157l-21 -5l-74 116h-162v-220h98l39 88l22 -4v-216zM356 757h48l-138 -137h-14l-134 137h96l66 -73z" />
    <glyph glyph-name="ecaron" unicode="&#x11b;" horiz-adv-x="431" 
d="M401 289q0 -15 -1 -27.5t-4 -24.5h-272q0 -86 36 -134t99 -48q35 0 63.5 9.5t60.5 31.5l13 -23q-28 -43 -68 -63t-96 -20q-88 0 -140 60t-52 164q0 105 57.5 168.5t148.5 63.5q71 0 113 -42.5t42 -114.5zM310 280q1 4 1 10v17q0 48 -19.5 72t-57.5 24q-40 0 -68.5 -32.5
t-38.5 -90.5h183zM333 659h45l-138 -177h-14l-134 177h87l73 -106z" />
    <glyph glyph-name="Gcircumflex" unicode="&#x11c;" horiz-adv-x="607" 
d="M443 485q-25 39 -51.5 55t-69.5 16q-84 0 -130.5 -69.5t-46.5 -194.5q0 -122 43.5 -189t123.5 -67q32 0 59.5 6.5t56.5 21.5v158l-74 23l7 32h213l8 -32l-62 -23v-232h-15l-48 40q-33 -21 -69 -30.5t-81 -9.5q-119 0 -193 82t-74 220q0 140 77 223t202 83q28 0 57 -4.5
t67 -14.5l59 19v-167l-21 -5zM228 628h-47l138 137h14l134 -137h-92l-70 71z" />
    <glyph glyph-name="gcircumflex" unicode="&#x11d;" horiz-adv-x="457" 
d="M145 488h-45l138 167h14l134 -167h-87l-73 96zM142 295q0 -56 18 -80t58 -24q41 0 59 24t18 80q0 57 -18 81t-59 24q-40 0 -58 -24t-18 -81zM167 158q-24 -11 -35 -24t-11 -29q0 -18 10.5 -27t32.5 -9h144q65 0 102.5 -34t37.5 -94q0 -77 -63.5 -119.5t-172.5 -42.5
q-92 0 -142 29.5t-50 84.5q0 40 25 66t78 41v4q-35 4 -54.5 25t-19.5 54q0 32 22.5 54t62.5 29q-42 16 -63.5 48t-21.5 77q0 69 46.5 112t125.5 43q40 0 78 -9t77 -28q-3 5 -4 10.5t-1 13.5q0 21 13.5 34t34.5 13q22 0 35 -14t13 -37q0 -25 -15 -38.5t-43 -13.5
q-17 0 -35 4.5t-43 14.5v-9q25 -13 41 -39.5t16 -56.5q0 -63 -48 -101.5t-119 -38.5q-16 0 -29.5 1.5t-24.5 5.5zM368 -79q0 35 -19.5 51t-60.5 16h-133q-24 -13 -36 -34t-12 -50q0 -43 27 -63t84 -20q74 0 112 25t38 75z" />
    <glyph glyph-name="Gbreve" unicode="&#x11e;" horiz-adv-x="607" 
d="M443 485q-25 39 -51.5 55t-69.5 16q-84 0 -130.5 -69.5t-46.5 -194.5q0 -122 43.5 -189t123.5 -67q32 0 59.5 6.5t56.5 21.5v158l-74 23l7 32h213l8 -32l-62 -23v-232h-15l-48 40q-33 -21 -69 -30.5t-81 -9.5q-119 0 -193 82t-74 220q0 140 77 223t202 83q28 0 57 -4.5
t67 -14.5l59 19v-167l-21 -5zM219 753q16 -38 40 -53.5t68 -15.5t68 15.5t40 53.5h29q-5 -61 -41 -96t-96 -35t-96 35t-41 96h29z" />
    <glyph glyph-name="gbreve" unicode="&#x11f;" horiz-adv-x="457" 
d="M142 295q0 -56 18 -80t58 -24q41 0 59 24t18 80q0 57 -18 81t-59 24q-40 0 -58 -24t-18 -81zM167 158q-24 -11 -35 -24t-11 -29q0 -18 10.5 -27t32.5 -9h144q65 0 102.5 -34t37.5 -94q0 -77 -63.5 -119.5t-172.5 -42.5q-92 0 -142 29.5t-50 84.5q0 40 25 66t78 41v4
q-35 4 -54.5 25t-19.5 54q0 32 22.5 54t62.5 29q-42 16 -63.5 48t-21.5 77q0 69 46.5 112t125.5 43q40 0 78 -9t77 -28q-3 5 -4 10.5t-1 13.5q0 21 13.5 34t34.5 13q22 0 35 -14t13 -37q0 -25 -15 -38.5t-43 -13.5q-17 0 -35 4.5t-43 14.5v-9q25 -13 41 -39.5t16 -56.5
q0 -63 -48 -101.5t-119 -38.5q-16 0 -29.5 1.5t-24.5 5.5zM368 -79q0 35 -19.5 51t-60.5 16h-133q-24 -13 -36 -34t-12 -50q0 -43 27 -63t84 -20q74 0 112 25t38 75zM131 653q10 -49 35 -71t73 -22t73 21.5t35 71.5h25q2 -7 2.5 -12.5t0.5 -12.5q0 -57 -38 -95t-98 -38
t-98 38t-38 95q0 7 0.5 12.5t2.5 12.5h25z" />
    <glyph glyph-name="Gdotaccent" unicode="&#x120;" horiz-adv-x="607" 
d="M443 485q-25 39 -51.5 55t-69.5 16q-84 0 -130.5 -69.5t-46.5 -194.5q0 -122 43.5 -189t123.5 -67q32 0 59.5 6.5t56.5 21.5v158l-74 23l7 32h213l8 -32l-62 -23v-232h-15l-48 40q-33 -21 -69 -30.5t-81 -9.5q-119 0 -193 82t-74 220q0 140 77 223t202 83q28 0 57 -4.5
t67 -14.5l59 19v-167l-21 -5zM377 691q0 -24 -18 -42t-43 -18q-24 0 -41.5 18t-17.5 42q0 25 17.5 43t41.5 18q26 0 43.5 -17.5t17.5 -43.5z" />
    <glyph glyph-name="gdotaccent" unicode="&#x121;" horiz-adv-x="457" 
d="M142 295q0 -56 18 -80t58 -24q41 0 59 24t18 80q0 57 -18 81t-59 24q-40 0 -58 -24t-18 -81zM167 158q-24 -11 -35 -24t-11 -29q0 -18 10.5 -27t32.5 -9h144q65 0 102.5 -34t37.5 -94q0 -77 -63.5 -119.5t-172.5 -42.5q-92 0 -142 29.5t-50 84.5q0 40 25 66t78 41v4
q-35 4 -54.5 25t-19.5 54q0 32 22.5 54t62.5 29q-42 16 -63.5 48t-21.5 77q0 69 46.5 112t125.5 43q40 0 78 -9t77 -28q-3 5 -4 10.5t-1 13.5q0 21 13.5 34t34.5 13q22 0 35 -14t13 -37q0 -25 -15 -38.5t-43 -13.5q-17 0 -35 4.5t-43 14.5v-9q25 -13 41 -39.5t16 -56.5
q0 -63 -48 -101.5t-119 -38.5q-16 0 -29.5 1.5t-24.5 5.5zM368 -79q0 35 -19.5 51t-60.5 16h-133q-24 -13 -36 -34t-12 -50q0 -43 27 -63t84 -20q74 0 112 25t38 75zM303 567q0 -24 -18 -42t-43 -18q-24 0 -41.5 18t-17.5 42q0 25 17.5 43t41.5 18q26 0 43.5 -17.5
t17.5 -43.5z" />
    <glyph glyph-name="Gcommaaccent" unicode="&#x122;" horiz-adv-x="607" 
d="M443 485q-25 39 -51.5 55t-69.5 16q-84 0 -130.5 -69.5t-46.5 -194.5q0 -122 43.5 -189t123.5 -67q32 0 59.5 6.5t56.5 21.5v158l-74 23l7 32h213l8 -32l-62 -23v-232h-15l-48 40q-33 -21 -69 -30.5t-81 -9.5q-119 0 -193 82t-74 220q0 140 77 223t202 83q28 0 57 -4.5
t67 -14.5l59 19v-167l-21 -5zM256 -230q40 13 60.5 34.5t20.5 49.5h-6q-3 -10 -12.5 -16.5t-19.5 -6.5q-23 0 -36 14.5t-13 37.5q0 25 17 41.5t43 16.5q34 0 54 -20.5t20 -54.5q0 -50 -29.5 -78.5t-90.5 -37.5z" />
    <glyph glyph-name="gcommaaccent" unicode="&#x123;" horiz-adv-x="457" 
d="M142 295q0 -56 18 -80t58 -24q41 0 59 24t18 80q0 57 -18 81t-59 24q-40 0 -58 -24t-18 -81zM167 158q-24 -11 -35 -24t-11 -29q0 -18 10.5 -27t32.5 -9h144q65 0 102.5 -34t37.5 -94q0 -77 -63.5 -119.5t-172.5 -42.5q-92 0 -142 29.5t-50 84.5q0 40 25 66t78 41v4
q-35 4 -54.5 25t-19.5 54q0 32 22.5 54t62.5 29q-42 16 -63.5 48t-21.5 77q0 69 46.5 112t125.5 43q40 0 78 -9t77 -28q-3 5 -4 10.5t-1 13.5q0 21 13.5 34t34.5 13q22 0 35 -14t13 -37q0 -25 -15 -38.5t-43 -13.5q-17 0 -35 4.5t-43 14.5v-9q25 -13 41 -39.5t16 -56.5
q0 -63 -48 -101.5t-119 -38.5q-16 0 -29.5 1.5t-24.5 5.5zM368 -79q0 35 -19.5 51t-60.5 16h-133q-24 -13 -36 -34t-12 -50q0 -43 27 -63t84 -20q74 0 112 25t38 75zM297 664q-40 -13 -60.5 -34.5t-20.5 -49.5h6q3 10 12.5 16.5t19.5 6.5q23 0 36 -14.5t13 -37.5
q0 -25 -17 -41.5t-43 -16.5q-34 0 -54 20.5t-20 54.5q0 50 29.5 78.5t90.5 37.5z" />
    <glyph glyph-name="Hcircumflex" unicode="&#x124;" horiz-adv-x="697" 
d="M495 533l-74 23l7 32h226l8 -32l-75 -23v-478l75 -23l-8 -32h-226l-7 32l74 23v221h-293v-221l75 -23l-8 -32h-226l-8 32l75 23v478l-75 23l8 32h226l8 -32l-75 -23v-211h293v211zM254 628h-47l138 137h14l134 -137h-92l-70 71z" />
    <glyph glyph-name="hcircumflex" unicode="&#x125;" horiz-adv-x="515" 
d="M300 0v28l47 17v253q0 37 -19 57t-54 20q-26 0 -54.5 -11t-48.5 -29v-287l70 -19l-13 -29h-192v28l47 17v537l-58 46v11l130 42h16v-312h4q24 37 62.5 57.5t79.5 20.5q56 0 87 -34t31 -98v-267l70 -19l-13 -29h-192zM30 707h-47l138 137h14l134 -137h-92l-70 71z" />
    <glyph glyph-name="Hbar" unicode="&#x126;" horiz-adv-x="697" 
d="M495 437h-293v-115h293v115zM495 533l-74 23l7 32h226l8 -32l-75 -23v-53h69v-43h-69v-382l75 -23l-8 -32h-226l-7 32l74 23v221h-293v-221l75 -23l-8 -32h-226l-8 32l75 23v382h-71v43h71v53l-75 23l8 32h226l8 -32l-75 -23v-53h293v53z" />
    <glyph glyph-name="hbar" unicode="&#x127;" horiz-adv-x="515" 
d="M300 0v28l47 17v253q0 37 -19 57t-54 20q-26 0 -54.5 -11t-48.5 -29v-287l70 -19l-13 -29h-192v28l47 17v473h-66v34h66v30l-58 46v11l130 42h16v-129h165v-34h-165v-149h4q24 37 62.5 57.5t79.5 20.5q56 0 87 -34t31 -98v-267l70 -19l-13 -29h-192z" />
    <glyph glyph-name="Itilde" unicode="&#x128;" horiz-adv-x="312" 
d="M295 710q0 -32 -20.5 -54t-50.5 -22q-13 0 -26 4t-26 12l-55 34q-7 4 -14 6.5t-14 2.5q-17 0 -27 -15t-14 -44l-17 2q-5 11 -7.5 21.5t-2.5 21.5q0 33 20 55t51 22q13 0 26 -4t26 -12l55 -34q7 -4 14.5 -6.5t14.5 -2.5q17 0 27 15t11 44l20 -4q5 -11 7 -21.5t2 -20.5z
M110 533l-75 23l8 32h226l8 -32l-75 -23v-478l75 -23l-8 -32h-226l-8 32l75 23v478z" />
    <glyph glyph-name="itilde" unicode="&#x129;" horiz-adv-x="261" 
d="M265 581q0 -32 -20.5 -54t-50.5 -22q-13 0 -26 4t-26 12l-55 34q-7 4 -14 6.5t-14 2.5q-17 0 -27 -15t-14 -44l-17 2q-5 11 -7.5 21.5t-2.5 21.5q0 33 20 55t51 22q13 0 26 -4t26 -12l55 -34q7 -4 14.5 -6.5t14.5 -2.5q17 0 27 15t11 44l20 -4q5 -11 7 -21.5t2 -20.5z
M160 446h16v-398l70 -19l-13 -29h-192v28l47 20v292l-48 54v11z" />
    <glyph glyph-name="Imacron" unicode="&#x12a;" horiz-adv-x="312" 
d="M38 701h236l-5 -48h-226zM110 533l-75 23l8 32h226l8 -32l-75 -23v-478l75 -23l-8 -32h-226l-8 32l75 23v478z" />
    <glyph glyph-name="imacron" unicode="&#x12b;" horiz-adv-x="261" 
d="M16 561h229l-5 -48h-219zM160 446h16v-398l70 -19l-13 -29h-192v28l47 20v292l-48 54v11z" />
    <glyph glyph-name="Ibreve" unicode="&#x12c;" horiz-adv-x="312" 
d="M59 753q15 -39 36.5 -54.5t61.5 -15.5t62 15.5t37 54.5h27q-4 -62 -37 -97t-89 -35q-55 0 -88 35t-37 97h27zM110 533l-75 23l8 32h226l8 -32l-75 -23v-478l75 -23l-8 -32h-226l-8 32l75 23v478z" />
    <glyph glyph-name="ibreve" unicode="&#x12d;" horiz-adv-x="261" 
d="M29 653q10 -52 31.5 -72.5t66.5 -20.5t66 20t32 73h25q2 -7 2.5 -12.5t0.5 -12.5q0 -60 -34 -96.5t-92 -36.5t-92 36.5t-34 96.5q0 7 0.5 12.5t2.5 12.5h25zM160 446h16v-398l70 -19l-13 -29h-192v28l47 20v292l-48 54v11z" />
    <glyph glyph-name="Iogonek" unicode="&#x12e;" horiz-adv-x="312" 
d="M278 -144q-15 -35 -44.5 -53t-70.5 -18q-48 0 -75 24t-27 68q0 39 22 67t74 52v4h-114l-7 32l74 23v478l-74 23l7 32h226l8 -32l-75 -23v-478l75 -23l-8 -32h-43q-54 -24 -72 -45.5t-18 -56.5q0 -29 16.5 -45.5t44.5 -16.5q22 0 36.5 7.5t30.5 26.5z" />
    <glyph glyph-name="iogonek" unicode="&#x12f;" horiz-adv-x="261" 
d="M193 577q0 -26 -18 -44t-44 -18t-44 18t-18 44t18 44t44 18t44 -18t18 -44zM252 -144q-15 -35 -44.5 -53t-70.5 -18q-48 0 -75 24t-27 68q0 40 23.5 70t74.5 53h-92v28l47 16v291l-48 54v11l120 46h16v-398l70 -19l-13 -29h-33q-54 -24 -72 -45.5t-18 -56.5
q0 -29 16.5 -45.5t44.5 -16.5q22 0 36.5 7.5t30.5 26.5z" />
    <glyph glyph-name="Idotaccent" unicode="&#x130;" horiz-adv-x="312" 
d="M110 533l-75 23l8 32h226l8 -32l-75 -23v-478l75 -23l-8 -32h-226l-8 32l75 23v478zM216 691q0 -24 -18 -42t-43 -18q-24 0 -41.5 18t-17.5 42q0 25 17.5 43t41.5 18q26 0 43.5 -17.5t17.5 -43.5z" />
    <glyph glyph-name="dotlessi" unicode="&#x131;" horiz-adv-x="261" 
d="M160 446h16v-398l70 -19l-13 -29h-192v28l47 20v292l-48 54v11z" />
    <glyph glyph-name="IJ" unicode="&#x132;" horiz-adv-x="578" 
d="M110 533l-75 23l8 32h226l8 -32l-75 -23v-478l75 -23l-8 -32h-226l-8 32l75 23v478zM306 -156q41 2 60.5 30.5t19.5 86.5v572l-75 23l8 32h226l8 -32l-75 -23v-532q0 -89 -50 -139.5t-138 -50.5q-40 0 -62 16t-22 46q0 26 15 41t39 15q26 0 40 -14.5t14 -39.5
q0 -9 -2 -17t-6 -14z" />
    <glyph glyph-name="ij" unicode="&#x133;" horiz-adv-x="481" 
d="M431 577q0 -26 -18 -44t-44 -18t-44 18t-18 44t18 44t44 18t44 -18t18 -44zM193 577q0 -26 -18 -44t-44 -18t-44 18t-18 44t18 44t44 18t44 -18t18 -44zM160 446h16v-398l70 -19l-13 -29h-192v28l47 16v291l-48 54v11zM278 408l120 42h16v-499q0 -80 -43 -125t-123 -45
q-31 0 -49 14t-18 39q0 22 14 35.5t37 13.5q21 0 32.5 -12.5t11.5 -34.5q0 -7 -2 -15t-5 -12q24 0 40.5 28.5t16.5 76.5v429l-48 54v11z" />
    <glyph glyph-name="Jcircumflex" unicode="&#x134;" horiz-adv-x="287" 
d="M13 619l128 137h14l124 -137h-92l-63 68l-64 -68h-47zM15 -156q41 2 60.5 30.5t19.5 86.5v572l-75 23l8 32h226l8 -32l-75 -23v-532q0 -89 -50 -139.5t-138 -50.5q-40 0 -62 16t-22 46q0 26 15 41t39 15q26 0 40 -14.5t14 -39.5q0 -9 -2 -17t-6 -14z" />
    <glyph glyph-name="jcircumflex" unicode="&#x135;" horiz-adv-x="225" 
d="M22 408l120 42h16v-499q0 -80 -43 -125t-123 -45q-31 0 -49 14t-18 39q0 22 14 35.5t37 13.5q21 0 32.5 -12.5t11.5 -34.5q0 -7 -2 -15t-5 -12q25 0 41.5 28.5t16.5 76.5v429l-49 54v11zM13 482h-45l138 177h14l134 -177h-87l-73 106z" />
    <glyph glyph-name="Kcommaaccent" unicode="&#x136;" horiz-adv-x="601" 
d="M277 556l-75 -23v-211l63 8l163 205l-63 21l5 32h178l7 -33l-61 -19l-171 -210l194 -271l84 -22l-7 -33h-152l-192 282h-48v-227l75 -23l-8 -32h-226l-8 32l75 23v478l-75 23l8 32h226zM258 -230q40 13 60.5 34.5t20.5 49.5h-6q-3 -10 -12.5 -16.5t-19.5 -6.5
q-23 0 -36 14.5t-13 37.5q0 25 17 41.5t43 16.5q34 0 54 -20.5t20 -54.5q0 -50 -29.5 -78.5t-90.5 -37.5z" />
    <glyph glyph-name="kcommaaccent" unicode="&#x137;" horiz-adv-x="491" 
d="M209 212h-38v-164l70 -19l-13 -29h-192v28l47 16v538l-58 46v11l130 42h16v-434l35 8l143 134l-58 18l7 29h160l7 -29l-55 -23l-134 -124l146 -211l69 -21l-11 -28h-132zM175 -230q40 13 60.5 34.5t20.5 49.5h-6q-3 -10 -12.5 -16.5t-19.5 -6.5q-23 0 -36 14.5t-13 37.5
q0 25 17 41.5t43 16.5q34 0 54 -20.5t20 -54.5q0 -50 -29.5 -78.5t-90.5 -37.5z" />
    <glyph glyph-name="kgreenlandic" unicode="&#x138;" horiz-adv-x="496" 
d="M214 212h-38v-164l70 -19l-13 -29h-192v28l47 16v291l-48 54v11l120 46h16v-199l35 8l143 134l-58 18l7 29h160l7 -29l-55 -23l-134 -124l146 -211l69 -21l-11 -28h-132z" />
    <glyph glyph-name="Lacute" unicode="&#x139;" horiz-adv-x="491" 
d="M43 588h226l8 -32l-75 -23v-470l45 -17h113l85 161l26 -6l-23 -201h-405l-8 32l75 23v478l-75 23zM203 762q13 17 30.5 18.5t32.5 -13.5q16 -16 12 -34t-22 -29l-128 -77l-13 17z" />
    <glyph glyph-name="lacute" unicode="&#x13a;" horiz-adv-x="256" 
d="M155 681h16v-633l70 -19l-13 -29h-192v28l47 16v538l-58 46v11zM150 818q13 17 30.5 18.5t32.5 -13.5q16 -16 12 -34t-22 -29l-128 -77l-13 17z" />
    <glyph glyph-name="Lcommaaccent" unicode="&#x13b;" horiz-adv-x="491" 
d="M43 588h226l8 -32l-75 -23v-470l45 -17h113l85 161l26 -6l-23 -201h-405l-8 32l75 23v478l-75 23zM203 -230q40 13 60.5 34.5t20.5 49.5h-6q-3 -10 -12.5 -16.5t-19.5 -6.5q-23 0 -36 14.5t-13 37.5q0 25 17 41.5t43 16.5q34 0 54 -20.5t20 -54.5q0 -50 -29.5 -78.5
t-90.5 -37.5z" />
    <glyph glyph-name="lcommaaccent" unicode="&#x13c;" horiz-adv-x="256" 
d="M155 681h16v-633l70 -19l-13 -29h-192v28l47 16v538l-58 46v11zM67 -230q40 13 60.5 34.5t20.5 49.5h-6q-3 -10 -12.5 -16.5t-19.5 -6.5q-23 0 -36 14.5t-13 37.5q0 25 17 41.5t43 16.5q34 0 54 -20.5t20 -54.5q0 -50 -29.5 -78.5t-90.5 -37.5z" />
    <glyph glyph-name="Lcaron" unicode="&#x13d;" horiz-adv-x="491" 
d="M43 588h226l8 -32l-75 -23v-470l45 -17h113l85 161l26 -6l-23 -201h-405l-8 32l75 23v478l-75 23zM430 583l-65 -132l-23 4l10 150q1 17 11 27.5t26 10.5q21 0 33.5 -10.5t12.5 -28.5q0 -5 -1.5 -11t-3.5 -10z" />
    <glyph glyph-name="lcaron" unicode="&#x13e;" horiz-adv-x="256" 
d="M155 681h16v-633l70 -19l-13 -29h-192v28l47 16v538l-58 46v11zM323 612l-65 -132l-23 4l10 150q1 17 11 27.5t26 10.5q21 0 33.5 -10.5t12.5 -28.5q0 -5 -1.5 -11t-3.5 -10z" />
    <glyph glyph-name="Ldot" unicode="&#x13f;" horiz-adv-x="491" 
d="M43 588h226l8 -32l-75 -23v-470l45 -17h113l85 161l26 -6l-23 -201h-405l-8 32l75 23v478l-75 23zM482 327q0 -29 -20 -48.5t-49 -19.5t-48.5 19.5t-19.5 48.5t20 49t48 20q29 0 49 -20t20 -49z" />
    <glyph glyph-name="ldot" unicode="&#x140;" horiz-adv-x="381" 
d="M155 681h16v-633l70 -19l-13 -29h-192v28l47 16v538l-58 46v11zM366 311q0 -29 -20 -48.5t-49 -19.5t-48.5 19.5t-19.5 48.5t20 49t48 20q29 0 49 -20t20 -49z" />
    <glyph glyph-name="Lslash" unicode="&#x141;" horiz-adv-x="490" 
d="M42 588h226l8 -32l-75 -23v-226l130 64v-48l-130 -63v-197l45 -17h113l85 161l26 -6l-23 -201h-405l-7 32l74 23v169l-74 -35v45l74 36v263l-74 23z" />
    <glyph glyph-name="lslash" unicode="&#x142;" horiz-adv-x="256" 
d="M83 276l-60 -50v45l60 51v260l-58 46v11l130 42h16v-299l64 55v-48l-64 -54v-287l70 -19l-13 -29h-192v28l47 16v232z" />
    <glyph glyph-name="Nacute" unicode="&#x143;" horiz-adv-x="662" 
d="M164 503q3 -33 4 -68.5t1 -72.5v-307l75 -23l-8 -32h-193l-8 32l75 23v478l-75 23l8 32h165l234 -333q19 -26 35.5 -56.5t31.5 -65.5h4q-2 34 -3.5 68t-1.5 68v264l-75 23l8 32h193l8 -32l-75 -23v-533h-53l-274 381q-19 27 -37 57.5t-35 64.5h-4zM369 762
q13 17 30.5 18.5t32.5 -13.5q16 -16 12 -34t-22 -29l-128 -77l-13 17z" />
    <glyph glyph-name="nacute" unicode="&#x144;" horiz-adv-x="520" 
d="M322 446q54 0 86 -36t32 -101v-261l70 -19l-13 -29h-192v28l47 17v247q0 38 -19 57.5t-55 19.5q-26 0 -53.5 -11t-48.5 -29v-281l70 -19l-13 -29h-192v28l47 16v291l-48 54v11l120 46h15l-3 -85h4q25 41 63.5 63t82.5 22zM270 635q9 20 27 25.5t38 -6.5q20 -13 21.5 -32
t-13.5 -32l-113 -100l-15 12z" />
    <glyph glyph-name="Ncommaaccent" unicode="&#x145;" horiz-adv-x="662" 
d="M164 503q3 -33 4 -68.5t1 -72.5v-307l75 -23l-8 -32h-193l-8 32l75 23v478l-75 23l8 32h165l234 -333q19 -26 35.5 -56.5t31.5 -65.5h4q-2 34 -3.5 68t-1.5 68v264l-75 23l8 32h193l8 -32l-75 -23v-533h-53l-274 381q-19 27 -37 57.5t-35 64.5h-4zM278 -230
q40 13 60.5 34.5t20.5 49.5h-6q-3 -10 -12.5 -16.5t-19.5 -6.5q-23 0 -36 14.5t-13 37.5q0 25 17 41.5t43 16.5q34 0 54 -20.5t20 -54.5q0 -50 -29.5 -78.5t-90.5 -37.5z" />
    <glyph glyph-name="ncommaaccent" unicode="&#x146;" horiz-adv-x="520" 
d="M322 446q54 0 86 -36t32 -101v-261l70 -19l-13 -29h-192v28l47 17v247q0 38 -19 57.5t-55 19.5q-26 0 -53.5 -11t-48.5 -29v-281l70 -19l-13 -29h-192v28l47 16v291l-48 54v11l120 46h15l-3 -85h4q25 41 63.5 63t82.5 22zM203 -230q40 13 60.5 34.5t20.5 49.5h-6
q-3 -10 -12.5 -16.5t-19.5 -6.5q-23 0 -36 14.5t-13 37.5q0 25 17 41.5t43 16.5q34 0 54 -20.5t20 -54.5q0 -50 -29.5 -78.5t-90.5 -37.5z" />
    <glyph glyph-name="Ncaron" unicode="&#x147;" horiz-adv-x="662" 
d="M164 503q3 -33 4 -68.5t1 -72.5v-307l75 -23l-8 -32h-193l-8 32l75 23v478l-75 23l8 32h165l234 -333q19 -26 35.5 -56.5t31.5 -65.5h4q-2 34 -3.5 68t-1.5 68v264l-75 23l8 32h193l8 -32l-75 -23v-533h-53l-274 381q-19 27 -37 57.5t-35 64.5h-4zM428 757h48l-138 -137
h-14l-134 137h96l66 -73z" />
    <glyph glyph-name="ncaron" unicode="&#x148;" horiz-adv-x="520" 
d="M322 446q54 0 86 -36t32 -101v-261l70 -19l-13 -29h-192v28l47 17v247q0 38 -19 57.5t-55 19.5q-26 0 -53.5 -11t-48.5 -29v-281l70 -19l-13 -29h-192v28l47 16v291l-48 54v11l120 46h15l-3 -85h4q25 41 63.5 63t82.5 22zM358 659h45l-138 -177h-14l-134 177h87l73 -106z
" />
    <glyph glyph-name="Eng" unicode="&#x14a;" horiz-adv-x="667" 
d="M429 -120q0 -8 -3 -16t-7 -13q46 0 69.5 38.5t23.5 114.5l-272 377q-19 27 -37 57.5t-35 64.5h-4q3 -33 4 -68.5t1 -72.5v-307l75 -23l-8 -32h-193l-8 32l75 23v478l-75 23l8 32h165l234 -333q19 -26 35.5 -56.5t31.5 -65.5h4q-2 34 -3.5 68t-1.5 68v264l-75 23l8 32h193
l8 -32l-75 -23v-533q0 -97 -38 -143t-117 -46q-39 0 -61.5 16.5t-22.5 45.5q0 25 14.5 40.5t36.5 15.5q23 0 36.5 -13t13.5 -36z" />
    <glyph glyph-name="eng" unicode="&#x14b;" horiz-adv-x="490" 
d="M302 -164q0 -7 -2 -15t-5 -12q24 0 40.5 28.5t16.5 76.5v378q0 38 -19 57.5t-55 19.5q-26 0 -53.5 -11t-48.5 -29v-281l70 -19l-13 -29h-192v28l47 16v291l-48 54v11l120 46h15l-3 -85h4q25 41 63.5 63t82.5 22q54 0 86 -36t32 -101v-358q0 -80 -43 -125t-123 -45
q-31 0 -49 14t-18 39q0 22 14 35.5t37 13.5q21 0 32.5 -12.5t11.5 -34.5z" />
    <glyph glyph-name="Omacron" unicode="&#x14c;" horiz-adv-x="624" 
d="M312 598q124 0 198 -83t74 -221t-74 -221t-198 -83t-198 83t-74 221t74 221t198 83zM312 552q-84 0 -125 -63.5t-41 -194.5t41 -194.5t125 -63.5t125 63.5t41 194.5t-41 194.5t-125 63.5zM158 701h309v-48h-309v48z" />
    <glyph glyph-name="omacron" unicode="&#x14d;" horiz-adv-x="489" 
d="M40 218q0 108 54 168t151 60q96 0 150 -60t54 -168t-54 -168t-150 -60q-97 0 -151 60t-54 168zM353 218q0 93 -27 139.5t-81 46.5q-55 0 -82 -46.5t-27 -139.5t27 -139.5t82 -46.5q54 0 81 46.5t27 139.5zM106 561h279v-48h-279v48z" />
    <glyph glyph-name="Obreve" unicode="&#x14e;" horiz-adv-x="624" 
d="M312 598q124 0 198 -83t74 -221t-74 -221t-198 -83t-198 83t-74 221t74 221t198 83zM312 552q-84 0 -125 -63.5t-41 -194.5t41 -194.5t125 -63.5t125 63.5t41 194.5t-41 194.5t-125 63.5zM204 753q16 -38 40 -53.5t68 -15.5t68 15.5t40 53.5h29q-5 -61 -41 -96t-96 -35
t-96 35t-41 96h29z" />
    <glyph glyph-name="obreve" unicode="&#x14f;" horiz-adv-x="489" 
d="M40 218q0 108 54 168t151 60q96 0 150 -60t54 -168t-54 -168t-150 -60q-97 0 -151 60t-54 168zM353 218q0 93 -27 139.5t-81 46.5q-55 0 -82 -46.5t-27 -139.5t27 -139.5t82 -46.5q54 0 81 46.5t27 139.5zM139 653q10 -49 35 -71t73 -22t73 21.5t35 71.5h25
q2 -7 2.5 -12.5t0.5 -12.5q0 -57 -38 -95t-98 -38t-98 38t-38 95q0 7 0.5 12.5t2.5 12.5h25z" />
    <glyph glyph-name="Ohungarumlaut" unicode="&#x150;" horiz-adv-x="624" 
d="M312 598q124 0 198 -83t74 -221t-74 -221t-198 -83t-198 83t-74 221t74 221t198 83zM312 552q-84 0 -125 -63.5t-41 -194.5t41 -194.5t125 -63.5t125 63.5t41 194.5t-41 194.5t-125 63.5zM284 762q13 16 27.5 17t28.5 -14q15 -15 13 -29.5t-20 -26.5l-129 -84l-15 19z
M414 762q13 16 27.5 17t28.5 -14q15 -15 13 -29.5t-20 -26.5l-129 -84l-15 19z" />
    <glyph glyph-name="ohungarumlaut" unicode="&#x151;" horiz-adv-x="489" 
d="M40 218q0 108 54 168t151 60q96 0 150 -60t54 -168t-54 -168t-150 -60q-97 0 -151 60t-54 168zM353 218q0 93 -27 139.5t-81 46.5q-55 0 -82 -46.5t-27 -139.5t27 -139.5t82 -46.5q54 0 81 46.5t27 139.5zM214 638q9 19 22.5 23t31.5 -7t19 -26t-13 -30l-107 -111l-19 15
zM344 638q9 19 22.5 23t31.5 -7t19 -26t-13 -30l-107 -111l-19 15z" />
    <glyph glyph-name="OE" unicode="&#x152;" horiz-adv-x="849" 
d="M312 552q-84 0 -125 -63.5t-41 -194.5t41 -194.5t125 -63.5t125 63.5t41 194.5t-41 194.5t-125 63.5zM391 0q-21 -5 -40.5 -7.5t-38.5 -2.5q-124 0 -198 83t-74 221t74 221t198 83q19 0 38.5 -2.5t40.5 -7.5h399v-157l-21 -5l-74 116h-213q45 -37 71 -93.5t30 -126.5h48
l39 88l22 -4v-216l-21 -4l-39 90h-49q-3 -75 -29 -134t-72 -96h229l82 142l26 -6l-20 -182h-408z" />
    <glyph glyph-name="oe" unicode="&#x153;" horiz-adv-x="753" 
d="M723 289q0 -15 -1 -27.5t-4 -24.5h-272q0 -86 36 -134t99 -48q35 0 63.5 9.5t60.5 31.5l13 -23q-28 -43 -68 -63t-96 -20q-52 0 -92 22t-58 62q-20 -41 -61.5 -62.5t-97.5 -21.5q-97 0 -151 60t-54 168t54 168t151 60q58 0 99 -22.5t66 -67.5q26 44 66 67t92 23
q71 0 113 -42.5t42 -114.5zM353 218q0 93 -27 139.5t-81 46.5q-55 0 -82 -46.5t-27 -139.5t27 -139.5t82 -46.5q54 0 81 46.5t27 139.5zM632 280q1 4 1 10v17q0 48 -19.5 72t-57.5 24q-40 0 -68.5 -32.5t-38.5 -90.5h183z" />
    <glyph glyph-name="Racute" unicode="&#x154;" horiz-adv-x="583" 
d="M385 428q0 58 -32 87.5t-94 29.5h-57v-238h57q68 0 97 29t29 92zM316 273q31 -6 54.5 -23t41.5 -47l90 -149l81 -26l-7 -28h-153l-124 217q-16 28 -38.5 39t-58.5 11v-212l75 -23l-8 -32h-226l-8 32l75 23v478l-75 23l8 32h227q104 0 157.5 -41t53.5 -122
q0 -66 -46 -105.5t-119 -42.5v-4zM284 762q13 17 30.5 18.5t32.5 -13.5q16 -16 12 -34t-22 -29l-128 -77l-13 17z" />
    <glyph glyph-name="racute" unicode="&#x155;" horiz-adv-x="377" 
d="M262 382q-22 -8 -43 -27.5t-43 -52.5v-254l90 -18l-13 -30h-212v28l47 16v291l-48 54v11l120 46h15l-3 -103h4q22 48 55.5 76t71.5 28q34 0 54 -17.5t20 -47.5q0 -28 -16 -44.5t-42 -16.5t-41.5 17t-15.5 44zM188 635q9 20 27 25.5t38 -6.5q20 -13 21.5 -32t-13.5 -32
l-113 -100l-15 12z" />
    <glyph glyph-name="Rcommaaccent" unicode="&#x156;" horiz-adv-x="583" 
d="M385 428q0 58 -32 87.5t-94 29.5h-57v-238h57q68 0 97 29t29 92zM316 273q31 -6 54.5 -23t41.5 -47l90 -149l81 -26l-7 -28h-153l-124 217q-16 28 -38.5 39t-58.5 11v-212l75 -23l-8 -32h-226l-8 32l75 23v478l-75 23l8 32h227q104 0 157.5 -41t53.5 -122
q0 -66 -46 -105.5t-119 -42.5v-4zM222 -230q40 13 60.5 34.5t20.5 49.5h-6q-3 -10 -12.5 -16.5t-19.5 -6.5q-23 0 -36 14.5t-13 37.5q0 25 17 41.5t43 16.5q34 0 54 -20.5t20 -54.5q0 -50 -29.5 -78.5t-90.5 -37.5z" />
    <glyph glyph-name="rcommaaccent" unicode="&#x157;" horiz-adv-x="377" 
d="M262 382q-22 -8 -43 -27.5t-43 -52.5v-254l90 -18l-13 -30h-212v28l47 16v291l-48 54v11l120 46h15l-3 -103h4q22 48 55.5 76t71.5 28q34 0 54 -17.5t20 -47.5q0 -28 -16 -44.5t-42 -16.5t-41.5 17t-15.5 44zM77 -230q40 13 60.5 34.5t20.5 49.5h-6q-3 -10 -12.5 -16.5
t-19.5 -6.5q-23 0 -36 14.5t-13 37.5q0 25 17 41.5t43 16.5q34 0 54 -20.5t20 -54.5q0 -50 -29.5 -78.5t-90.5 -37.5z" />
    <glyph glyph-name="Rcaron" unicode="&#x158;" horiz-adv-x="583" 
d="M385 428q0 58 -32 87.5t-94 29.5h-57v-238h57q68 0 97 29t29 92zM316 273q31 -6 54.5 -23t41.5 -47l90 -149l81 -26l-7 -28h-153l-124 217q-16 28 -38.5 39t-58.5 11v-212l75 -23l-8 -32h-226l-8 32l75 23v478l-75 23l8 32h227q104 0 157.5 -41t53.5 -122
q0 -66 -46 -105.5t-119 -42.5v-4zM358 757h48l-138 -137h-14l-134 137h96l66 -73z" />
    <glyph glyph-name="rcaron" unicode="&#x159;" horiz-adv-x="377" 
d="M262 382q-22 -8 -43 -27.5t-43 -52.5v-254l90 -18l-13 -30h-212v28l47 16v291l-48 54v11l120 46h15l-3 -103h4q22 48 55.5 76t71.5 28q34 0 54 -17.5t20 -47.5q0 -28 -16 -44.5t-42 -16.5t-41.5 17t-15.5 44zM297 659h45l-138 -177h-14l-134 177h87l73 -106z" />
    <glyph glyph-name="Sacute" unicode="&#x15a;" horiz-adv-x="464" 
d="M106 124q27 -51 57.5 -71.5t77.5 -20.5q45 0 70.5 26t25.5 72q0 40 -18.5 64.5t-74.5 49.5l-70 32q-60 28 -88 67.5t-28 97.5q0 73 47.5 115t125.5 42q14 0 29 -1.5t32 -4.5q12 -2 32 -6.5t27 -5.5l45 18l1 -164l-25 -6l-29 56q-21 40 -47 57t-66 17q-42 0 -68.5 -25
t-26.5 -66q0 -40 18.5 -64t66.5 -46l80 -36q62 -28 90.5 -69.5t28.5 -101.5q0 -74 -50 -117t-130 -43q-26 0 -49 3.5t-82 24.5l-45 -28l-18 186l29 6zM256 762q13 17 30.5 18.5t32.5 -13.5q16 -16 12 -34t-22 -29l-128 -77l-13 17z" />
    <glyph glyph-name="sacute" unicode="&#x15b;" horiz-adv-x="389" 
d="M94 13l-45 -23l-9 144l24 7q28 -61 58.5 -87t76.5 -26q38 0 56.5 15.5t18.5 47.5q0 28 -16.5 45.5t-55.5 30.5l-57 20q-51 18 -75 50t-24 82q0 60 39 93.5t107 33.5q18 0 42.5 -5.5t37.5 -12.5l48 17l8 -128l-21 -7q-29 51 -57 73t-64 22q-31 0 -49.5 -16.5t-18.5 -43.5
q0 -28 16 -46t51 -30l57 -19q57 -20 82 -51.5t25 -82.5q0 -61 -41 -93.5t-115 -32.5q-24 0 -49 5.5t-50 17.5zM192 635q9 20 27 25.5t38 -6.5q20 -13 21.5 -32t-13.5 -32l-113 -100l-15 12z" />
    <glyph glyph-name="Scircumflex" unicode="&#x15c;" horiz-adv-x="464" 
d="M106 124q27 -51 57.5 -71.5t77.5 -20.5q45 0 70.5 26t25.5 72q0 40 -18.5 64.5t-74.5 49.5l-70 32q-60 28 -88 67.5t-28 97.5q0 73 47.5 115t125.5 42q14 0 29 -1.5t32 -4.5q12 -2 32 -6.5t27 -5.5l45 18l1 -164l-25 -6l-29 56q-21 40 -47 57t-66 17q-42 0 -68.5 -25
t-26.5 -66q0 -40 18.5 -64t66.5 -46l80 -36q62 -28 90.5 -69.5t28.5 -101.5q0 -74 -50 -117t-130 -43q-26 0 -49 3.5t-82 24.5l-45 -28l-18 186l29 6zM138 628h-47l138 137h14l134 -137h-92l-70 71z" />
    <glyph glyph-name="scircumflex" unicode="&#x15d;" horiz-adv-x="389" 
d="M94 13l-45 -23l-9 144l24 7q28 -61 58.5 -87t76.5 -26q38 0 56.5 15.5t18.5 47.5q0 28 -16.5 45.5t-55.5 30.5l-57 20q-51 18 -75 50t-24 82q0 60 39 93.5t107 33.5q18 0 42.5 -5.5t37.5 -12.5l48 17l8 -128l-21 -7q-29 51 -57 73t-64 22q-31 0 -49.5 -16.5t-18.5 -43.5
q0 -28 16 -46t51 -30l57 -19q57 -20 82 -51.5t25 -82.5q0 -61 -41 -93.5t-115 -32.5q-24 0 -49 5.5t-50 17.5zM103 482h-45l138 177h14l134 -177h-87l-73 106z" />
    <glyph glyph-name="Scedilla" unicode="&#x15e;" horiz-adv-x="464" 
d="M316 -132q0 -42 -28.5 -64t-83.5 -22q-27 0 -50 8.5t-36 23.5l17 22q14 -12 29 -17.5t34 -5.5q22 0 35 10t13 28q0 21 -14 34t-67 28l29 80q-13 2 -34.5 8t-51.5 17l-45 -28l-18 186l29 6l32 -58q27 -51 57.5 -71.5t77.5 -20.5q45 0 70.5 26t25.5 72q0 40 -18.5 64.5
t-74.5 49.5l-70 32q-60 28 -88 67.5t-28 97.5q0 73 47.5 115t125.5 42q14 0 29 -1.5t32 -4.5q12 -2 32 -6.5t27 -5.5l45 18l1 -164l-25 -6l-29 56q-21 40 -47 57t-66 17q-42 0 -68.5 -25t-26.5 -66q0 -40 18.5 -64t66.5 -46l80 -36q62 -28 90.5 -69.5t28.5 -101.5
q0 -74 -50 -117t-130 -43q-2 0 -7 0.5t-8 0.5l-12 -33q49 -9 76.5 -32.5t27.5 -57.5z" />
    <glyph glyph-name="scedilla" unicode="&#x15f;" horiz-adv-x="389" 
d="M286 -132q0 -42 -28.5 -64t-83.5 -22q-27 0 -50 8.5t-36 23.5l17 22q14 -12 29 -17.5t34 -5.5q22 0 35 10t13 28q0 21 -14 34t-67 28l28 79q-19 3 -36.5 8t-32.5 13l-45 -23l-9 144l24 7q28 -61 58.5 -87t76.5 -26q38 0 56.5 15.5t18.5 47.5q0 28 -16.5 45.5t-55.5 30.5
l-57 20q-51 18 -75 50t-24 82q0 60 39 93.5t107 33.5q18 0 42.5 -5.5t37.5 -12.5l48 17l8 -128l-21 -7q-29 51 -57 73t-64 22q-31 0 -49.5 -16.5t-18.5 -43.5q0 -28 16 -46t51 -30l57 -19q57 -20 82 -51.5t25 -82.5q0 -60 -40.5 -92.5t-114.5 -33.5l-12 -32
q49 -9 76.5 -32.5t27.5 -57.5z" />
    <glyph glyph-name="Scaron" unicode="&#x160;" horiz-adv-x="464" 
d="M106 124q27 -51 57.5 -71.5t77.5 -20.5q45 0 70.5 26t25.5 72q0 40 -18.5 64.5t-74.5 49.5l-70 32q-60 28 -88 67.5t-28 97.5q0 73 47.5 115t125.5 42q14 0 29 -1.5t32 -4.5q12 -2 32 -6.5t27 -5.5l45 18l1 -164l-25 -6l-29 56q-21 40 -47 57t-66 17q-42 0 -68.5 -25
t-26.5 -66q0 -40 18.5 -64t66.5 -46l80 -36q62 -28 90.5 -69.5t28.5 -101.5q0 -74 -50 -117t-130 -43q-26 0 -49 3.5t-82 24.5l-45 -28l-18 186l29 6zM332 757h48l-138 -137h-14l-134 137h96l66 -73z" />
    <glyph glyph-name="scaron" unicode="&#x161;" horiz-adv-x="389" 
d="M94 13l-45 -23l-9 144l24 7q28 -61 58.5 -87t76.5 -26q38 0 56.5 15.5t18.5 47.5q0 28 -16.5 45.5t-55.5 30.5l-57 20q-51 18 -75 50t-24 82q0 60 39 93.5t107 33.5q18 0 42.5 -5.5t37.5 -12.5l48 17l8 -128l-21 -7q-29 51 -57 73t-64 22q-31 0 -49.5 -16.5t-18.5 -43.5
q0 -28 16 -46t51 -30l57 -19q57 -20 82 -51.5t25 -82.5q0 -61 -41 -93.5t-115 -32.5q-24 0 -49 5.5t-50 17.5zM293 659h45l-138 -177h-14l-134 177h87l73 -106z" />
    <glyph glyph-name="Tcommaaccent" unicode="&#x162;" horiz-adv-x="546" 
d="M416 0h-286l-8 35l105 20v487h-112l-74 -116l-21 5v157h506v-157l-21 -5l-74 116h-112v-487l105 -20zM211 -230q40 13 60.5 34.5t20.5 49.5h-6q-3 -10 -12.5 -16.5t-19.5 -6.5q-23 0 -36 14.5t-13 37.5q0 25 17 41.5t43 16.5q34 0 54 -20.5t20 -54.5q0 -50 -29.5 -78.5
t-90.5 -37.5z" />
    <glyph glyph-name="tcommaaccent" unicode="&#x163;" horiz-adv-x="317" 
d="M72 114v275h-57v28l125 138h20v-119h146l-7 -47h-139v-260q0 -40 16.5 -59.5t49.5 -19.5q21 0 39.5 5t41.5 16l10 -25q-27 -30 -59.5 -43t-76.5 -13q-55 0 -82 31t-27 93zM125 -230q40 13 60.5 34.5t20.5 49.5h-6q-3 -10 -12.5 -16.5t-19.5 -6.5q-23 0 -36 14.5t-13 37.5
q0 25 17 41.5t43 16.5q34 0 54 -20.5t20 -54.5q0 -50 -29.5 -78.5t-90.5 -37.5z" />
    <glyph glyph-name="Tcaron" unicode="&#x164;" horiz-adv-x="546" 
d="M416 0h-286l-8 35l105 20v487h-112l-74 -116l-21 5v157h506v-157l-21 -5l-74 116h-112v-487l105 -20zM368 757h48l-138 -137h-14l-134 137h96l66 -73z" />
    <glyph glyph-name="tcaron" unicode="&#x165;" horiz-adv-x="317" 
d="M72 114v275h-57v28l125 138h20v-119h146l-7 -47h-139v-260q0 -40 16.5 -59.5t49.5 -19.5q21 0 39.5 5t41.5 16l10 -25q-27 -30 -59.5 -43t-76.5 -13q-55 0 -82 31t-27 93zM308 612l-65 -132l-23 4l10 150q1 17 11 27.5t26 10.5q21 0 33.5 -10.5t12.5 -28.5q0 -5 -1.5 -11
t-3.5 -10z" />
    <glyph glyph-name="Tbar" unicode="&#x166;" horiz-adv-x="546" 
d="M227 55v221h-96v46h96v220h-112l-74 -116l-21 5v157h506v-157l-21 -5l-74 116h-112v-220h93v-46h-93v-221l105 -20l-8 -35h-286l-8 35z" />
    <glyph glyph-name="tbar" unicode="&#x167;" horiz-adv-x="317" 
d="M72 285v104h-57v28l125 138h20v-119h146l-7 -47h-139v-104h134l-5 -43h-129v-113q0 -40 16.5 -59.5t49.5 -19.5q21 0 39.5 5t41.5 16l10 -25q-27 -30 -59.5 -43t-76.5 -13q-55 0 -82 31t-27 93v128h-57v43h57z" />
    <glyph glyph-name="Utilde" unicode="&#x168;" horiz-adv-x="641" 
d="M613 588l8 -32l-75 -23v-323q0 -103 -60.5 -161.5t-163.5 -58.5q-115 0 -171.5 52t-56.5 157v334l-74 23l7 32h226l8 -32l-75 -23v-320q0 -85 35.5 -126t108.5 -41q76 0 116.5 45t40.5 129v313l-75 23l8 32h193zM482 717q0 -31 -21 -51t-55 -21q-15 0 -30 3t-30 9l-61 26
q-7 3 -14.5 4.5t-15.5 1.5q-20 -1 -33 -15.5t-16 -40.5l-17 2q-6 12 -8.5 21.5t-2.5 19.5q0 33 23 54.5t60 21.5q12 0 25.5 -3t27.5 -9l62 -26q9 -4 17 -5.5t16 -1.5q19 0 30.5 15t12.5 42l20 -4q5 -12 7.5 -22t2.5 -21z" />
    <glyph glyph-name="utilde" unicode="&#x169;" horiz-adv-x="484" 
d="M227 51q28 0 53.5 12.5t46.5 35.5v236l-48 54v11l120 46h16v-377l54 -38v-11l-129 -30l-9 72h-4q-21 -34 -58 -53t-80 -19q-58 0 -92 36.5t-34 102.5v206l-48 54v11l120 46h16v-298q0 -48 19.5 -72.5t56.5 -24.5zM397 573q0 -31 -21 -51t-55 -21q-15 0 -30 3t-30 9
l-61 26q-7 3 -14.5 4.5t-15.5 1.5q-20 -1 -33 -15.5t-16 -40.5l-17 2q-6 12 -8.5 21.5t-2.5 19.5q0 33 23 54.5t60 21.5q12 0 25.5 -3t27.5 -9l62 -26q9 -4 17 -5.5t16 -1.5q19 0 30.5 15t12.5 42l20 -4q5 -12 7.5 -22t2.5 -21z" />
    <glyph glyph-name="Umacron" unicode="&#x16a;" horiz-adv-x="641" 
d="M613 588l8 -32l-75 -23v-323q0 -103 -60.5 -161.5t-163.5 -58.5q-115 0 -171.5 52t-56.5 157v334l-74 23l7 32h226l8 -32l-75 -23v-320q0 -85 35.5 -126t108.5 -41q76 0 116.5 45t40.5 129v313l-75 23l8 32h193zM171 701h309v-48h-309v48z" />
    <glyph glyph-name="umacron" unicode="&#x16b;" horiz-adv-x="484" 
d="M227 51q28 0 53.5 12.5t46.5 35.5v236l-48 54v11l120 46h16v-377l54 -38v-11l-129 -30l-9 72h-4q-21 -34 -58 -53t-80 -19q-58 0 -92 36.5t-34 102.5v206l-48 54v11l120 46h16v-298q0 -48 19.5 -72.5t56.5 -24.5zM92 561h279v-48h-279v48z" />
    <glyph glyph-name="Ubreve" unicode="&#x16c;" horiz-adv-x="641" 
d="M613 588l8 -32l-75 -23v-323q0 -103 -60.5 -161.5t-163.5 -58.5q-115 0 -171.5 52t-56.5 157v334l-74 23l7 32h226l8 -32l-75 -23v-320q0 -85 35.5 -126t108.5 -41q76 0 116.5 45t40.5 129v313l-75 23l8 32h193zM219 753q16 -38 40 -53.5t68 -15.5t68 15.5t40 53.5h29
q-5 -61 -41 -96t-96 -35t-96 35t-41 96h29z" />
    <glyph glyph-name="ubreve" unicode="&#x16d;" horiz-adv-x="484" 
d="M227 51q28 0 53.5 12.5t46.5 35.5v236l-48 54v11l120 46h16v-377l54 -38v-11l-129 -30l-9 72h-4q-21 -34 -58 -53t-80 -19q-58 0 -92 36.5t-34 102.5v206l-48 54v11l120 46h16v-298q0 -48 19.5 -72.5t56.5 -24.5zM133 653q10 -49 35 -71t73 -22t73 21.5t35 71.5h25
q2 -7 2.5 -12.5t0.5 -12.5q0 -57 -38 -95t-98 -38t-98 38t-38 95q0 7 0.5 12.5t2.5 12.5h25z" />
    <glyph glyph-name="Uring" unicode="&#x16e;" horiz-adv-x="641" 
d="M613 588l8 -32l-75 -23v-323q0 -103 -60.5 -161.5t-163.5 -58.5q-115 0 -171.5 52t-56.5 157v334l-74 23l7 32h226l8 -32l-75 -23v-320q0 -85 35.5 -126t108.5 -41q76 0 116.5 45t40.5 129v313l-75 23l8 32h193zM422 707q0 -39 -26 -64.5t-66 -25.5q-41 0 -66.5 25
t-25.5 65q0 37 26 62.5t66 25.5t66 -25.5t26 -62.5zM379 706q0 22 -13.5 36.5t-35.5 14.5t-35.5 -14.5t-13.5 -36.5q0 -23 13 -36.5t36 -13.5q22 0 35.5 14t13.5 36z" />
    <glyph glyph-name="uring" unicode="&#x16f;" horiz-adv-x="484" 
d="M227 51q28 0 53.5 12.5t46.5 35.5v236l-48 54v11l120 46h16v-377l54 -38v-11l-129 -30l-9 72h-4q-21 -34 -58 -53t-80 -19q-58 0 -92 36.5t-34 102.5v206l-48 54v11l120 46h16v-298q0 -48 19.5 -72.5t56.5 -24.5zM324 587q0 -39 -26 -64.5t-66 -25.5q-41 0 -66.5 25
t-25.5 65q0 37 26 62.5t66 25.5t66 -25.5t26 -62.5zM281 586q0 22 -13.5 36.5t-35.5 14.5t-35.5 -14.5t-13.5 -36.5q0 -23 13 -36.5t36 -13.5q22 0 35.5 14t13.5 36z" />
    <glyph glyph-name="Uhungarumlaut" unicode="&#x170;" horiz-adv-x="641" 
d="M613 588l8 -32l-75 -23v-323q0 -103 -60.5 -161.5t-163.5 -58.5q-115 0 -171.5 52t-56.5 157v334l-74 23l7 32h226l8 -32l-75 -23v-320q0 -85 35.5 -126t108.5 -41q76 0 116.5 45t40.5 129v313l-75 23l8 32h193zM314 762q13 16 27.5 17t28.5 -14q15 -15 13 -29.5
t-20 -26.5l-129 -84l-15 19zM444 762q13 16 27.5 17t28.5 -14q15 -15 13 -29.5t-20 -26.5l-129 -84l-15 19z" />
    <glyph glyph-name="uhungarumlaut" unicode="&#x171;" horiz-adv-x="484" 
d="M227 51q28 0 53.5 12.5t46.5 35.5v236l-48 54v11l120 46h16v-377l54 -38v-11l-129 -30l-9 72h-4q-21 -34 -58 -53t-80 -19q-58 0 -92 36.5t-34 102.5v206l-48 54v11l120 46h16v-298q0 -48 19.5 -72.5t56.5 -24.5zM208 638q9 19 22.5 23t31.5 -7t19 -26t-13 -30l-107 -111
l-19 15zM338 638q9 19 22.5 23t31.5 -7t19 -26t-13 -30l-107 -111l-19 15z" />
    <glyph glyph-name="Uogonek" unicode="&#x172;" horiz-adv-x="641" 
d="M431 -144q-15 -35 -44.5 -53t-70.5 -18q-48 0 -75 24t-27 68q0 36 19.5 64t60.5 50q-100 6 -150 58t-50 150v334l-74 23l7 32h226l8 -32l-75 -23v-320q0 -85 35.5 -126t108.5 -41q76 0 116.5 45t40.5 129v313l-75 23l8 32h193l8 -32l-75 -23v-323q0 -91 -48.5 -148
t-133.5 -69q-43 -21 -59 -41.5t-16 -53.5q0 -29 16.5 -45.5t44.5 -16.5q22 0 36.5 7.5t30.5 26.5z" />
    <glyph glyph-name="uogonek" unicode="&#x173;" horiz-adv-x="484" 
d="M439 -144q-15 -35 -44.5 -53t-70.5 -18q-48 0 -75 24t-27 68q0 43 28 74.5t88 55.5l-7 55h-4q-21 -34 -58 -53t-80 -19q-58 0 -92 36.5t-34 102.5v206l-48 54v11l120 46h16v-298q0 -48 19.5 -72.5t56.5 -24.5q28 0 53.5 12.5t46.5 35.5v236l-48 54v11l120 46h16v-377
l54 -38v-11q-85 -15 -128.5 -45.5t-43.5 -76.5q0 -29 16.5 -45.5t44.5 -16.5q22 0 36.5 7.5t30.5 26.5z" />
    <glyph glyph-name="Wcircumflex" unicode="&#x174;" horiz-adv-x="798" 
d="M738 533l-134 -533h-87l-90 353q-8 34 -13.5 67.5t-7.5 67.5h-4q-3 -36 -9.5 -70t-15.5 -67l-95 -351h-88l-133 532l-51 25l7 31h214l6 -34l-80 -17l73 -327q7 -31 12.5 -64.5t8.5 -69.5h4q6 34 13.5 67.5t15.5 67.5l94 377h76l96 -378q9 -33 14 -66.5t7 -67.5h4
q3 34 8.5 67.5t13.5 67.5l79 321l-84 22l5 34h184l7 -31zM314 628h-47l138 137h14l134 -137h-92l-70 71z" />
    <glyph glyph-name="wcircumflex" unicode="&#x175;" horiz-adv-x="660" 
d="M43 383l-43 27l7 26h187l6 -28l-64 -18l55 -185q8 -25 13.5 -50t8.5 -50h4q3 25 9 50t15 50l81 231h50l75 -231q8 -25 14.5 -50t11.5 -50h4q4 25 9.5 50t13.5 50l58 180l-66 22l7 29h156l5 -29l-45 -19l-129 -388h-55l-76 209q-8 22 -15 46.5t-13 51.5h-4
q-6 -29 -12.5 -53.5t-13.5 -44.5l-73 -209h-55zM249 482h-45l138 177h14l134 -177h-87l-73 106z" />
    <glyph glyph-name="Ycircumflex" unicode="&#x176;" horiz-adv-x="560" 
d="M226 588l6 -34l-79 -17l109 -196q15 -26 23 -46t9 -34h4q4 13 13 33t24 46l107 193l-83 21l5 34h184l7 -31l-50 -24l-179 -315v-163l105 -20l-8 -35h-286l-8 35l105 20v163l-179 315l-50 24l7 31h214zM195 628h-47l138 137h14l134 -137h-92l-70 71z" />
    <glyph glyph-name="ycircumflex" unicode="&#x177;" horiz-adv-x="461" 
d="M98 -141q0 -10 -2.5 -18.5t-7.5 -15.5q29 0 63.5 46.5t56.5 113.5l-158 398l-43 27l7 26h185l7 -30l-64 -16l71 -188q14 -37 22.5 -69t10.5 -58h4q9 32 18.5 64t19.5 64l59 182l-66 22l6 29h160l6 -29l-46 -19l-139 -379q-46 -124 -90 -174.5t-108 -50.5
q-37 0 -58.5 18.5t-21.5 49.5q0 27 15.5 42.5t41.5 15.5q23 0 37 -14.5t14 -36.5zM139 482h-45l138 177h14l134 -177h-87l-73 106z" />
    <glyph glyph-name="Ydieresis" unicode="&#x178;" horiz-adv-x="560" 
d="M226 588l6 -34l-79 -17l109 -196q15 -26 23 -46t9 -34h4q4 13 13 33t24 46l107 193l-83 21l5 34h184l7 -31l-50 -24l-179 -315v-163l105 -20l-8 -35h-286l-8 35l105 20v163l-179 315l-50 24l7 31h214zM258 679q0 -23 -17 -40t-42 -17q-22 0 -38.5 17t-16.5 40q0 24 16 41
t39 17q25 0 42 -16.5t17 -41.5zM447 678q0 -23 -17 -40t-41 -17q-23 0 -40 17t-17 40q0 24 16.5 41t40.5 17t41 -17t17 -41z" />
    <glyph glyph-name="Zacute" unicode="&#x179;" horiz-adv-x="510" 
d="M458 0h-427l-6 12l273 459q15 26 28 44t23 29v4q-10 -1 -31 -2t-53 -1h-107l-87 -121l-22 4l14 160h401l5 -14l-277 -454q-16 -27 -29.5 -45t-23.5 -28v-4q12 2 33.5 2.5t52.5 0.5h146l90 126l24 -7zM285 762q13 17 30.5 18.5t32.5 -13.5q16 -16 12 -34t-22 -29l-128 -77
l-13 17z" />
    <glyph glyph-name="zacute" unicode="&#x17a;" horiz-adv-x="427" 
d="M278 396q-10 -1 -31 -2t-53 -1h-60l-77 -101l-22 4l14 140h341l5 -14l-200 -307q-16 -24 -30 -42.5t-26 -30.5v-4q9 2 29 2.5t51 0.5h77l82 112l24 -7l-24 -146h-347l-6 12l202 307q17 25 29.5 43.5t21.5 29.5v4zM218 635q9 20 27 25.5t38 -6.5q20 -13 21.5 -32
t-13.5 -32l-113 -100l-15 12z" />
    <glyph glyph-name="Zdotaccent" unicode="&#x17b;" horiz-adv-x="510" 
d="M458 0h-427l-6 12l273 459q15 26 28 44t23 29v4q-10 -1 -31 -2t-53 -1h-107l-87 -121l-22 4l14 160h401l5 -14l-277 -454q-16 -27 -29.5 -45t-23.5 -28v-4q12 2 33.5 2.5t52.5 0.5h146l90 126l24 -7zM320 691q0 -24 -18 -42t-43 -18q-24 0 -41.5 18t-17.5 42
q0 25 17.5 43t41.5 18q26 0 43.5 -17.5t17.5 -43.5z" />
    <glyph glyph-name="zdotaccent" unicode="&#x17c;" horiz-adv-x="427" 
d="M278 396q-10 -1 -31 -2t-53 -1h-60l-77 -101l-22 4l14 140h341l5 -14l-200 -307q-16 -24 -30 -42.5t-26 -30.5v-4q9 2 29 2.5t51 0.5h77l82 112l24 -7l-24 -146h-347l-6 12l202 307q17 25 29.5 43.5t21.5 29.5v4zM290 567q0 -24 -18 -42t-43 -18q-24 0 -41.5 18t-17.5 42
q0 25 17.5 43t41.5 18q26 0 43.5 -17.5t17.5 -43.5z" />
    <glyph glyph-name="Zcaron" unicode="&#x17d;" horiz-adv-x="510" 
d="M458 0h-427l-6 12l273 459q15 26 28 44t23 29v4q-10 -1 -31 -2t-53 -1h-107l-87 -121l-22 4l14 160h401l5 -14l-277 -454q-16 -27 -29.5 -45t-23.5 -28v-4q12 2 33.5 2.5t52.5 0.5h146l90 126l24 -7zM360 757h48l-138 -137h-14l-134 137h96l66 -73z" />
    <glyph glyph-name="zcaron" unicode="&#x17e;" horiz-adv-x="427" 
d="M278 396q-10 -1 -31 -2t-53 -1h-60l-77 -101l-22 4l14 140h341l5 -14l-200 -307q-16 -24 -30 -42.5t-26 -30.5v-4q9 2 29 2.5t51 0.5h77l82 112l24 -7l-24 -146h-347l-6 12l202 307q17 25 29.5 43.5t21.5 29.5v4zM325 659h45l-138 -177h-14l-134 177h87l73 -106z" />
    <glyph glyph-name="Schwa" unicode="&#x18f;" horiz-adv-x="537" 
d="M30 194q0 22 3 39.5t10 35.5h358q0 130 -50.5 196t-150.5 66q-38 0 -73 -14.5t-66 -44.5l-22 28q37 48 88 73t113 25q119 0 188 -79.5t69 -219.5q0 -145 -70.5 -226.5t-194.5 -81.5q-90 0 -146 56t-56 147zM129 217q-1 -5 -1 -10.5v-16.5q0 -73 30.5 -113t87.5 -40
q61 0 100.5 48.5t52.5 140.5z" />
    <glyph glyph-name="florin" unicode="&#x192;" horiz-adv-x="535" 
d="M206 79l23 196h-105v39h109l12 95q11 93 54 141t114 48q53 0 82.5 -19.5t29.5 -56.5q0 -25 -15.5 -41.5t-38.5 -16.5t-38.5 15t-15.5 38q0 13 6.5 27t15.5 21q-6 2 -12 2.5t-12 0.5q-35 0 -55 -34t-31 -125l-12 -95h127v-39h-131l-23 -196q-11 -93 -54 -141t-114 -48
q-53 0 -82.5 19.5t-29.5 56.5q0 25 15.5 41.5t38.5 16.5t38.5 -15t15.5 -38q0 -13 -6.5 -27t-15.5 -21q6 -2 12 -2.5t12 -0.5q35 0 55 34t31 125z" />
    <glyph glyph-name="Khook" unicode="&#x198;" horiz-adv-x="600" 
d="M490 551q-31 -3 -59 -34.5t-64 -102.5l-45 -88l193 -271l85 -22l-7 -33h-152l-192 282h-48v-227l75 -23l-8 -32h-226l-7 32l74 23v478l-74 23l7 32h226l8 -32l-75 -23v-212l67 10l59 117q42 83 82 116.5t96 33.5q36 0 58 -19.5t22 -53.5q0 -25 -15.5 -41.5t-38.5 -16.5
q-27 0 -41.5 11.5t-14.5 33.5q0 13 3.5 21t11.5 14v4z" />
    <glyph glyph-name="khook" unicode="&#x199;" horiz-adv-x="480" 
d="M257 653q-49 0 -73 -38.5t-24 -116.5v-251l35 8l143 134l-58 18l7 29h160l7 -29l-55 -23l-134 -124l146 -211l69 -21l-11 -28h-132l-139 212h-38v-164l70 -19l-13 -29h-192v28l47 16v422q0 102 52 161.5t137 59.5q52 0 82 -20.5t30 -57.5q0 -25 -15.5 -41.5t-38.5 -16.5
q-24 0 -39 14t-15 36q0 15 5.5 28t15.5 20q-8 2 -14.5 3t-14.5 1z" />
    <glyph glyph-name="Ezh" unicode="&#x1b7;" horiz-adv-x="487" 
d="M51 588h401l5 -14l-223 -347v-4q97 -20 147.5 -71.5t50.5 -131.5q0 -96 -67.5 -153t-179.5 -57q-76 0 -120.5 27t-44.5 74q0 34 18 53.5t48 19.5q27 0 45 -19t18 -44q0 -20 -9.5 -33t-26.5 -18q10 -10 29 -15t50 -5q62 0 100.5 41t38.5 108q0 78 -49 126t-141 61l-12 18
l204 341h-187l-87 -121l-22 4z" />
    <glyph glyph-name="Acaron" unicode="&#x1cd;" horiz-adv-x="591" 
d="M279 520q-4 -27 -12.5 -56.5t-20.5 -62.5l-60 -161h183l-58 162q-12 35 -19 64.5t-9 53.5h-4zM365 0l-6 34l79 17l-52 143h-217l-52 -139l83 -21l-5 -34h-183l-7 31l50 24l201 533h80l200 -533l50 -24l-7 -31h-214zM388 757h48l-138 -137h-14l-134 137h96l66 -73z" />
    <glyph glyph-name="acaron" unicode="&#x1ce;" horiz-adv-x="438" 
d="M47 365q33 41 75 61t95 20q63 0 103.5 -36t40.5 -97v-221q0 -35 16 -45.5t58 -4.5l3 -22q-17 -16 -38 -23t-48 -7q-29 0 -48.5 15.5t-24.5 44.5h-4q-13 -27 -44.5 -43.5t-69.5 -16.5q-60 0 -93 32t-33 90q0 63 46.5 97t132.5 34q15 0 31 -1.5t28 -4.5v53q0 42 -24.5 65
t-68.5 23q-32 0 -61.5 -10.5t-58.5 -31.5zM192 48q27 0 45.5 8t35.5 26v118h-26q-66 0 -94.5 -20t-28.5 -64q0 -32 18 -50t50 -18zM307 659h45l-138 -177h-14l-134 177h87l73 -106z" />
    <glyph glyph-name="Icaron" unicode="&#x1cf;" horiz-adv-x="312" 
d="M241 756h47l-128 -137h-14l-124 137h92l63 -68zM110 533l-75 23l8 32h226l8 -32l-75 -23v-478l75 -23l-8 -32h-226l-8 32l75 23v478z" />
    <glyph glyph-name="icaron" unicode="&#x1d0;" horiz-adv-x="261" 
d="M160 446h16v-398l70 -19l-13 -29h-192v28l47 20v292l-48 54v11zM231 659h45l-138 -177h-14l-134 177h87l73 -106z" />
    <glyph glyph-name="Ocaron" unicode="&#x1d1;" horiz-adv-x="624" 
d="M312 598q124 0 198 -83t74 -221t-74 -221t-198 -83t-198 83t-74 221t74 221t198 83zM312 552q-84 0 -125 -63.5t-41 -194.5t41 -194.5t125 -63.5t125 63.5t41 194.5t-41 194.5t-125 63.5zM409 757h48l-138 -137h-14l-134 137h96l66 -73z" />
    <glyph glyph-name="ocaron" unicode="&#x1d2;" horiz-adv-x="489" 
d="M40 218q0 108 54 168t151 60q96 0 150 -60t54 -168t-54 -168t-150 -60q-97 0 -151 60t-54 168zM353 218q0 93 -27 139.5t-81 46.5q-55 0 -82 -46.5t-27 -139.5t27 -139.5t82 -46.5q54 0 81 46.5t27 139.5zM337 659h45l-138 -177h-14l-134 177h87l73 -106z" />
    <glyph glyph-name="Ucaron" unicode="&#x1d3;" horiz-adv-x="641" 
d="M613 588l8 -32l-75 -23v-323q0 -103 -60.5 -161.5t-163.5 -58.5q-115 0 -171.5 52t-56.5 157v334l-74 23l7 32h226l8 -32l-75 -23v-320q0 -85 35.5 -126t108.5 -41q76 0 116.5 45t40.5 129v313l-75 23l8 32h193zM423 757h48l-138 -137h-14l-134 137h96l66 -73z" />
    <glyph glyph-name="ucaron" unicode="&#x1d4;" horiz-adv-x="484" 
d="M227 51q28 0 53.5 12.5t46.5 35.5v236l-48 54v11l120 46h16v-377l54 -38v-11l-129 -30l-9 72h-4q-21 -34 -58 -53t-80 -19q-58 0 -92 36.5t-34 102.5v206l-48 54v11l120 46h16v-298q0 -48 19.5 -72.5t56.5 -24.5zM330 659h45l-138 -177h-14l-134 177h87l73 -106z" />
    <glyph glyph-name="uni004100A800AF" unicode="&#x1de;" horiz-adv-x="591" 
d="M279 520q-4 -27 -12.5 -56.5t-20.5 -62.5l-60 -161h183l-58 162q-12 35 -19 64.5t-9 53.5h-4zM365 0l-6 34l79 17l-52 143h-217l-52 -139l83 -21l-5 -34h-183l-7 31l50 24l201 533h80l200 -533l50 -24l-7 -31h-214zM140 810h309v-48h-309v48zM257 662q0 -23 -17 -40
t-42 -17q-22 0 -38.5 17t-16.5 40q0 24 16 41t39 17q25 0 42 -16.5t17 -41.5zM446 661q0 -23 -17 -40t-41 -17q-23 0 -40 17t-17 40q0 24 16.5 41t40.5 17t41 -17t17 -41z" />
    <glyph glyph-name="adieresismacron" unicode="&#x1df;" horiz-adv-x="438" 
d="M47 365q33 41 75 61t95 20q63 0 103.5 -36t40.5 -97v-221q0 -35 16 -45.5t58 -4.5l3 -22q-17 -16 -38 -23t-48 -7q-29 0 -48.5 15.5t-24.5 44.5h-4q-13 -27 -44.5 -43.5t-69.5 -16.5q-60 0 -93 32t-33 90q0 63 46.5 97t132.5 34q15 0 31 -1.5t28 -4.5v53q0 42 -24.5 65
t-68.5 23q-32 0 -61.5 -10.5t-58.5 -31.5zM192 48q27 0 45.5 8t35.5 26v118h-26q-66 0 -94.5 -20t-28.5 -64q0 -32 18 -50t50 -18zM69 678h279v-48h-279v48zM172 531q0 -23 -17 -40t-42 -17q-22 0 -38.5 17t-16.5 40q0 24 16 41t39 17q25 0 42 -16.5t17 -41.5zM361 530
q0 -23 -17 -40t-41 -17q-23 0 -40 17t-17 40q0 24 16.5 41t40.5 17t41 -17t17 -41z" />
    <glyph glyph-name="AEmacron" unicode="&#x1e2;" horiz-adv-x="817" 
d="M405 539q-4 -18 -15.5 -42.5t-30.5 -56.5l-118 -200h168v299h-4zM345 533l-74 23l7 32h480v-157l-21 -5l-74 116h-162v-220h98l39 88l22 -4v-216l-21 -4l-39 90h-99v-213l45 -17h133l82 142l26 -6l-20 -182h-425l-7 32l74 23v139h-195l-83 -141l70 -19l-5 -34h-184l-7 30
l61 25zM382 701h309v-48h-309v48z" />
    <glyph glyph-name="aemacron" unicode="&#x1e3;" horiz-adv-x="656" 
d="M626 289q0 -15 -1 -27.5t-4 -24.5l-272 -14q0 -76 36.5 -122t98.5 -46q35 0 63.5 9.5t60.5 31.5l13 -23q-28 -43 -68 -63t-96 -20q-46 0 -84 17.5t-63 50.5q-19 -33 -55.5 -50.5t-82.5 -17.5q-65 0 -101 33t-36 92q0 68 56 103.5t177 42.5q1 7 3 15.5t5 19.5
q-2 39 -27.5 60.5t-68.5 21.5q-32 0 -61.5 -10.5t-58.5 -31.5l-13 29q33 41 75 61t95 20q36 0 66.5 -14.5t49.5 -39.5q28 26 63 40t75 14q71 0 113 -42.5t42 -114.5zM535 276q0 3 0.5 10.5t0.5 20.5q0 48 -19.5 72t-57.5 24q-43 0 -72.5 -37.5t-34.5 -99.5zM265 220
q-81 -6 -110 -26.5t-29 -69.5q0 -33 20 -52t55 -19q33 0 52.5 8t38.5 26q-13 25 -20 57t-7 70v6zM198 561h279v-48h-279v48z" />
    <glyph glyph-name="Gstroke" unicode="&#x1e4;" horiz-adv-x="607" 
d="M428 64v75h-70v39h70v44l-74 23l7 32h213l8 -32l-62 -23v-44h66v-39h-66v-149h-15l-48 40q-33 -21 -69 -30.5t-81 -9.5q-119 0 -193 82t-74 220q0 140 77 223t202 83q28 0 57 -4.5t67 -14.5l59 19v-167l-21 -5l-38 59q-25 39 -51.5 55t-69.5 16q-84 0 -130.5 -69.5
t-46.5 -194.5q0 -122 43.5 -189t123.5 -67q32 0 59.5 6.5t56.5 21.5z" />
    <glyph glyph-name="gstroke" unicode="&#x1e5;" horiz-adv-x="457" 
d="M142 295q0 -56 18 -80t58 -24q41 0 59 24t18 80q0 57 -18 81t-59 24q-40 0 -58 -24t-18 -81zM167 158q-24 -11 -35 -24t-11 -29q0 -18 10.5 -27t32.5 -9h144q65 0 102.5 -34t37.5 -94q0 -3 -0.5 -8.5t-0.5 -7.5h47v-32h-54q-18 -54 -78.5 -84t-149.5 -30q-92 0 -142 29.5
t-50 84.5h-42v32h46q8 27 32.5 45.5t66.5 29.5v4q-35 4 -54.5 25t-19.5 54q0 32 22.5 54t62.5 29q-42 16 -63.5 48t-21.5 77q0 69 46.5 112t125.5 43q40 0 78 -9t77 -28q-3 5 -4 10.5t-1 13.5q0 21 13.5 34t34.5 13q22 0 35 -14t13 -37q0 -25 -15 -38.5t-43 -13.5
q-17 0 -35 4.5t-43 14.5v-9q25 -13 41 -39.5t16 -56.5q0 -63 -48 -101.5t-119 -38.5q-16 0 -29.5 1.5t-24.5 5.5zM368 -75q-1 32 -20.5 47.5t-59.5 15.5h-133q-19 -11 -30.5 -26.5t-15.5 -36.5h259zM107 -107q4 -37 30.5 -54.5t80.5 -17.5q62 0 99 18.5t47 53.5h-257z" />
    <glyph glyph-name="Gcaron" unicode="&#x1e6;" horiz-adv-x="607" 
d="M443 485q-25 39 -51.5 55t-69.5 16q-84 0 -130.5 -69.5t-46.5 -194.5q0 -122 43.5 -189t123.5 -67q32 0 59.5 6.5t56.5 21.5v158l-74 23l7 32h213l8 -32l-62 -23v-232h-15l-48 40q-33 -21 -69 -30.5t-81 -9.5q-119 0 -193 82t-74 220q0 140 77 223t202 83q28 0 57 -4.5
t67 -14.5l59 19v-167l-21 -5zM411 757h48l-138 -137h-14l-134 137h96l66 -73z" />
    <glyph glyph-name="gcaron" unicode="&#x1e7;" horiz-adv-x="457" 
d="M142 295q0 -56 18 -80t58 -24q41 0 59 24t18 80q0 57 -18 81t-59 24q-40 0 -58 -24t-18 -81zM167 158q-24 -11 -35 -24t-11 -29q0 -18 10.5 -27t32.5 -9h144q65 0 102.5 -34t37.5 -94q0 -77 -63.5 -119.5t-172.5 -42.5q-92 0 -142 29.5t-50 84.5q0 40 25 66t78 41v4
q-35 4 -54.5 25t-19.5 54q0 32 22.5 54t62.5 29q-42 16 -63.5 48t-21.5 77q0 69 46.5 112t125.5 43q40 0 78 -9t77 -28q-3 5 -4 10.5t-1 13.5q0 21 13.5 34t34.5 13q22 0 35 -14t13 -37q0 -25 -15 -38.5t-43 -13.5q-17 0 -35 4.5t-43 14.5v-9q25 -13 41 -39.5t16 -56.5
q0 -63 -48 -101.5t-119 -38.5q-16 0 -29.5 1.5t-24.5 5.5zM368 -79q0 35 -19.5 51t-60.5 16h-133q-24 -13 -36 -34t-12 -50q0 -43 27 -63t84 -20q74 0 112 25t38 75zM339 659h45l-138 -177h-14l-134 177h87l73 -106z" />
    <glyph glyph-name="Kcaron" unicode="&#x1e8;" horiz-adv-x="601" 
d="M277 556l-75 -23v-211l63 8l163 205l-63 21l5 32h178l7 -33l-61 -19l-171 -210l194 -271l84 -22l-7 -33h-152l-192 282h-48v-227l75 -23l-8 -32h-226l-8 32l75 23v478l-75 23l8 32h226zM385 757h48l-138 -137h-14l-134 137h96l66 -73z" />
    <glyph glyph-name="kcaron" unicode="&#x1e9;" horiz-adv-x="491" 
d="M209 212h-38v-164l70 -19l-13 -29h-192v28l47 16v538l-58 46v11l130 42h16v-434l35 8l143 134l-58 18l7 29h160l7 -29l-55 -23l-134 -124l146 -211l69 -21l-11 -28h-132zM220 846h48l-138 -137h-14l-134 137h96l66 -73z" />
    <glyph glyph-name="Oogonek" unicode="&#x1ea;" horiz-adv-x="624" 
d="M444 -144q-15 -35 -44.5 -53t-70.5 -18q-48 0 -75 24t-27 68q0 35 18 63t56 50q-120 4 -190.5 86.5t-70.5 217.5q0 138 74 221t198 83t198 -83t74 -221q0 -118 -55.5 -197.5t-151.5 -99.5q-42 -21 -58.5 -43t-16.5 -56q0 -29 16.5 -45.5t44.5 -16.5q22 0 36.5 7.5
t30.5 26.5zM312 552q-84 0 -125 -63.5t-41 -194.5t41 -194.5t125 -63.5t125 63.5t41 194.5t-41 194.5t-125 63.5z" />
    <glyph glyph-name="oogonek" unicode="&#x1eb;" horiz-adv-x="489" 
d="M374 -144q-15 -35 -44.5 -53t-70.5 -18q-48 0 -75 24t-27 68q0 34 17 62t52 52q-89 5 -137.5 64.5t-48.5 162.5q0 108 54 168t151 60q96 0 150 -60t54 -168q0 -93 -41 -151t-115 -72q-32 -19 -46.5 -42t-14.5 -55q0 -29 16.5 -45.5t44.5 -16.5q22 0 36.5 7.5t30.5 26.5z
M353 218q0 93 -27 139.5t-81 46.5q-55 0 -82 -46.5t-27 -139.5t27 -139.5t82 -46.5q54 0 81 46.5t27 139.5z" />
    <glyph glyph-name="uni004F02DB00AF" unicode="&#x1ec;" horiz-adv-x="624" 
d="M444 -144q-15 -35 -44.5 -53t-70.5 -18q-48 0 -75 24t-27 68q0 35 18 63t56 50q-120 4 -190.5 86.5t-70.5 217.5q0 138 74 221t198 83t198 -83t74 -221q0 -118 -55.5 -197.5t-151.5 -99.5q-42 -21 -58.5 -43t-16.5 -56q0 -29 16.5 -45.5t44.5 -16.5q22 0 36.5 7.5
t30.5 26.5zM312 552q-84 0 -125 -63.5t-41 -194.5t41 -194.5t125 -63.5t125 63.5t41 194.5t-41 194.5t-125 63.5zM159 701h309v-48h-309v48z" />
    <glyph glyph-name="oogonekmacron" unicode="&#x1ed;" horiz-adv-x="489" 
d="M374 -144q-15 -35 -44.5 -53t-70.5 -18q-48 0 -75 24t-27 68q0 34 17 62t52 52q-89 5 -137.5 64.5t-48.5 162.5q0 108 54 168t151 60q96 0 150 -60t54 -168q0 -93 -41 -151t-115 -72q-32 -19 -46.5 -42t-14.5 -55q0 -29 16.5 -45.5t44.5 -16.5q22 0 36.5 7.5t30.5 26.5z
M353 218q0 93 -27 139.5t-81 46.5q-55 0 -82 -46.5t-27 -139.5t27 -139.5t82 -46.5q54 0 81 46.5t27 139.5zM108 561h279v-48h-279v48z" />
    <glyph glyph-name="Ezhcaron" unicode="&#x1ee;" horiz-adv-x="487" 
d="M51 588h401l5 -14l-223 -347v-4q97 -20 147.5 -71.5t50.5 -131.5q0 -96 -67.5 -153t-179.5 -57q-76 0 -120.5 27t-44.5 74q0 34 18 53.5t48 19.5q27 0 45 -19t18 -44q0 -20 -9.5 -33t-26.5 -18q10 -10 29 -15t50 -5q62 0 100.5 41t38.5 108q0 78 -49 126t-141 61l-12 18
l204 341h-187l-87 -121l-22 4zM350 757h48l-138 -137h-14l-134 137h96l66 -73z" />
    <glyph glyph-name="ezhcaron" unicode="&#x1ef;" horiz-adv-x="417" 
d="M44 436h341l5 -14l-182 -269v-4q76 -4 120.5 -46.5t44.5 -110.5q0 -84 -59 -133t-157 -49q-67 0 -106 23.5t-39 64.5q0 29 16 46.5t43 17.5q23 0 39.5 -16.5t16.5 -38.5q0 -18 -8.5 -29.5t-23.5 -16.5q9 -9 25 -13t43 -4q54 0 86.5 32t32.5 87q0 70 -42.5 107.5
t-128.5 43.5l-11 17l170 262h-141l-77 -101l-22 4zM309 659h45l-138 -177h-14l-134 177h87l73 -106z" />
    <glyph glyph-name="jcaron" unicode="&#x1f0;" horiz-adv-x="225" 
d="M209 659h45l-138 -177h-14l-134 177h87l73 -106zM22 408l120 42h16v-499q0 -80 -43 -125t-123 -45q-31 0 -49 14t-18 39q0 22 14 35.5t37 13.5q21 0 32.5 -12.5t11.5 -34.5q0 -7 -2 -15t-5 -12q25 0 41.5 28.5t16.5 76.5v429l-49 54v11z" />
    <glyph glyph-name="Gacute" unicode="&#x1f4;" horiz-adv-x="607" 
d="M443 485q-25 39 -51.5 55t-69.5 16q-84 0 -130.5 -69.5t-46.5 -194.5q0 -122 43.5 -189t123.5 -67q32 0 59.5 6.5t56.5 21.5v158l-74 23l7 32h213l8 -32l-62 -23v-232h-15l-48 40q-33 -21 -69 -30.5t-81 -9.5q-119 0 -193 82t-74 220q0 140 77 223t202 83q28 0 57 -4.5
t67 -14.5l59 19v-167l-21 -5zM349 762q13 17 30.5 18.5t32.5 -13.5q16 -16 12 -34t-22 -29l-128 -77l-13 17z" />
    <glyph glyph-name="gacute" unicode="&#x1f5;" horiz-adv-x="457" 
d="M142 295q0 -56 18 -80t58 -24q41 0 59 24t18 80q0 57 -18 81t-59 24q-40 0 -58 -24t-18 -81zM167 158q-24 -11 -35 -24t-11 -29q0 -18 10.5 -27t32.5 -9h144q65 0 102.5 -34t37.5 -94q0 -77 -63.5 -119.5t-172.5 -42.5q-92 0 -142 29.5t-50 84.5q0 40 25 66t78 41v4
q-35 4 -54.5 25t-19.5 54q0 32 22.5 54t62.5 29q-42 16 -63.5 48t-21.5 77q0 69 46.5 112t125.5 43q40 0 78 -9t77 -28q-3 5 -4 10.5t-1 13.5q0 21 13.5 34t34.5 13q22 0 35 -14t13 -37q0 -25 -15 -38.5t-43 -13.5q-17 0 -35 4.5t-43 14.5v-9q25 -13 41 -39.5t16 -56.5
q0 -63 -48 -101.5t-119 -38.5q-16 0 -29.5 1.5t-24.5 5.5zM368 -79q0 35 -19.5 51t-60.5 16h-133q-24 -13 -36 -34t-12 -50q0 -43 27 -63t84 -20q74 0 112 25t38 75zM259 635q9 20 27 25.5t38 -6.5q20 -13 21.5 -32t-13.5 -32l-113 -100l-15 12z" />
    <glyph glyph-name="Ngrave" unicode="&#x1f8;" horiz-adv-x="662" 
d="M164 503q3 -33 4 -68.5t1 -72.5v-307l75 -23l-8 -32h-193l-8 32l75 23v478l-75 23l8 32h165l234 -333q19 -26 35.5 -56.5t31.5 -65.5h4q-2 34 -3.5 68t-1.5 68v264l-75 23l8 32h193l8 -32l-75 -23v-533h-53l-274 381q-19 27 -37 57.5t-35 64.5h-4zM304 753l88 -118
l-13 -17l-128 77q-18 11 -22 29t12 34q15 15 32.5 13.5t30.5 -18.5z" />
    <glyph glyph-name="ngrave" unicode="&#x1f9;" horiz-adv-x="520" 
d="M322 446q54 0 86 -36t32 -101v-261l70 -19l-13 -29h-192v28l47 17v247q0 38 -19 57.5t-55 19.5q-26 0 -53.5 -11t-48.5 -29v-281l70 -19l-13 -29h-192v28l47 16v291l-48 54v11l120 46h15l-3 -85h4q25 41 63.5 63t82.5 22zM248 635l55 -133l-15 -12l-113 100
q-15 13 -13.5 32t21.5 32q20 12 38 6.5t27 -25.5z" />
    <glyph glyph-name="uni004102DA00B4" unicode="&#x1fa;" horiz-adv-x="591" 
d="M339 896q17 13 34.5 9.5t27.5 -22.5q11 -20 2.5 -36t-29.5 -21l-144 -39l-8 20zM389 695q0 -36 -26 -58t-69 -22q-42 0 -68 22.5t-26 57.5q0 34 25.5 56t68.5 22t69 -22t26 -56zM345 695q0 18 -14 30t-37 12q-22 0 -36 -12t-14 -30q0 -19 13.5 -30.5t36.5 -11.5t37 11.5
t14 30.5zM279 520q-4 -27 -12.5 -56.5t-20.5 -62.5l-60 -161h183l-58 162q-12 35 -19 64.5t-9 53.5h-4zM365 0l-6 34l79 17l-52 143h-217l-52 -139l83 -21l-5 -34h-183l-7 31l50 24l201 533h80l200 -533l50 -24l-7 -31h-214z" />
    <glyph glyph-name="aringacute" unicode="&#x1fb;" horiz-adv-x="438" 
d="M248 768q17 13 34.5 9.5t27.5 -22.5q11 -20 2.5 -36t-29.5 -21l-144 -39l-8 20zM302 559q0 -36 -26 -58t-69 -22q-42 0 -68 22.5t-26 57.5q0 34 25.5 56t68.5 22t69 -22t26 -56zM258 559q0 18 -14 30t-37 12q-22 0 -36 -12t-14 -30q0 -19 13.5 -30.5t36.5 -11.5t37 11.5
t14 30.5zM47 365q33 41 75 61t95 20q63 0 103.5 -36t40.5 -97v-221q0 -35 16 -45.5t58 -4.5l3 -22q-17 -16 -38 -23t-48 -7q-29 0 -48.5 15.5t-24.5 44.5h-4q-13 -27 -44.5 -43.5t-69.5 -16.5q-60 0 -93 32t-33 90q0 63 46.5 97t132.5 34q15 0 31 -1.5t28 -4.5v53
q0 42 -24.5 65t-68.5 23q-32 0 -61.5 -10.5t-58.5 -31.5zM192 48q27 0 45.5 8t35.5 26v118h-26q-66 0 -94.5 -20t-28.5 -64q0 -32 18 -50t50 -18z" />
    <glyph glyph-name="AEacute" unicode="&#x1fc;" horiz-adv-x="817" 
d="M405 539q-4 -18 -15.5 -42.5t-30.5 -56.5l-118 -200h168v299h-4zM345 533l-74 23l7 32h480v-157l-21 -5l-74 116h-162v-220h98l39 88l22 -4v-216l-21 -4l-39 90h-99v-213l45 -17h133l82 142l26 -6l-20 -182h-425l-7 32l74 23v139h-195l-83 -141l70 -19l-5 -34h-184l-7 30
l61 25zM542 762q13 17 30.5 18.5t32.5 -13.5q16 -16 12 -34t-22 -29l-128 -77l-13 17z" />
    <glyph glyph-name="aeacute" unicode="&#x1fd;" horiz-adv-x="656" 
d="M626 289q0 -15 -1 -27.5t-4 -24.5l-272 -14q0 -76 36.5 -122t98.5 -46q35 0 63.5 9.5t60.5 31.5l13 -23q-28 -43 -68 -63t-96 -20q-46 0 -84 17.5t-63 50.5q-19 -33 -55.5 -50.5t-82.5 -17.5q-65 0 -101 33t-36 92q0 68 56 103.5t177 42.5q1 7 3 15.5t5 19.5
q-2 39 -27.5 60.5t-68.5 21.5q-32 0 -61.5 -10.5t-58.5 -31.5l-13 29q33 41 75 61t95 20q36 0 66.5 -14.5t49.5 -39.5q28 26 63 40t75 14q71 0 113 -42.5t42 -114.5zM535 276q0 3 0.5 10.5t0.5 20.5q0 48 -19.5 72t-57.5 24q-43 0 -72.5 -37.5t-34.5 -99.5zM265 220
q-81 -6 -110 -26.5t-29 -69.5q0 -33 20 -52t55 -19q33 0 52.5 8t38.5 26q-13 25 -20 57t-7 70v6zM359 635q9 20 27 25.5t38 -6.5q20 -13 21.5 -32t-13.5 -32l-113 -100l-15 12z" />
    <glyph glyph-name="Oslashacute" unicode="&#x1fe;" horiz-adv-x="622" 
d="M431 497q-21 29 -51 43t-69 14q-83 0 -124.5 -63.5t-41.5 -191.5q0 -48 6.5 -88.5t18.5 -71.5zM192 98q21 -31 51 -47t68 -16q80 0 123 69t43 195q0 48 -6 87t-18 70zM502 523q39 -41 59.5 -98t20.5 -125q0 -150 -69.5 -230t-201.5 -80q-50 0 -91.5 11.5t-73.5 34.5
l-47 -65h-51l67 92q-37 40 -56 99.5t-19 137.5q0 136 73.5 217t197.5 81q46 0 86.5 -12t72.5 -35l49 67h53zM330 762q13 17 30.5 18.5t32.5 -13.5q16 -16 12 -34t-22 -29l-128 -77l-13 17z" />
    <glyph glyph-name="oslashacute" unicode="&#x1ff;" horiz-adv-x="503" 
d="M322 372q-13 17 -31 25.5t-39 8.5q-56 0 -84 -47t-28 -142q0 -33 3 -59t9 -47zM169 72q14 -22 34.5 -33t48.5 -11q53 0 81 50t28 139q0 37 -5 67t-14 53zM103 37q-31 28 -47 73.5t-16 106.5q0 106 57.5 167.5t154.5 61.5q29 0 55 -6t49 -17l28 43h43l-41 -62
q38 -29 57.5 -76.5t19.5 -110.5q0 -108 -56.5 -167.5t-155.5 -59.5q-35 0 -64.5 6.5t-53.5 19.5l-30 -45h-43zM241 635q9 20 27 25.5t38 -6.5q20 -13 21.5 -32t-13.5 -32l-113 -100l-15 12z" />
    <glyph glyph-name="Adoublegrave" unicode="&#x200;" horiz-adv-x="591" 
d="M279 520q-4 -27 -12.5 -56.5t-20.5 -62.5l-60 -161h183l-58 162q-12 35 -19 64.5t-9 53.5h-4zM365 0l-6 34l79 17l-52 143h-217l-52 -139l83 -21l-5 -34h-183l-7 31l50 24l201 533h80l200 -533l50 -24l-7 -31h-214zM335 762l95 -118l-15 -19l-129 84q-18 12 -20 26.5
t13 29.5q14 15 28.5 14t27.5 -17zM205 762l95 -118l-15 -19l-129 84q-18 12 -20 26.5t13 29.5q14 15 28.5 14t27.5 -17z" />
    <glyph glyph-name="edoublegrave" unicode="&#x201;" horiz-adv-x="431" 
d="M401 289q0 -15 -1 -27.5t-4 -24.5h-272q0 -86 36 -134t99 -48q35 0 63.5 9.5t60.5 31.5l13 -23q-28 -43 -68 -63t-96 -20q-88 0 -140 60t-52 164q0 105 57.5 168.5t148.5 63.5q71 0 113 -42.5t42 -114.5zM310 280q1 4 1 10v17q0 48 -19.5 72t-57.5 24q-40 0 -68.5 -32.5
t-38.5 -90.5h183zM279 638l66 -136l-19 -15l-107 111q-14 15 -13 30t19 26t31.5 7t22.5 -23zM149 638l66 -136l-19 -15l-107 111q-14 15 -13 30t19 26t31.5 7t22.5 -23z" />
    <glyph glyph-name="Ainvertedbreve" unicode="&#x202;" horiz-adv-x="591" 
d="M279 520q-4 -27 -12.5 -56.5t-20.5 -62.5l-60 -161h183l-58 162q-12 35 -19 64.5t-9 53.5h-4zM365 0l-6 34l79 17l-52 143h-217l-52 -139l83 -21l-5 -34h-183l-7 31l50 24l201 533h80l200 -533l50 -24l-7 -31h-214zM404 600q-16 38 -40 53.5t-68 15.5t-68 -15.5
t-40 -53.5h-29q5 61 41 96t96 35t96 -35t41 -96h-29z" />
    <glyph glyph-name="ainvertedbreve" unicode="&#x203;" horiz-adv-x="438" 
d="M47 365q33 41 75 61t95 20q63 0 103.5 -36t40.5 -97v-221q0 -35 16 -45.5t58 -4.5l3 -22q-17 -16 -38 -23t-48 -7q-29 0 -48.5 15.5t-24.5 44.5h-4q-13 -27 -44.5 -43.5t-69.5 -16.5q-60 0 -93 32t-33 90q0 63 46.5 97t132.5 34q15 0 31 -1.5t28 -4.5v53q0 42 -24.5 65
t-68.5 23q-32 0 -61.5 -10.5t-58.5 -31.5zM192 48q27 0 45.5 8t35.5 26v118h-26q-66 0 -94.5 -20t-28.5 -64q0 -32 18 -50t50 -18zM314 492q-10 49 -35 71t-73 22t-73 -21.5t-35 -71.5h-25q-2 7 -2.5 12.5t-0.5 12.5q0 57 38 95t98 38t98 -38t38 -95q0 -7 -0.5 -12.5
t-2.5 -12.5h-25z" />
    <glyph glyph-name="Edoublegrave" unicode="&#x204;" horiz-adv-x="518" 
d="M361 190l-21 -4l-39 90h-99v-213l45 -17h133l82 142l26 -6l-20 -182h-425l-8 32l75 23v478l-75 23l8 32h416v-157l-21 -5l-74 116h-162v-220h98l39 88l22 -4v-216zM299 762l95 -118l-15 -19l-129 84q-18 12 -20 26.5t13 29.5q14 15 28.5 14t27.5 -17zM169 762l95 -118
l-15 -19l-129 84q-18 12 -20 26.5t13 29.5q14 15 28.5 14t27.5 -17z" />
    <glyph glyph-name="Einvertedbreve" unicode="&#x206;" horiz-adv-x="518" 
d="M361 190l-21 -4l-39 90h-99v-213l45 -17h133l82 142l26 -6l-20 -182h-425l-8 32l75 23v478l-75 23l8 32h416v-157l-21 -5l-74 116h-162v-220h98l39 88l22 -4v-216zM373 622q-16 38 -40 53.5t-68 15.5t-68 -15.5t-40 -53.5h-29q5 61 41 96t96 35t96 -35t41 -96h-29z" />
    <glyph glyph-name="einvertedbreve" unicode="&#x207;" horiz-adv-x="431" 
d="M401 289q0 -15 -1 -27.5t-4 -24.5h-272q0 -86 36 -134t99 -48q35 0 63.5 9.5t60.5 31.5l13 -23q-28 -43 -68 -63t-96 -20q-88 0 -140 60t-52 164q0 105 57.5 168.5t148.5 63.5q71 0 113 -42.5t42 -114.5zM310 280q1 4 1 10v17q0 48 -19.5 72t-57.5 24q-40 0 -68.5 -32.5
t-38.5 -90.5h183zM341 492q-10 49 -35 71t-73 22t-73 -21.5t-35 -71.5h-25q-2 7 -2.5 12.5t-0.5 12.5q0 57 38 95t98 38t98 -38t38 -95q0 -7 -0.5 -12.5t-2.5 -12.5h-25z" />
    <glyph glyph-name="Idoublegrave" unicode="&#x208;" horiz-adv-x="312" 
d="M110 533l-75 23l8 32h226l8 -32l-75 -23v-478l75 -23l-8 -32h-226l-8 32l75 23v478zM195 762l95 -118l-15 -19l-129 84q-18 12 -20 26.5t13 29.5q14 15 28.5 14t27.5 -17zM65 762l95 -118l-15 -19l-129 84q-18 12 -20 26.5t13 29.5q14 15 28.5 14t27.5 -17z" />
    <glyph glyph-name="idoublegrave" unicode="&#x209;" horiz-adv-x="261" 
d="M160 446h16v-398l70 -19l-13 -29h-192v28l47 20v292l-48 54v11zM174 638l66 -136l-19 -15l-107 111q-14 15 -13 30t19 26t31.5 7t22.5 -23zM44 638l66 -136l-19 -15l-107 111q-14 15 -13 30t19 26t31.5 7t22.5 -23z" />
    <glyph glyph-name="Iinvertedbreve" unicode="&#x20a;" horiz-adv-x="312" 
d="M256 621q-15 39 -37 54.5t-62 15.5t-61.5 -15.5t-36.5 -54.5h-27q4 62 37 97t88 35q56 0 89 -35t37 -97h-27zM110 533l-75 23l8 32h226l8 -32l-75 -23v-478l75 -23l-8 -32h-226l-8 32l75 23v478z" />
    <glyph glyph-name="iinvertedbreve" unicode="&#x20b;" horiz-adv-x="261" 
d="M225 495q-11 53 -32 73t-66 20t-66.5 -20.5t-31.5 -72.5h-25q-2 7 -2.5 12.5t-0.5 12.5q0 60 34 96.5t92 36.5t92 -36.5t34 -96.5q0 -7 -0.5 -12.5t-2.5 -12.5h-25zM160 446h16v-398l70 -19l-13 -29h-192v28l47 20v292l-48 54v11z" />
    <glyph glyph-name="Odoublegrave" unicode="&#x20c;" horiz-adv-x="624" 
d="M312 598q124 0 198 -83t74 -221t-74 -221t-198 -83t-198 83t-74 221t74 221t198 83zM312 552q-84 0 -125 -63.5t-41 -194.5t41 -194.5t125 -63.5t125 63.5t41 194.5t-41 194.5t-125 63.5zM332 762l95 -118l-15 -19l-129 84q-18 12 -20 26.5t13 29.5q14 15 28.5 14
t27.5 -17zM202 762l95 -118l-15 -19l-129 84q-18 12 -20 26.5t13 29.5q14 15 28.5 14t27.5 -17z" />
    <glyph glyph-name="odoublegrave" unicode="&#x20d;" horiz-adv-x="489" 
d="M40 218q0 108 54 168t151 60q96 0 150 -60t54 -168t-54 -168t-150 -60q-97 0 -151 60t-54 168zM353 218q0 93 -27 139.5t-81 46.5q-55 0 -82 -46.5t-27 -139.5t27 -139.5t82 -46.5q54 0 81 46.5t27 139.5zM284 638l66 -136l-19 -15l-107 111q-14 15 -13 30t19 26t31.5 7
t22.5 -23zM154 638l66 -136l-19 -15l-107 111q-14 15 -13 30t19 26t31.5 7t22.5 -23z" />
    <glyph glyph-name="Oinvertedbreve" unicode="&#x20e;" horiz-adv-x="624" 
d="M312 598q124 0 198 -83t74 -221t-74 -221t-198 -83t-198 83t-74 221t74 221t198 83zM312 552q-84 0 -125 -63.5t-41 -194.5t41 -194.5t125 -63.5t125 63.5t41 194.5t-41 194.5t-125 63.5zM418 622q-16 38 -40 53.5t-68 15.5t-68 -15.5t-40 -53.5h-29q5 61 41 96t96 35
t96 -35t41 -96h-29z" />
    <glyph glyph-name="oinvertedbreve" unicode="&#x20f;" horiz-adv-x="489" 
d="M40 218q0 108 54 168t151 60q96 0 150 -60t54 -168t-54 -168t-150 -60q-97 0 -151 60t-54 168zM353 218q0 93 -27 139.5t-81 46.5q-55 0 -82 -46.5t-27 -139.5t27 -139.5t82 -46.5q54 0 81 46.5t27 139.5zM357 492q-10 49 -35 71t-73 22t-73 -21.5t-35 -71.5h-25
q-2 7 -2.5 12.5t-0.5 12.5q0 57 38 95t98 38t98 -38t38 -95q0 -7 -0.5 -12.5t-2.5 -12.5h-25z" />
    <glyph glyph-name="Rinvertedbreve" unicode="&#x212;" horiz-adv-x="583" 
d="M385 428q0 58 -32 87.5t-94 29.5h-57v-238h57q68 0 97 29t29 92zM316 273q31 -6 54.5 -23t41.5 -47l90 -149l81 -26l-7 -28h-153l-124 217q-16 28 -38.5 39t-58.5 11v-212l75 -23l-8 -32h-226l-8 32l75 23v478l-75 23l8 32h227q104 0 157.5 -41t53.5 -122
q0 -66 -46 -105.5t-119 -42.5v-4zM371 622q-16 38 -40 53.5t-68 15.5t-68 -15.5t-40 -53.5h-29q5 61 41 96t96 35t96 -35t41 -96h-29z" />
    <glyph glyph-name="rinvertedbreve" unicode="&#x213;" horiz-adv-x="377" 
d="M262 382q-22 -8 -43 -27.5t-43 -52.5v-254l90 -18l-13 -30h-212v28l47 16v291l-48 54v11l120 46h15l-3 -103h4q22 48 55.5 76t71.5 28q34 0 54 -17.5t20 -47.5q0 -28 -16 -44.5t-42 -16.5t-41.5 17t-15.5 44zM308 492q-10 49 -35 71t-73 22t-73 -21.5t-35 -71.5h-25
q-2 7 -2.5 12.5t-0.5 12.5q0 57 38 95t98 38t98 -38t38 -95q0 -7 -0.5 -12.5t-2.5 -12.5h-25z" />
    <glyph glyph-name="Udoublegrave" unicode="&#x214;" horiz-adv-x="641" 
d="M613 588l8 -32l-75 -23v-323q0 -103 -60.5 -161.5t-163.5 -58.5q-115 0 -171.5 52t-56.5 157v334l-74 23l7 32h226l8 -32l-75 -23v-320q0 -85 35.5 -126t108.5 -41q76 0 116.5 45t40.5 129v313l-75 23l8 32h193zM342 762l95 -118l-15 -19l-129 84q-18 12 -20 26.5
t13 29.5q14 15 28.5 14t27.5 -17zM212 762l95 -118l-15 -19l-129 84q-18 12 -20 26.5t13 29.5q14 15 28.5 14t27.5 -17z" />
    <glyph glyph-name="udoublegrave" unicode="&#x215;" horiz-adv-x="484" 
d="M227 51q28 0 53.5 12.5t46.5 35.5v236l-48 54v11l120 46h16v-377l54 -38v-11l-129 -30l-9 72h-4q-21 -34 -58 -53t-80 -19q-58 0 -92 36.5t-34 102.5v206l-48 54v11l120 46h16v-298q0 -48 19.5 -72.5t56.5 -24.5zM278 638l66 -136l-19 -15l-107 111q-14 15 -13 30t19 26
t31.5 7t22.5 -23zM148 638l66 -136l-19 -15l-107 111q-14 15 -13 30t19 26t31.5 7t22.5 -23z" />
    <glyph glyph-name="Uinvertedbreve" unicode="&#x216;" horiz-adv-x="641" 
d="M613 588l8 -32l-75 -23v-323q0 -103 -60.5 -161.5t-163.5 -58.5q-115 0 -171.5 52t-56.5 157v334l-74 23l7 32h226l8 -32l-75 -23v-320q0 -85 35.5 -126t108.5 -41q76 0 116.5 45t40.5 129v313l-75 23l8 32h193zM439 622q-16 38 -40 53.5t-68 15.5t-68 -15.5t-40 -53.5
h-29q5 61 41 96t96 35t96 -35t41 -96h-29z" />
    <glyph glyph-name="uinvertedbreve" unicode="&#x217;" horiz-adv-x="484" 
d="M227 51q28 0 53.5 12.5t46.5 35.5v236l-48 54v11l120 46h16v-377l54 -38v-11l-129 -30l-9 72h-4q-21 -34 -58 -53t-80 -19q-58 0 -92 36.5t-34 102.5v206l-48 54v11l120 46h16v-298q0 -48 19.5 -72.5t56.5 -24.5zM345 492q-10 49 -35 71t-73 22t-73 -21.5t-35 -71.5h-25
q-2 7 -2.5 12.5t-0.5 12.5q0 57 38 95t98 38t98 -38t38 -95q0 -7 -0.5 -12.5t-2.5 -12.5h-25z" />
    <glyph glyph-name="Scommaaccent" unicode="&#x218;" horiz-adv-x="464" 
d="M106 124q27 -51 57.5 -71.5t77.5 -20.5q45 0 70.5 26t25.5 72q0 40 -18.5 64.5t-74.5 49.5l-70 32q-60 28 -88 67.5t-28 97.5q0 73 47.5 115t125.5 42q14 0 29 -1.5t32 -4.5q12 -2 32 -6.5t27 -5.5l45 18l1 -164l-25 -6l-29 56q-21 40 -47 57t-66 17q-42 0 -68.5 -25
t-26.5 -66q0 -40 18.5 -64t66.5 -46l80 -36q62 -28 90.5 -69.5t28.5 -101.5q0 -74 -50 -117t-130 -43q-26 0 -49 3.5t-82 24.5l-45 -28l-18 186l29 6zM184 -230q40 13 60.5 34.5t20.5 49.5h-6q-3 -10 -12.5 -16.5t-19.5 -6.5q-23 0 -36 14.5t-13 37.5q0 25 17 41.5t43 16.5
q34 0 54 -20.5t20 -54.5q0 -50 -29.5 -78.5t-90.5 -37.5z" />
    <glyph glyph-name="scommaaccent" unicode="&#x219;" horiz-adv-x="389" 
d="M94 13l-45 -23l-9 144l24 7q28 -61 58.5 -87t76.5 -26q38 0 56.5 15.5t18.5 47.5q0 28 -16.5 45.5t-55.5 30.5l-57 20q-51 18 -75 50t-24 82q0 60 39 93.5t107 33.5q18 0 42.5 -5.5t37.5 -12.5l48 17l8 -128l-21 -7q-29 51 -57 73t-64 22q-31 0 -49.5 -16.5t-18.5 -43.5
q0 -28 16 -46t51 -30l57 -19q57 -20 82 -51.5t25 -82.5q0 -61 -41 -93.5t-115 -32.5q-24 0 -49 5.5t-50 17.5zM139 -230q40 13 60.5 34.5t20.5 49.5h-6q-3 -10 -12.5 -16.5t-19.5 -6.5q-23 0 -36 14.5t-13 37.5q0 25 17 41.5t43 16.5q34 0 54 -20.5t20 -54.5
q0 -50 -29.5 -78.5t-90.5 -37.5z" />
    <glyph glyph-name="Hcaron" unicode="&#x21e;" horiz-adv-x="697" 
d="M495 533l-74 23l7 32h226l8 -32l-75 -23v-478l75 -23l-8 -32h-226l-7 32l74 23v221h-293v-221l75 -23l-8 -32h-226l-8 32l75 23v478l-75 23l8 32h226l8 -32l-75 -23v-211h293v211zM443 757h48l-138 -137h-14l-134 137h96l66 -73z" />
    <glyph glyph-name="hcaron" unicode="&#x21f;" horiz-adv-x="515" 
d="M300 0v28l47 17v253q0 37 -19 57t-54 20q-26 0 -54.5 -11t-48.5 -29v-287l70 -19l-13 -29h-192v28l47 17v537l-58 46v11l130 42h16v-312h4q24 37 62.5 57.5t79.5 20.5q56 0 87 -34t31 -98v-267l70 -19l-13 -29h-192zM224 846h48l-138 -137h-14l-134 137h96l66 -73z" />
    <glyph glyph-name="Adotabove" unicode="&#x226;" horiz-adv-x="591" 
d="M279 520q-4 -27 -12.5 -56.5t-20.5 -62.5l-60 -161h183l-58 162q-12 35 -19 64.5t-9 53.5h-4zM365 0l-6 34l79 17l-52 143h-217l-52 -139l83 -21l-5 -34h-183l-7 31l50 24l201 533h80l200 -533l50 -24l-7 -31h-214zM353 691q0 -24 -18 -42t-43 -18q-24 0 -41.5 18
t-17.5 42q0 25 17.5 43t41.5 18q26 0 43.5 -17.5t17.5 -43.5z" />
    <glyph glyph-name="adotabove" unicode="&#x227;" horiz-adv-x="438" 
d="M47 365q33 41 75 61t95 20q63 0 103.5 -36t40.5 -97v-221q0 -35 16 -45.5t58 -4.5l3 -22q-17 -16 -38 -23t-48 -7q-29 0 -48.5 15.5t-24.5 44.5h-4q-13 -27 -44.5 -43.5t-69.5 -16.5q-60 0 -93 32t-33 90q0 63 46.5 97t132.5 34q15 0 31 -1.5t28 -4.5v53q0 42 -24.5 65
t-68.5 23q-32 0 -61.5 -10.5t-58.5 -31.5zM192 48q27 0 45.5 8t35.5 26v118h-26q-66 0 -94.5 -20t-28.5 -64q0 -32 18 -50t50 -18zM269 567q0 -24 -18 -42t-43 -18q-24 0 -41.5 18t-17.5 42q0 25 17.5 43t41.5 18q26 0 43.5 -17.5t17.5 -43.5z" />
    <glyph glyph-name="Otildemacron" unicode="&#x22c;" horiz-adv-x="624" 
d="M312 598q124 0 198 -83t74 -221t-74 -221t-198 -83t-198 83t-74 221t74 221t198 83zM312 552q-84 0 -125 -63.5t-41 -194.5t41 -194.5t125 -63.5t125 63.5t41 194.5t-41 194.5t-125 63.5zM158 815h309v-48h-309v48zM465 697q0 -31 -21 -51t-55 -21q-15 0 -30 3t-30 9
l-61 26q-7 3 -14.5 4.5t-15.5 1.5q-20 -1 -33 -15.5t-16 -40.5l-17 2q-6 12 -8.5 21.5t-2.5 19.5q0 33 23 54.5t60 21.5q12 0 25.5 -3t27.5 -9l62 -26q9 -4 17 -5.5t16 -1.5q19 0 30.5 15t12.5 42l20 -4q5 -12 7.5 -22t2.5 -21z" />
    <glyph glyph-name="otildemacron" unicode="&#x22d;" horiz-adv-x="489" 
d="M40 218q0 108 54 168t151 60q96 0 150 -60t54 -168t-54 -168t-150 -60q-97 0 -151 60t-54 168zM353 218q0 93 -27 139.5t-81 46.5q-55 0 -82 -46.5t-27 -139.5t27 -139.5t82 -46.5q54 0 81 46.5t27 139.5zM108 689h279v-48h-279v48zM394 559q0 -31 -21 -51t-55 -21
q-15 0 -30 3t-30 9l-61 26q-7 3 -14.5 4.5t-15.5 1.5q-20 -1 -33 -15.5t-16 -40.5l-17 2q-6 12 -8.5 21.5t-2.5 19.5q0 33 23 54.5t60 21.5q12 0 25.5 -3t27.5 -9l62 -26q9 -4 17 -5.5t16 -1.5q19 0 30.5 15t12.5 42l20 -4q5 -12 7.5 -22t2.5 -21z" />
    <glyph glyph-name="Odotabove" unicode="&#x22e;" horiz-adv-x="624" 
d="M312 598q124 0 198 -83t74 -221t-74 -221t-198 -83t-198 83t-74 221t74 221t198 83zM312 552q-84 0 -125 -63.5t-41 -194.5t41 -194.5t125 -63.5t125 63.5t41 194.5t-41 194.5t-125 63.5zM371 691q0 -24 -18 -42t-43 -18q-24 0 -41.5 18t-17.5 42q0 25 17.5 43t41.5 18
q26 0 43.5 -17.5t17.5 -43.5z" />
    <glyph glyph-name="odotabove" unicode="&#x22f;" horiz-adv-x="489" 
d="M40 218q0 108 54 168t151 60q96 0 150 -60t54 -168t-54 -168t-150 -60q-97 0 -151 60t-54 168zM353 218q0 93 -27 139.5t-81 46.5q-55 0 -82 -46.5t-27 -139.5t27 -139.5t82 -46.5q54 0 81 46.5t27 139.5zM308 555q0 -24 -18 -42t-43 -18q-24 0 -41.5 18t-17.5 42
q0 25 17.5 43t41.5 18q26 0 43.5 -17.5t17.5 -43.5z" />
    <glyph glyph-name="odotabovemacron" unicode="&#x231;" horiz-adv-x="489" 
d="M40 218q0 108 54 168t151 60q96 0 150 -60t54 -168t-54 -168t-150 -60q-97 0 -151 60t-54 168zM353 218q0 93 -27 139.5t-81 46.5q-55 0 -82 -46.5t-27 -139.5t27 -139.5t82 -46.5q54 0 81 46.5t27 139.5zM108 666h279v-48h-279v48zM308 529q0 -24 -18 -42t-43 -18
q-24 0 -41.5 18t-17.5 42q0 25 17.5 43t41.5 18q26 0 43.5 -17.5t17.5 -43.5z" />
    <glyph glyph-name="Ymacron" unicode="&#x232;" horiz-adv-x="560" 
d="M226 588l6 -34l-79 -17l109 -196q15 -26 23 -46t9 -34h4q4 13 13 33t24 46l107 193l-83 21l5 34h184l7 -31l-50 -24l-179 -315v-163l105 -20l-8 -35h-286l-8 35l105 20v163l-179 315l-50 24l7 31h214zM137 701h309v-48h-309v48z" />
    <glyph glyph-name="ymacron" unicode="&#x233;" horiz-adv-x="461" 
d="M98 -141q0 -10 -2.5 -18.5t-7.5 -15.5q29 0 63.5 46.5t56.5 113.5l-158 398l-43 27l7 26h185l7 -30l-64 -16l71 -188q14 -37 22.5 -69t10.5 -58h4q9 32 18.5 64t19.5 64l59 182l-66 22l6 29h160l6 -29l-46 -19l-139 -379q-46 -124 -90 -174.5t-108 -50.5
q-37 0 -58.5 18.5t-21.5 49.5q0 27 15.5 42.5t41.5 15.5q23 0 37 -14.5t14 -36.5zM105 561h279v-48h-279v48z" />
    <glyph glyph-name="dotlessj" unicode="&#x237;" horiz-adv-x="225" 
d="M22 408l120 42h16v-499q0 -80 -43 -125t-123 -45q-31 0 -49 14t-18 39q0 22 14 35.5t37 13.5q21 0 32.5 -12.5t11.5 -34.5q0 -7 -2 -15t-5 -12q25 0 41.5 28.5t16.5 76.5v429l-49 54v11z" />
    <glyph glyph-name="schwa" unicode="&#x259;" horiz-adv-x="442" 
d="M191 -10q-80 0 -121 58t-23 151h273q0 88 -40 132.5t-119 44.5q-24 0 -49.5 -8t-54.5 -25l-10 20q31 39 74.5 61t89.5 22q88 0 140 -60t52 -164t-60 -168t-152 -64zM133 149q-6 -50 15 -84t61 -34q43 0 71.5 32.5t37.5 92.5z" />
    <glyph glyph-name="ezh" unicode="&#x292;" horiz-adv-x="417" 
d="M44 436h341l5 -14l-182 -269v-4q76 -4 120.5 -46.5t44.5 -110.5q0 -84 -59 -133t-157 -49q-67 0 -106 23.5t-39 64.5q0 29 16 46.5t43 17.5q23 0 39.5 -16.5t16.5 -38.5q0 -18 -8.5 -29.5t-23.5 -16.5q9 -9 25 -13t43 -4q54 0 86.5 32t32.5 87q0 70 -42.5 107.5
t-128.5 43.5l-11 17l170 262h-141l-77 -101l-22 4z" />
    <glyph glyph-name="circumflex" unicode="&#x2c6;" horiz-adv-x="446" 
d="M125 482h-45l138 177h14l134 -177h-87l-73 106z" />
    <glyph glyph-name="caron" unicode="&#x2c7;" horiz-adv-x="446" 
d="M321 659h45l-138 -177h-14l-134 177h87l73 -106z" />
    <glyph glyph-name="breve" unicode="&#x2d8;" horiz-adv-x="432" 
d="M108 653q10 -49 35 -71t73 -22t73 21.5t35 71.5h25q2 -7 2.5 -12.5t0.5 -12.5q0 -57 -38 -95t-98 -38t-98 38t-38 95q0 7 0.5 12.5t2.5 12.5h25z" />
    <glyph glyph-name="dotaccent" unicode="&#x2d9;" horiz-adv-x="280" 
d="M200 567q0 -24 -18 -42t-43 -18q-24 0 -41.5 18t-17.5 42q0 25 17.5 43t41.5 18q26 0 43.5 -17.5t17.5 -43.5z" />
    <glyph glyph-name="ring" unicode="&#x2da;" horiz-adv-x="344" 
d="M264 587q0 -39 -26 -64.5t-66 -25.5q-41 0 -66.5 25t-25.5 65q0 37 26 62.5t66 25.5t66 -25.5t26 -62.5zM221 586q0 22 -13.5 36.5t-35.5 14.5t-35.5 -14.5t-13.5 -36.5q0 -23 13 -36.5t36 -13.5q22 0 35.5 14t13.5 36z" />
    <glyph glyph-name="ogonek" unicode="&#x2db;" horiz-adv-x="377" 
d="M297 -144q-15 -35 -44.5 -53t-70.5 -18q-48 0 -75 24t-27 68q0 51 39.5 86.5t136.5 64.5l6 -21q-67 -29 -87 -51t-20 -58q0 -29 16.5 -45.5t44.5 -16.5q22 0 36.5 7.5t30.5 26.5z" />
    <glyph glyph-name="tilde" unicode="&#x2dc;" horiz-adv-x="464" 
d="M384 573q0 -31 -21 -51t-55 -21q-15 0 -30 3t-30 9l-61 26q-7 3 -14.5 4.5t-15.5 1.5q-20 -1 -33 -15.5t-16 -40.5l-17 2q-6 12 -8.5 21.5t-2.5 19.5q0 33 23 54.5t60 21.5q12 0 25.5 -3t27.5 -9l62 -26q9 -4 17 -5.5t16 -1.5q19 0 30.5 15t12.5 42l20 -4q5 -12 7.5 -22
t2.5 -21z" />
    <glyph glyph-name="hungarumlaut" unicode="&#x2dd;" horiz-adv-x="430" 
d="M146 638q9 19 22.5 23t31.5 -7t19 -26t-13 -30l-107 -111l-19 15zM276 638q9 19 22.5 23t31.5 -7t19 -26t-13 -30l-107 -111l-19 15z" />
    <glyph glyph-name="uni0312" unicode="&#x312;" horiz-adv-x="294" 
d="M208 664q-40 -13 -60.5 -34.5t-20.5 -49.5h6q3 10 12.5 16.5t19.5 6.5q23 0 36 -14.5t13 -37.5q0 -25 -17 -41.5t-43 -16.5q-34 0 -54 20.5t-20 54.5q0 50 29.5 78.5t90.5 37.5z" />
    <glyph glyph-name="uni0331" unicode="&#x331;" horiz-adv-x="439" 
d="M80 -85h279v-48h-279v48z" />
    <glyph glyph-name="pi" unicode="&#x3c0;" horiz-adv-x="612" 
d="M439 138q0 -41 16.5 -61t51.5 -20q19 0 38 7t36 20l11 -20q-22 -38 -56 -56t-86 -18q-48 0 -72.5 29.5t-24.5 87.5q0 39 20 140t20 102h-148l-35 -263q-6 -48 -28 -72t-59 -24q-31 0 -48 15.5t-17 42.5q0 23 14 38.5t34 16.5q21 1 35.5 -9.5t20.5 -31.5l36 287h-27
q-64 0 -89 -14t-44 -59l-18 8q1 74 39.5 113t111.5 39h404l7 -11l-37 -76h-106v-211z" />
    <glyph glyph-name="uni0E3F" unicode="&#xe3f;" horiz-adv-x="604" 
d="M333 587q87 -6 131 -42.5t44 -103.5q0 -56 -33.5 -88.5t-96.5 -37.5v-4q76 -10 116 -48.5t40 -102.5q0 -74 -54 -116t-147 -44v-110h-40v110h-235l-8 32l75 23v478l-75 23l8 32h235v109h40v-110zM293 329v216h-76v-216h76zM333 330q38 6 58.5 33t20.5 71q0 47 -19 73
t-60 34v-211zM293 285h-76v-230l43 -12h33v242zM333 44q56 6 82 36t26 89q0 47 -29.5 78.5t-78.5 36.5v-240z" />
    <glyph glyph-name="Ddotbelow" unicode="&#x1e0c;" horiz-adv-x="613" 
d="M110 533l-75 23l8 32h215q152 0 233.5 -73.5t81.5 -211.5q0 -136 -84 -219.5t-217 -83.5h-229l-8 32l75 23v478zM250 542h-48v-487l61 -15q101 0 153 65.5t52 191.5q0 122 -55 183.5t-163 61.5zM336 -129q0 -24 -18 -42t-43 -18q-24 0 -41.5 18t-17.5 42q0 25 17.5 43
t41.5 18q26 0 43.5 -18t17.5 -43z" />
    <glyph glyph-name="ddotbelow" unicode="&#x1e0d;" horiz-adv-x="510" 
d="M495 20l-131 -30l-7 66l-3 1q-24 -33 -57.5 -50t-76.5 -17q-82 0 -131 57.5t-49 155.5q0 112 65 177.5t166 65.5q23 0 42 -3.5t33 -11.5v151l-58 46v11l130 42h16v-604l61 -47v-10zM346 379q-13 13 -31.5 19t-44.5 6q-63 0 -100.5 -49.5t-37.5 -133.5q0 -79 34.5 -123
t95.5 -44q22 0 44.5 7.5t39.5 20.5v297zM320 -129q0 -24 -18 -42t-43 -18q-24 0 -41.5 18t-17.5 42q0 25 17.5 43t41.5 18q26 0 43.5 -18t17.5 -43z" />
    <glyph glyph-name="Dcedilla" unicode="&#x1e10;" horiz-adv-x="613" 
d="M250 542h-48v-487l61 -15q101 0 153 65.5t52 191.5q0 122 -55 183.5t-163 61.5zM387 -132q0 -42 -28.5 -64t-83.5 -22q-27 0 -50 8.5t-36 23.5l17 22q14 -12 29 -17.5t34 -5.5q22 0 35 10t13 28q0 21 -14 34t-67 28l31 87h-224l-8 32l75 23v478l-75 23l8 32h215
q152 0 233.5 -73.5t81.5 -211.5q0 -129 -75.5 -211t-198.5 -91l-16 -43q49 -9 76.5 -32.5t27.5 -57.5z" />
    <glyph glyph-name="dcedilla" unicode="&#x1e11;" horiz-adv-x="510" 
d="M346 379q-13 13 -31.5 19t-44.5 6q-63 0 -100.5 -49.5t-37.5 -133.5q0 -79 34.5 -123t95.5 -44q22 0 44.5 7.5t39.5 20.5v297zM349 -132q0 -42 -28.5 -64t-83.5 -22q-27 0 -50 8.5t-36 23.5l17 22q14 -12 29 -17.5t34 -5.5q22 0 35 10t13 28q0 21 -14 34t-67 28l28 77h-6
q-82 0 -131 57.5t-49 155.5q0 112 65 177.5t166 65.5q23 0 42 -3.5t33 -11.5v151l-58 46v11l130 42h16v-604l61 -47v-10l-131 -30l-7 66l-3 1q-19 -26 -43.5 -42t-52.5 -21l-13 -36q49 -9 76.5 -32.5t27.5 -57.5z" />
    <glyph glyph-name="Hdotbelow" unicode="&#x1e24;" horiz-adv-x="697" 
d="M495 533l-74 23l7 32h226l8 -32l-75 -23v-478l75 -23l-8 -32h-226l-7 32l74 23v221h-293v-221l75 -23l-8 -32h-226l-8 32l75 23v478l-75 23l8 32h226l8 -32l-75 -23v-211h293v211zM408 -129q0 -24 -18 -42t-43 -18q-24 0 -41.5 18t-17.5 42q0 25 17.5 43t41.5 18
q26 0 43.5 -18t17.5 -43z" />
    <glyph glyph-name="hdotbelow" unicode="&#x1e25;" horiz-adv-x="515" 
d="M300 0v28l47 17v253q0 37 -19 57t-54 20q-26 0 -54.5 -11t-48.5 -29v-287l70 -19l-13 -29h-192v28l47 17v537l-58 46v11l130 42h16v-312h4q24 37 62.5 57.5t79.5 20.5q56 0 87 -34t31 -98v-267l70 -19l-13 -29h-192zM317 -129q0 -24 -18 -42t-43 -18q-24 0 -41.5 18
t-17.5 42q0 25 17.5 43t41.5 18q26 0 43.5 -18t17.5 -43z" />
    <glyph glyph-name="Ldotbelow" unicode="&#x1e36;" horiz-adv-x="491" 
d="M43 588h226l8 -32l-75 -23v-470l45 -17h113l85 161l26 -6l-23 -201h-405l-8 32l75 23v478l-75 23zM305 -129q0 -24 -18 -42t-43 -18q-24 0 -41.5 18t-17.5 42q0 25 17.5 43t41.5 18q26 0 43.5 -18t17.5 -43z" />
    <glyph glyph-name="ldotbelow" unicode="&#x1e37;" horiz-adv-x="256" 
d="M155 681h16v-633l70 -19l-13 -29h-192v28l47 16v538l-58 46v11zM188 -129q0 -24 -18 -42t-43 -18q-24 0 -41.5 18t-17.5 42q0 25 17.5 43t41.5 18q26 0 43.5 -18t17.5 -43z" />
    <glyph glyph-name="uni004C032300AF" unicode="&#x1e38;" horiz-adv-x="491" 
d="M33 701h247l-5 -48h-237zM43 588h226l8 -32l-75 -23v-470l45 -17h113l85 161l26 -6l-23 -201h-405l-8 32l75 23v478l-75 23zM305 -129q0 -24 -18 -42t-43 -18q-24 0 -41.5 18t-17.5 42q0 25 17.5 43t41.5 18q26 0 43.5 -18t17.5 -43z" />
    <glyph glyph-name="ldotbelowmacron" unicode="&#x1e39;" horiz-adv-x="256" 
d="M155 681h16v-633l70 -19l-13 -29h-192v28l47 16v538l-58 46v11zM-26 776h309v-48h-309v48zM188 -129q0 -24 -18 -42t-43 -18q-24 0 -41.5 18t-17.5 42q0 25 17.5 43t41.5 18q26 0 43.5 -18t17.5 -43z" />
    <glyph glyph-name="Mdotbelow" unicode="&#x1e42;" horiz-adv-x="799" 
d="M598 525q-11 -38 -22 -73t-23 -66l-146 -386h-48l-147 386q-11 31 -22 65.5t-22 73.5h-4q3 -34 4 -70t1 -73v-327l75 -23l-8 -32h-193l-8 32l75 23v478l-75 23l8 32h194l138 -388q11 -30 16.5 -54t5.5 -42h4q1 16 7 40t17 56l140 388h191l8 -32l-75 -23v-478l75 -23
l-8 -32h-226l-8 32l75 23v327q0 37 1.5 73t3.5 70h-4zM451 -129q0 -24 -18 -42t-43 -18q-24 0 -41.5 18t-17.5 42q0 25 17.5 43t41.5 18q26 0 43.5 -18t17.5 -43z" />
    <glyph glyph-name="mdotbelow" unicode="&#x1e43;" horiz-adv-x="764" 
d="M596 295q0 37 -17.5 57t-49.5 20q-24 0 -51 -11.5t-48 -30.5v-282l70 -19l-13 -29h-192v28l47 17v250q0 37 -17.5 57t-49.5 20q-24 0 -51 -11.5t-48 -30.5v-282l70 -19l-13 -29h-192v28l47 16v291l-48 54v11l120 46h15l-3 -84h4q28 43 62.5 64t77.5 21q42 0 70.5 -22
t39.5 -63h4q28 43 62.5 64t77.5 21q53 0 83.5 -35.5t30.5 -101.5v-262l70 -19l-13 -29h-192v28l47 17v250zM442 -129q0 -24 -18 -42t-43 -18q-24 0 -41.5 18t-17.5 42q0 25 17.5 43t41.5 18q26 0 43.5 -18t17.5 -43z" />
    <glyph glyph-name="Ndotaccent" unicode="&#x1e44;" horiz-adv-x="662" 
d="M164 503q3 -33 4 -68.5t1 -72.5v-307l75 -23l-8 -32h-193l-8 32l75 23v478l-75 23l8 32h165l234 -333q19 -26 35.5 -56.5t31.5 -65.5h4q-2 34 -3.5 68t-1.5 68v264l-75 23l8 32h193l8 -32l-75 -23v-533h-53l-274 381q-19 27 -37 57.5t-35 64.5h-4zM398 691q0 -24 -18 -42
t-43 -18q-24 0 -41.5 18t-17.5 42q0 25 17.5 43t41.5 18q26 0 43.5 -17.5t17.5 -43.5z" />
    <glyph glyph-name="ndotaccent" unicode="&#x1e45;" horiz-adv-x="520" 
d="M322 446q54 0 86 -36t32 -101v-261l70 -19l-13 -29h-192v28l47 17v247q0 38 -19 57.5t-55 19.5q-26 0 -53.5 -11t-48.5 -29v-281l70 -19l-13 -29h-192v28l47 16v291l-48 54v11l120 46h15l-3 -85h4q25 41 63.5 63t82.5 22zM320 567q0 -24 -18 -42t-43 -18q-24 0 -41.5 18
t-17.5 42q0 25 17.5 43t41.5 18q26 0 43.5 -17.5t17.5 -43.5z" />
    <glyph glyph-name="Ndotbelow" unicode="&#x1e46;" horiz-adv-x="662" 
d="M164 503q3 -33 4 -68.5t1 -72.5v-307l75 -23l-8 -32h-193l-8 32l75 23v478l-75 23l8 32h165l234 -333q19 -26 35.5 -56.5t31.5 -65.5h4q-2 34 -3.5 68t-1.5 68v264l-75 23l8 32h193l8 -32l-75 -23v-533h-53l-274 381q-19 27 -37 57.5t-35 64.5h-4zM388 -129
q0 -24 -18 -42t-43 -18q-24 0 -41.5 18t-17.5 42q0 25 17.5 43t41.5 18q26 0 43.5 -18t17.5 -43z" />
    <glyph glyph-name="ndotbelow" unicode="&#x1e47;" horiz-adv-x="520" 
d="M322 446q54 0 86 -36t32 -101v-261l70 -19l-13 -29h-192v28l47 17v247q0 38 -19 57.5t-55 19.5q-26 0 -53.5 -11t-48.5 -29v-281l70 -19l-13 -29h-192v28l47 16v291l-48 54v11l120 46h15l-3 -85h4q25 41 63.5 63t82.5 22zM320 -129q0 -24 -18 -42t-43 -18q-24 0 -41.5 18
t-17.5 42q0 25 17.5 43t41.5 18q26 0 43.5 -18t17.5 -43z" />
    <glyph glyph-name="Rdotbelow" unicode="&#x1e5a;" horiz-adv-x="583" 
d="M385 428q0 58 -32 87.5t-94 29.5h-57v-238h57q68 0 97 29t29 92zM316 273q31 -6 54.5 -23t41.5 -47l90 -149l81 -26l-7 -28h-153l-124 217q-16 28 -38.5 39t-58.5 11v-212l75 -23l-8 -32h-226l-8 32l75 23v478l-75 23l8 32h227q104 0 157.5 -41t53.5 -122
q0 -66 -46 -105.5t-119 -42.5v-4zM344 -129q0 -24 -18 -42t-43 -18q-24 0 -41.5 18t-17.5 42q0 25 17.5 43t41.5 18q26 0 43.5 -18t17.5 -43z" />
    <glyph glyph-name="rdotbelow" unicode="&#x1e5b;" horiz-adv-x="377" 
d="M262 382q-22 -8 -43 -27.5t-43 -52.5v-254l90 -18l-13 -30h-212v28l47 16v291l-48 54v11l120 46h15l-3 -103h4q22 48 55.5 76t71.5 28q34 0 54 -17.5t20 -47.5q0 -28 -16 -44.5t-42 -16.5t-41.5 17t-15.5 44zM198 -129q0 -24 -18 -42t-43 -18q-24 0 -41.5 18t-17.5 42
q0 25 17.5 43t41.5 18q26 0 43.5 -18t17.5 -43z" />
    <glyph glyph-name="Rdotbelowmacron" unicode="&#x1e5c;" horiz-adv-x="583" 
d="M385 428q0 58 -32 87.5t-94 29.5h-57v-238h57q68 0 97 29t29 92zM316 273q31 -6 54.5 -23t41.5 -47l90 -149l81 -26l-7 -28h-153l-124 217q-16 28 -38.5 39t-58.5 11v-212l75 -23l-8 -32h-226l-8 32l75 23v478l-75 23l8 32h227q104 0 157.5 -41t53.5 -122
q0 -66 -46 -105.5t-119 -42.5v-4zM114 701h309v-48h-309v48zM344 -129q0 -24 -18 -42t-43 -18q-24 0 -41.5 18t-17.5 42q0 25 17.5 43t41.5 18q26 0 43.5 -18t17.5 -43z" />
    <glyph glyph-name="rdotbelowmacron" unicode="&#x1e5d;" horiz-adv-x="377" 
d="M262 382q-22 -8 -43 -27.5t-43 -52.5v-254l90 -18l-13 -30h-212v28l47 16v291l-48 54v11l120 46h15l-3 -103h4q22 48 55.5 76t71.5 28q34 0 54 -17.5t20 -47.5q0 -28 -16 -44.5t-42 -16.5t-41.5 17t-15.5 44zM61 561h279v-48h-279v48zM207 -129q0 -24 -18 -42t-43 -18
q-24 0 -41.5 18t-17.5 42q0 25 17.5 43t41.5 18q26 0 43.5 -18t17.5 -43z" />
    <glyph glyph-name="Sdotbelow" unicode="&#x1e62;" horiz-adv-x="464" 
d="M106 124q27 -51 57.5 -71.5t77.5 -20.5q45 0 70.5 26t25.5 72q0 40 -18.5 64.5t-74.5 49.5l-70 32q-60 28 -88 67.5t-28 97.5q0 73 47.5 115t125.5 42q14 0 29 -1.5t32 -4.5q12 -2 32 -6.5t27 -5.5l45 18l1 -164l-25 -6l-29 56q-21 40 -47 57t-66 17q-42 0 -68.5 -25
t-26.5 -66q0 -40 18.5 -64t66.5 -46l80 -36q62 -28 90.5 -69.5t28.5 -101.5q0 -74 -50 -117t-130 -43q-26 0 -49 3.5t-82 24.5l-45 -28l-18 186l29 6zM305 -129q0 -24 -18 -42t-43 -18q-24 0 -41.5 18t-17.5 42q0 25 17.5 43t41.5 18q26 0 43.5 -18t17.5 -43z" />
    <glyph glyph-name="sdotbelow" unicode="&#x1e63;" horiz-adv-x="389" 
d="M94 13l-45 -23l-9 144l24 7q28 -61 58.5 -87t76.5 -26q38 0 56.5 15.5t18.5 47.5q0 28 -16.5 45.5t-55.5 30.5l-57 20q-51 18 -75 50t-24 82q0 60 39 93.5t107 33.5q18 0 42.5 -5.5t37.5 -12.5l48 17l8 -128l-21 -7q-29 51 -57 73t-64 22q-31 0 -49.5 -16.5t-18.5 -43.5
q0 -28 16 -46t51 -30l57 -19q57 -20 82 -51.5t25 -82.5q0 -61 -41 -93.5t-115 -32.5q-24 0 -49 5.5t-50 17.5zM256 -129q0 -24 -18 -42t-43 -18q-24 0 -41.5 18t-17.5 42q0 25 17.5 43t41.5 18q26 0 43.5 -18t17.5 -43z" />
    <glyph glyph-name="Tdotbelow" unicode="&#x1e6c;" horiz-adv-x="546" 
d="M416 0h-286l-8 35l105 20v487h-112l-74 -116l-21 5v157h506v-157l-21 -5l-74 116h-112v-487l105 -20zM333 -129q0 -24 -18 -42t-43 -18q-24 0 -41.5 18t-17.5 42q0 25 17.5 43t41.5 18q26 0 43.5 -18t17.5 -43z" />
    <glyph glyph-name="tdotbelow" unicode="&#x1e6d;" horiz-adv-x="317" 
d="M72 114v275h-57v28l125 138h20v-119h146l-7 -47h-139v-260q0 -40 16.5 -59.5t49.5 -19.5q21 0 39.5 5t41.5 16l10 -25q-27 -30 -59.5 -43t-76.5 -13q-55 0 -82 31t-27 93zM236 -129q0 -24 -18 -42t-43 -18q-24 0 -41.5 18t-17.5 42q0 25 17.5 43t41.5 18q26 0 43.5 -18
t17.5 -43z" />
    <glyph glyph-name="Wgrave" unicode="&#x1e80;" horiz-adv-x="798" 
d="M738 533l-134 -533h-87l-90 353q-8 34 -13.5 67.5t-7.5 67.5h-4q-3 -36 -9.5 -70t-15.5 -67l-95 -351h-88l-133 532l-51 25l7 31h214l6 -34l-80 -17l73 -327q7 -31 12.5 -64.5t8.5 -69.5h4q6 34 13.5 67.5t15.5 67.5l94 377h76l96 -378q9 -33 14 -66.5t7 -67.5h4
q3 34 8.5 67.5t13.5 67.5l79 321l-84 22l5 34h184l7 -31zM390 753l88 -118l-13 -17l-128 77q-18 11 -22 29t12 34q15 15 32.5 13.5t30.5 -18.5z" />
    <glyph glyph-name="wgrave" unicode="&#x1e81;" horiz-adv-x="660" 
d="M43 383l-43 27l7 26h187l6 -28l-64 -18l55 -185q8 -25 13.5 -50t8.5 -50h4q3 25 9 50t15 50l81 231h50l75 -231q8 -25 14.5 -50t11.5 -50h4q4 25 9.5 50t13.5 50l58 180l-66 22l7 29h156l5 -29l-45 -19l-129 -388h-55l-76 209q-8 22 -15 46.5t-13 51.5h-4
q-6 -29 -12.5 -53.5t-13.5 -44.5l-73 -209h-55zM329 635l55 -133l-15 -12l-113 100q-15 13 -13.5 32t21.5 32q20 12 38 6.5t27 -25.5z" />
    <glyph glyph-name="Wacute" unicode="&#x1e82;" horiz-adv-x="798" 
d="M738 533l-134 -533h-87l-90 353q-8 34 -13.5 67.5t-7.5 67.5h-4q-3 -36 -9.5 -70t-15.5 -67l-95 -351h-88l-133 532l-51 25l7 31h214l6 -34l-80 -17l73 -327q7 -31 12.5 -64.5t8.5 -69.5h4q6 34 13.5 67.5t15.5 67.5l94 377h76l96 -378q9 -33 14 -66.5t7 -67.5h4
q3 34 8.5 67.5t13.5 67.5l79 321l-84 22l5 34h184l7 -31zM440 762q13 17 30.5 18.5t32.5 -13.5q16 -16 12 -34t-22 -29l-128 -77l-13 17z" />
    <glyph glyph-name="wacute" unicode="&#x1e83;" horiz-adv-x="660" 
d="M43 383l-43 27l7 26h187l6 -28l-64 -18l55 -185q8 -25 13.5 -50t8.5 -50h4q3 25 9 50t15 50l81 231h50l75 -231q8 -25 14.5 -50t11.5 -50h4q4 25 9.5 50t13.5 50l58 180l-66 22l7 29h156l5 -29l-45 -19l-129 -388h-55l-76 209q-8 22 -15 46.5t-13 51.5h-4
q-6 -29 -12.5 -53.5t-13.5 -44.5l-73 -209h-55zM374 635q9 20 27 25.5t38 -6.5q20 -13 21.5 -32t-13.5 -32l-113 -100l-15 12z" />
    <glyph glyph-name="Wdieresis" unicode="&#x1e84;" horiz-adv-x="798" 
d="M738 533l-134 -533h-87l-90 353q-8 34 -13.5 67.5t-7.5 67.5h-4q-3 -36 -9.5 -70t-15.5 -67l-95 -351h-88l-133 532l-51 25l7 31h214l6 -34l-80 -17l73 -327q7 -31 12.5 -64.5t8.5 -69.5h4q6 34 13.5 67.5t15.5 67.5l94 377h76l96 -378q9 -33 14 -66.5t7 -67.5h4
q3 34 8.5 67.5t13.5 67.5l79 321l-84 22l5 34h184l7 -31zM374 679q0 -23 -17 -40t-42 -17q-22 0 -38.5 17t-16.5 40q0 24 16 41t39 17q25 0 42 -16.5t17 -41.5zM563 678q0 -23 -17 -40t-41 -17q-23 0 -40 17t-17 40q0 24 16.5 41t40.5 17t41 -17t17 -41z" />
    <glyph glyph-name="wdieresis" unicode="&#x1e85;" horiz-adv-x="660" 
d="M43 383l-43 27l7 26h187l6 -28l-64 -18l55 -185q8 -25 13.5 -50t8.5 -50h4q3 25 9 50t15 50l81 231h50l75 -231q8 -25 14.5 -50t11.5 -50h4q4 25 9.5 50t13.5 50l58 180l-66 22l7 29h156l5 -29l-45 -19l-129 -388h-55l-76 209q-8 22 -15 46.5t-13 51.5h-4
q-6 -29 -12.5 -53.5t-13.5 -44.5l-73 -209h-55zM309 563q0 -23 -17 -40t-42 -17q-22 0 -38.5 17t-16.5 40q0 24 16 41t39 17q25 0 42 -16.5t17 -41.5zM498 562q0 -23 -17 -40t-41 -17q-23 0 -40 17t-17 40q0 24 16.5 41t40.5 17t41 -17t17 -41z" />
    <glyph glyph-name="Idotbelow" unicode="&#x1eca;" horiz-adv-x="312" 
d="M110 533l-75 23l8 32h226l8 -32l-75 -23v-478l75 -23l-8 -32h-226l-8 32l75 23v478zM216 -129q0 -24 -18 -42t-43 -18q-24 0 -41.5 18t-17.5 42q0 25 17.5 43t41.5 18q26 0 43.5 -18t17.5 -43z" />
    <glyph glyph-name="idotbelow" unicode="&#x1ecb;" horiz-adv-x="261" 
d="M193 577q0 -26 -18 -44t-44 -18t-44 18t-18 44t18 44t44 18t44 -18t18 -44zM160 446h16v-398l70 -19l-13 -29h-192v28l47 16v291l-48 54v11zM188 -129q0 -24 -18 -42t-43 -18q-24 0 -41.5 18t-17.5 42q0 25 17.5 43t41.5 18q26 0 43.5 -18t17.5 -43z" />
    <glyph glyph-name="Odotbelow" unicode="&#x1ecc;" horiz-adv-x="624" 
d="M312 598q124 0 198 -83t74 -221t-74 -221t-198 -83t-198 83t-74 221t74 221t198 83zM312 552q-84 0 -125 -63.5t-41 -194.5t41 -194.5t125 -63.5t125 63.5t41 194.5t-41 194.5t-125 63.5zM370 -129q0 -24 -18 -42t-43 -18q-24 0 -41.5 18t-17.5 42q0 25 17.5 43t41.5 18
q26 0 43.5 -18t17.5 -43z" />
    <glyph glyph-name="odotbelow" unicode="&#x1ecd;" horiz-adv-x="489" 
d="M40 218q0 108 54 168t151 60q96 0 150 -60t54 -168t-54 -168t-150 -60q-97 0 -151 60t-54 168zM353 218q0 93 -27 139.5t-81 46.5q-55 0 -82 -46.5t-27 -139.5t27 -139.5t82 -46.5q54 0 81 46.5t27 139.5zM308 -129q0 -24 -18 -42t-43 -18q-24 0 -41.5 18t-17.5 42
q0 25 17.5 43t41.5 18q26 0 43.5 -18t17.5 -43z" />
    <glyph glyph-name="Udotbelow" unicode="&#x1ee4;" horiz-adv-x="641" 
d="M613 588l8 -32l-75 -23v-323q0 -103 -60.5 -161.5t-163.5 -58.5q-115 0 -171.5 52t-56.5 157v334l-74 23l7 32h226l8 -32l-75 -23v-320q0 -85 35.5 -126t108.5 -41q76 0 116.5 45t40.5 129v313l-75 23l8 32h193zM377 -129q0 -24 -18 -42t-43 -18q-24 0 -41.5 18t-17.5 42
q0 25 17.5 43t41.5 18q26 0 43.5 -18t17.5 -43z" />
    <glyph glyph-name="udotbelow" unicode="&#x1ee5;" horiz-adv-x="484" 
d="M227 51q28 0 53.5 12.5t46.5 35.5v236l-48 54v11l120 46h16v-377l54 -38v-11l-129 -30l-9 72h-4q-21 -34 -58 -53t-80 -19q-58 0 -92 36.5t-34 102.5v206l-48 54v11l120 46h16v-298q0 -48 19.5 -72.5t56.5 -24.5zM312 -129q0 -24 -18 -42t-43 -18q-24 0 -41.5 18
t-17.5 42q0 25 17.5 43t41.5 18q26 0 43.5 -18t17.5 -43z" />
    <glyph glyph-name="Ygrave" unicode="&#x1ef2;" horiz-adv-x="560" 
d="M226 588l6 -34l-79 -17l109 -196q15 -26 23 -46t9 -34h4q4 13 13 33t24 46l107 193l-83 21l5 34h184l7 -31l-50 -24l-179 -315v-163l105 -20l-8 -35h-286l-8 35l105 20v163l-179 315l-50 24l7 31h214zM259 753l88 -118l-13 -17l-128 77q-18 11 -22 29t12 34
q15 15 32.5 13.5t30.5 -18.5z" />
    <glyph glyph-name="ygrave" unicode="&#x1ef3;" horiz-adv-x="461" 
d="M98 -141q0 -10 -2.5 -18.5t-7.5 -15.5q29 0 63.5 46.5t56.5 113.5l-158 398l-43 27l7 26h185l7 -30l-64 -16l71 -188q14 -37 22.5 -69t10.5 -58h4q9 32 18.5 64t19.5 64l59 182l-66 22l6 29h160l6 -29l-46 -19l-139 -379q-46 -124 -90 -174.5t-108 -50.5
q-37 0 -58.5 18.5t-21.5 49.5q0 27 15.5 42.5t41.5 15.5q23 0 37 -14.5t14 -36.5zM233 635l55 -133l-15 -12l-113 100q-15 13 -13.5 32t21.5 32q20 12 38 6.5t27 -25.5z" />
    <glyph glyph-name="Ytilde" unicode="&#x1ef8;" horiz-adv-x="560" 
d="M226 588l6 -34l-79 -17l109 -196q15 -26 23 -46t9 -34h4q4 13 13 33t24 46l107 193l-83 21l5 34h184l7 -31l-50 -24l-179 -315v-163l105 -20l-8 -35h-286l-8 35l105 20v163l-179 315l-50 24l7 31h214zM443 717q0 -31 -21 -51t-55 -21q-15 0 -30 3t-30 9l-61 26
q-7 3 -14.5 4.5t-15.5 1.5q-20 -1 -33 -15.5t-16 -40.5l-17 2q-6 12 -8.5 21.5t-2.5 19.5q0 33 23 54.5t60 21.5q12 0 25.5 -3t27.5 -9l62 -26q9 -4 17 -5.5t16 -1.5q19 0 30.5 15t12.5 42l20 -4q5 -12 7.5 -22t2.5 -21z" />
    <glyph glyph-name="ytilde" unicode="&#x1ef9;" horiz-adv-x="461" 
d="M98 -141q0 -10 -2.5 -18.5t-7.5 -15.5q29 0 63.5 46.5t56.5 113.5l-158 398l-43 27l7 26h185l7 -30l-64 -16l71 -188q14 -37 22.5 -69t10.5 -58h4q9 32 18.5 64t19.5 64l59 182l-66 22l6 29h160l6 -29l-46 -19l-139 -379q-46 -124 -90 -174.5t-108 -50.5
q-37 0 -58.5 18.5t-21.5 49.5q0 27 15.5 42.5t41.5 15.5q23 0 37 -14.5t14 -36.5zM390 573q0 -31 -21 -51t-55 -21q-15 0 -30 3t-30 9l-61 26q-7 3 -14.5 4.5t-15.5 1.5q-20 -1 -33 -15.5t-16 -40.5l-17 2q-6 12 -8.5 21.5t-2.5 19.5q0 33 23 54.5t60 21.5q12 0 25.5 -3
t27.5 -9l62 -26q9 -4 17 -5.5t16 -1.5q19 0 30.5 15t12.5 42l20 -4q5 -12 7.5 -22t2.5 -21z" />
    <glyph glyph-name="enspace" unicode="&#x2002;" horiz-adv-x="500" 
 />
    <glyph glyph-name="emspace" unicode="&#x2003;" horiz-adv-x="1000" 
 />
    <glyph glyph-name="threeperemspace" unicode="&#x2004;" horiz-adv-x="333" 
 />
    <glyph glyph-name="fourperemspace" unicode="&#x2005;" horiz-adv-x="250" 
 />
    <glyph glyph-name="sixperemspace" unicode="&#x2006;" horiz-adv-x="167" 
 />
    <glyph glyph-name="figurespace" unicode="&#x2007;" horiz-adv-x="570" 
 />
    <glyph glyph-name="punctuationspace" unicode="&#x2008;" horiz-adv-x="190" 
 />
    <glyph glyph-name="thinspace" unicode="&#x2009;" horiz-adv-x="100" 
 />
    <glyph glyph-name="hairspace" unicode="&#x200a;" horiz-adv-x="50" 
 />
    <glyph glyph-name="zerowidthspace" unicode="&#x200b;" horiz-adv-x="0" 
 />
    <glyph glyph-name="figuredash" unicode="&#x2012;" horiz-adv-x="590" 
d="M550 252v-45h-510v45h510z" />
    <glyph glyph-name="endash" unicode="&#x2013;" horiz-adv-x="500" 
d="M460 252v-45h-420v45h420z" />
    <glyph glyph-name="emdash" unicode="&#x2014;" horiz-adv-x="1000" 
d="M960 252v-45h-920v45h920z" />
    <glyph glyph-name="uni2015" unicode="&#x2015;" horiz-adv-x="1250" 
d="M1210 252v-45h-1170v45h1170z" />
    <glyph glyph-name="doublebar" unicode="&#x2016;" horiz-adv-x="246" 
d="M196 701v-842h-48v842h48zM98 701v-842h-48v842h48z" />
    <glyph glyph-name="quoteleft" unicode="&#x2018;" horiz-adv-x="205" 
d="M81 478h6q3 14 14 21.5t25 7.5q24 0 38 -16t14 -43q0 -28 -19 -45.5t-50 -17.5q-37 0 -58 22.5t-21 62.5q0 61 44 111.5t112 69.5l9 -31q-54 -24 -84 -62t-30 -80z" />
    <glyph glyph-name="quoteright" unicode="&#x2019;" horiz-adv-x="205" 
d="M124 558h-6q-3 -14 -14 -21.5t-25 -7.5q-24 0 -38 16t-14 43q0 28 19 45.5t50 17.5q37 0 58 -22.5t21 -62.5q0 -61 -44 -111.5t-112 -69.5l-9 31q54 24 84 62t30 80z" />
    <glyph glyph-name="quotesinglbase" unicode="&#x201a;" horiz-adv-x="205" 
d="M124 29h-6q-3 -14 -14 -21.5t-25 -7.5q-24 0 -38 16t-14 43q0 28 19 45.5t50 17.5q37 0 58 -22.5t21 -62.5q0 -61 -44 -111.5t-112 -69.5l-9 31q54 24 84 62t30 80z" />
    <glyph glyph-name="quotedblleft" unicode="&#x201c;" horiz-adv-x="410" 
d="M81 478h6q3 14 14 21.5t25 7.5q24 0 38 -16t14 -43q0 -28 -19 -45.5t-50 -17.5q-37 0 -58 22.5t-21 62.5q0 61 44 111.5t112 69.5l9 -31q-54 -24 -84 -62t-30 -80zM286 478h6q3 14 14 21.5t25 7.5q24 0 38 -16t14 -43q0 -28 -19 -45.5t-50 -17.5q-37 0 -58 22.5t-21 62.5
q0 61 44 111.5t112 69.5l9 -31q-54 -24 -84 -62t-30 -80z" />
    <glyph glyph-name="quotedblright" unicode="&#x201d;" horiz-adv-x="410" 
d="M124 558h-6q-3 -14 -14 -21.5t-25 -7.5q-24 0 -38 16t-14 43q0 28 19 45.5t50 17.5q37 0 58 -22.5t21 -62.5q0 -61 -44 -111.5t-112 -69.5l-9 31q54 24 84 62t30 80zM329 558h-6q-3 -14 -14 -21.5t-25 -7.5q-24 0 -38 16t-14 43q0 28 19 45.5t50 17.5q37 0 58 -22.5
t21 -62.5q0 -61 -44 -111.5t-112 -69.5l-9 31q54 24 84 62t30 80z" />
    <glyph glyph-name="quotedblbase" unicode="&#x201e;" horiz-adv-x="410" 
d="M124 28h-6q-3 -14 -14 -21.5t-25 -7.5q-24 0 -38 16t-14 43q0 28 19 45.5t50 17.5q37 0 58 -22.5t21 -62.5q0 -61 -44 -111.5t-112 -69.5l-9 31q54 24 84 62t30 80zM329 28h-6q-3 -14 -14 -21.5t-25 -7.5q-24 0 -38 16t-14 43q0 28 19 45.5t50 17.5q37 0 58 -22.5
t21 -62.5q0 -61 -44 -111.5t-112 -69.5l-9 31q54 24 84 62t30 80z" />
    <glyph glyph-name="dagger" unicode="&#x2020;" horiz-adv-x="499" 
d="M250 -142l-44 50l25 442l-181 -25l-30 41l30 42l181 -24l-25 221l46 30l42 -30l-26 -221l181 24l30 -42l-30 -41l-180 25l25 -442z" />
    <glyph glyph-name="daggerdbl" unicode="&#x2021;" horiz-adv-x="499" 
d="M20 125l30 41l181 -25v209l-181 -25l-30 41l30 42l181 -24l-25 221l46 30l42 -30l-26 -221l181 24l30 -42l-30 -41l-180 25v-209l180 25l30 -41l-30 -42l-181 24l26 -221l-42 -30l-46 30l25 221l-181 -24z" />
    <glyph glyph-name="bullet" unicode="&#x2022;" horiz-adv-x="269" 
d="M229 263q0 -39 -27.5 -66.5t-66.5 -27.5q-40 0 -67.5 27.5t-27.5 66.5q0 40 27.5 67.5t67.5 27.5q39 0 66.5 -27.5t27.5 -67.5z" />
    <glyph glyph-name="ellipsis" unicode="&#x2026;" horiz-adv-x="741" 
d="M123 -8q-29 0 -48.5 19.5t-19.5 48.5t20 49t48 20q29 0 49 -20t20 -49t-20 -48.5t-49 -19.5zM370 -8q-29 0 -48.5 19.5t-19.5 48.5t20 49t48 20q29 0 49 -20t20 -49t-20 -48.5t-49 -19.5zM617 -8q-29 0 -48.5 19.5t-19.5 48.5t20 49t48 20q29 0 49 -20t20 -49t-20 -48.5
t-49 -19.5z" />
    <glyph glyph-name="perthousand" unicode="&#x2030;" horiz-adv-x="1283" 
d="M190 227q-70 0 -112.5 50t-42.5 134q0 83 43.5 135t111.5 52q73 0 114.5 -49.5t41.5 -137.5q0 -82 -43 -133t-113 -51zM205 550q-42 0 -64 -35t-22 -103q0 -69 23 -106t66 -37q39 0 63.5 40t24.5 103q0 58 -25.5 98t-65.5 40zM696 628l-437 -667h-53l437 667h53zM711 -7
q-70 0 -112.5 50t-42.5 134q0 83 43.5 135t111.5 52q73 0 114.5 -49.5t41.5 -137.5q0 -82 -43 -133t-113 -51zM726 316q-42 0 -64 -35t-22 -103q0 -69 23 -106t66 -37q39 0 63.5 40t24.5 103q0 58 -25.5 98t-65.5 40zM1092 -7q-70 0 -112.5 50t-42.5 134q0 83 43.5 135
t111.5 52q73 0 114.5 -49.5t41.5 -137.5q0 -82 -43 -133t-113 -51zM1107 316q-42 0 -64 -35t-22 -103q0 -69 23 -106t66 -37q39 0 63.5 40t24.5 103q0 58 -25.5 98t-65.5 40z" />
    <glyph glyph-name="tripleprime" unicode="&#x2034;" horiz-adv-x="506" 
d="M95 653q24 0 39.5 -14t15.5 -36l-42 -214h-26l-42 214q0 22 15.5 36t39.5 14zM253 653q24 0 39.5 -14t15.5 -36l-42 -214h-26l-42 214q0 22 15.5 36t39.5 14zM411 653q24 0 39.5 -14t15.5 -36l-42 -214h-26l-42 214q0 22 15.5 36t39.5 14z" />
    <glyph glyph-name="guilsinglleft" unicode="&#x2039;" horiz-adv-x="263" 
d="M120 219l113 -166l-47 -7l-156 173l156 174l47 -7z" />
    <glyph glyph-name="guilsinglright" unicode="&#x203a;" horiz-adv-x="263" 
d="M30 386l47 7l156 -174l-156 -173l-47 7l113 166z" />
    <glyph glyph-name="fraction" unicode="&#x2044;" horiz-adv-x="140" 
d="M315 628l-437 -667h-53l437 667h53z" />
    <glyph glyph-name="uni2070" unicode="&#x2070;" horiz-adv-x="381" 
d="M190 227q-70 0 -112.5 50t-42.5 134q0 83 43.5 135t111.5 52q73 0 114.5 -49.5t41.5 -137.5q0 -82 -43 -133t-113 -51zM205 550q-42 0 -64 -35t-22 -103q0 -69 23 -106t66 -37q39 0 63.5 40t24.5 103q0 58 -25.5 98t-65.5 40z" />
    <glyph glyph-name="uni2074" unicode="&#x2074;" horiz-adv-x="368" 
d="M187 588h85v-233h71v-41h-71v-80h-76v80h-183v32zM63 351q4 2 16.5 3t33.5 1h83v117q0 21 1 39.5t3 34.5h-4q-5 -14 -14 -30.5t-22 -35.5l-54 -79q-12 -17 -22.5 -28.5t-20.5 -17.5v-4z" />
    <glyph glyph-name="uni2075" unicode="&#x2075;" horiz-adv-x="312" 
d="M146 226q-52 0 -81.5 27.5t-29.5 73.5l36 7q4 -34 21.5 -50.5t50.5 -16.5q29 0 44.5 15.5t15.5 43.5q0 41 -33 59.5t-106 20.5l14 182h189v-65h-158l-5 -70q99 -4 137.5 -31.5t38.5 -84.5q0 -53 -35.5 -82t-98.5 -29z" />
    <glyph glyph-name="uni2076" unicode="&#x2076;" horiz-adv-x="347" 
d="M312 578q-80 -25 -120 -52t-60 -68q10 2 20 3t23 1q58 0 94.5 -31t36.5 -82q0 -55 -38.5 -88.5t-100.5 -33.5q-67 0 -102 34.5t-35 100.5q0 95 75 161t202 75zM231 343q0 44 -20.5 67t-58.5 23q-8 0 -15 -0.5t-17 -1.5q-6 -15 -9 -34t-3 -40q0 -44 18 -70.5t47 -26.5
t43.5 21t14.5 62z" />
    <glyph glyph-name="uni2077" unicode="&#x2077;" horiz-adv-x="332" 
d="M332 582l-215 -356l-46 16l167 274h-148l-51 -62l-14 5l15 129h288z" />
    <glyph glyph-name="uni2078" unicode="&#x2078;" horiz-adv-x="364" 
d="M244 411q39 -7 62 -30t23 -56q0 -47 -38.5 -73t-108.5 -26t-108.5 26t-38.5 73q0 33 23 56t62 30v5q-35 8 -54 31t-19 57q0 44 35.5 69t99.5 25t99.5 -25t35.5 -69q0 -34 -19 -57t-54 -31v-5zM182 433q26 0 44 18t18 47q0 32 -17 50.5t-45 18.5t-45 -18.5t-17 -50.5
q0 -29 18 -47t44 -18zM182 254q32 0 48.5 19.5t16.5 57.5q0 35 -17.5 54t-47.5 19q-31 0 -48 -19t-17 -54q0 -38 16.5 -57.5t48.5 -19.5z" />
    <glyph glyph-name="uni2079" unicode="&#x2079;" horiz-adv-x="336" 
d="M30 247q80 25 120 52t60 68q-10 -2 -20 -3t-23 -1q-60 0 -95.5 30t-35.5 83q0 55 38.5 88.5t100.5 33.5q68 0 102.5 -35.5t34.5 -106.5q0 -90 -75.5 -155t-201.5 -74zM111 482q0 -44 20.5 -67t58.5 -23q8 0 15 0.5t17 1.5q6 15 9 34t3 40q0 44 -18 70.5t-47 26.5
t-43.5 -21t-14.5 -62z" />
    <glyph glyph-name="uni207A" unicode="&#x207a;" horiz-adv-x="469" 
d="M212 402h-165v42h165v159h42v-159h168v-42h-168v-173h-42v173z" />
    <glyph glyph-name="uni207B" unicode="&#x207b;" horiz-adv-x="471" 
d="M47 444h377v-43h-377v43z" />
    <glyph glyph-name="uni207C" unicode="&#x207c;" horiz-adv-x="471" 
d="M47 510h377v-43h-377v43zM47 387h377v-43h-377v43z" />
    <glyph glyph-name="uni207D" unicode="&#x207d;" horiz-adv-x="241" 
d="M194 652q-55 -66 -77 -120.5t-22 -119.5q0 -64 21.5 -118t77.5 -122h-53q-49 56 -71.5 114t-22.5 126q0 67 22.5 125.5t71.5 114.5h53z" />
    <glyph glyph-name="uni207E" unicode="&#x207e;" horiz-adv-x="241" 
d="M47 172q56 68 77.5 122t21.5 118q0 65 -22 119.5t-77 120.5h54q48 -56 70.5 -114.5t22.5 -125.5t-22 -125t-71 -115h-54z" />
    <glyph glyph-name="n.superior" unicode="&#x207f;" horiz-adv-x="430" 
d="M257 598q42 0 67 -27.5t25 -75.5v-180l48 -14l-10 -20h-151v20l32 12v164q0 29 -14 44t-40 15q-18 0 -36 -7t-31 -18v-196l48 -14l-10 -20h-152v20l33 11v201l-33 43v8l100 34h13l-3 -62h4q19 30 47.5 46t62.5 16z" />
    <glyph glyph-name="uni2080" unicode="&#x2080;" horiz-adv-x="381" 
d="M190 -7q-70 0 -112.5 50t-42.5 134q0 83 43.5 135t111.5 52q73 0 114.5 -49.5t41.5 -137.5q0 -82 -43 -133t-113 -51zM205 316q-42 0 -64 -35t-22 -103q0 -69 23 -106t66 -37q39 0 63.5 40t24.5 103q0 58 -25.5 98t-65.5 40z" />
    <glyph glyph-name="uni2081" unicode="&#x2081;" horiz-adv-x="345" 
d="M40 301l169 63l17 -6v-310l99 -16l-10 -32h-255l-10 32l101 16v229h-103z" />
    <glyph glyph-name="uni2082" unicode="&#x2082;" horiz-adv-x="365" 
d="M130 65v-4h180v-61h-271l-4 33q56 40 77.5 56t36.5 29q37 32 52 59t15 61q0 32 -18.5 51t-50.5 19q-30 0 -46.5 -17t-16.5 -47q0 -7 1 -14.5t2 -15.5l-31 -9q-5 9 -8 21.5t-3 24.5q0 51 32.5 82t89.5 31q58 0 93 -32t35 -86q0 -48 -32.5 -88t-132.5 -93z" />
    <glyph glyph-name="uni2083" unicode="&#x2083;" horiz-adv-x="350" 
d="M155 -8q-59 0 -89.5 26t-30.5 76l38 7q3 -33 20.5 -50.5t48.5 -17.5q35 0 54.5 15.5t19.5 44.5q0 36 -25 53.5t-75 17.5l-5 25q56 13 72 26.5t16 43.5q0 27 -14.5 40.5t-41.5 13.5t-41.5 -14t-14.5 -39q0 -4 1 -9.5t2 -8.5l-30 -6q-4 9 -6 18.5t-2 19.5q0 40 31 65t85 25
t83.5 -24t29.5 -69q0 -35 -25 -58.5t-64 -28.5v-4q51 -2 77.5 -23.5t26.5 -60.5q0 -49 -38 -76.5t-103 -27.5z" />
    <glyph glyph-name="uni2084" unicode="&#x2084;" horiz-adv-x="368" 
d="M187 354h85v-233h71v-41h-71v-80h-76v80h-183v32zM63 117q4 2 16.5 3t33.5 1h83v117q0 21 1 39.5t3 34.5h-4q-5 -14 -14 -30.5t-22 -35.5l-54 -79q-12 -17 -22.5 -28.5t-20.5 -17.5v-4z" />
    <glyph glyph-name="uni2085" unicode="&#x2085;" horiz-adv-x="312" 
d="M146 -8q-52 0 -81.5 27.5t-29.5 73.5l36 7q4 -34 21.5 -50.5t50.5 -16.5q29 0 44.5 15.5t15.5 43.5q0 41 -33 59.5t-106 20.5l14 182h189v-65h-158l-5 -70q99 -4 137.5 -31.5t38.5 -84.5q0 -53 -35.5 -82t-98.5 -29z" />
    <glyph glyph-name="uni2086" unicode="&#x2086;" horiz-adv-x="347" 
d="M312 344q-80 -25 -120 -52t-60 -68q10 2 20 3t23 1q58 0 94.5 -31t36.5 -82q0 -55 -38.5 -88.5t-100.5 -33.5q-67 0 -102 34.5t-35 100.5q0 95 75 161t202 75zM231 109q0 44 -20.5 67t-58.5 23q-8 0 -15 -0.5t-17 -1.5q-6 -15 -9 -34t-3 -40q0 -44 18 -70.5t47 -26.5
t43.5 21t14.5 62z" />
    <glyph glyph-name="uni2087" unicode="&#x2087;" horiz-adv-x="332" 
d="M332 348l-215 -356l-46 16l167 274h-148l-51 -62l-14 5l15 129h288z" />
    <glyph glyph-name="uni2088" unicode="&#x2088;" horiz-adv-x="364" 
d="M244 177q39 -7 62 -30t23 -56q0 -47 -38.5 -73t-108.5 -26t-108.5 26t-38.5 73q0 33 23 56t62 30v5q-35 8 -54 31t-19 57q0 44 35.5 69t99.5 25t99.5 -25t35.5 -69q0 -34 -19 -57t-54 -31v-5zM182 199q26 0 44 18t18 47q0 32 -17 50.5t-45 18.5t-45 -18.5t-17 -50.5
q0 -29 18 -47t44 -18zM182 20q32 0 48.5 19.5t16.5 57.5q0 35 -17.5 54t-47.5 19q-31 0 -48 -19t-17 -54q0 -38 16.5 -57.5t48.5 -19.5z" />
    <glyph glyph-name="uni2089" unicode="&#x2089;" horiz-adv-x="336" 
d="M30 13q80 25 120 52t60 68q-10 -2 -20 -3t-23 -1q-60 0 -95.5 30t-35.5 83q0 55 38.5 88.5t100.5 33.5q68 0 102.5 -35.5t34.5 -106.5q0 -90 -75.5 -155t-201.5 -74zM111 248q0 -44 20.5 -67t58.5 -23q8 0 15 0.5t17 1.5q6 15 9 34t3 40q0 44 -18 70.5t-47 26.5
t-43.5 -21t-14.5 -62z" />
    <glyph glyph-name="uni208A" unicode="&#x208a;" horiz-adv-x="469" 
d="M212 168h-165v42h165v159h42v-159h168v-42h-168v-173h-42v173z" />
    <glyph glyph-name="uni208B" unicode="&#x208b;" horiz-adv-x="471" 
d="M47 210h377v-43h-377v43z" />
    <glyph glyph-name="uni208C" unicode="&#x208c;" horiz-adv-x="471" 
d="M47 276h377v-43h-377v43zM47 153h377v-43h-377v43z" />
    <glyph glyph-name="uni208D" unicode="&#x208d;" horiz-adv-x="241" 
d="M194 418q-55 -66 -77 -120.5t-22 -119.5q0 -64 21.5 -118t77.5 -122h-53q-49 56 -71.5 114t-22.5 126q0 67 22.5 125.5t71.5 114.5h53z" />
    <glyph glyph-name="uni208E" unicode="&#x208e;" horiz-adv-x="241" 
d="M47 -62q56 68 77.5 122t21.5 118q0 65 -22 119.5t-77 120.5h54q48 -56 70.5 -114.5t22.5 -125.5t-22 -125t-71 -115h-54z" />
    <glyph glyph-name="uni20A1" unicode="&#x20a1;" horiz-adv-x="548" 
d="M349 558h-7l-96 -486q15 -9 31.5 -14.5t35.5 -6.5l81 408q-11 7 -17 19t-6 27q0 14 7 26t19 17q-8 5 -21 7.5t-27 2.5zM300 551q-70 -18 -109.5 -85.5t-39.5 -170.5q0 -63 15.5 -112.5t44.5 -81.5zM342 -8l-20 -102h-41l20 100q-16 1 -33 3.5t-36 6.5l-22 -110h-41
l24 124q-67 33 -102.5 105t-35.5 173q0 124 70 207.5t184 96.5l20 101h41l-20 -99q22 -1 38.5 -3.5t30.5 -7.5l22 110h41l-26 -129q14 -11 21.5 -25.5t7.5 -32.5q0 -26 -14 -42t-38 -18l-79 -398q36 3 66.5 16t62.5 39l20 -25q-29 -41 -68.5 -63t-92.5 -27z" />
    <glyph glyph-name="uni20A2" unicode="&#x20a2;" horiz-adv-x="548" 
d="M310 -10q-121 0 -188 80t-67 222q0 135 81.5 220.5t210.5 85.5q64 0 101 -23.5t37 -64.5q0 -28 -15.5 -44t-41.5 -16q-25 0 -41 15t-16 40q0 14 7 26t19 17q-8 5 -21 7.5t-27 2.5q-90 0 -144 -71t-54 -192q0 -89 29.5 -149t83.5 -83v242l68 17h11l-2 -65h3
q20 34 43.5 49.5t52.5 15.5q24 0 38 -15t14 -39q0 -21 -14 -34.5t-34 -13.5q-21 0 -34 14.5t-11 35.5q-10 -5 -18.5 -12.5t-36.5 -42.5v-164q40 2 72 15t67 41l20 -25q-34 -48 -80.5 -70t-112.5 -22z" />
    <glyph glyph-name="franc" unicode="&#x20a3;" horiz-adv-x="783" 
d="M618 322q-16 -6 -31.5 -19t-54.5 -61v-194l90 -18l-13 -30h-212v28l47 16v250h-227v-239l105 -20l-8 -35h-256l-8 32l75 23v478l-75 23l8 32h426v-157l-21 -5l-74 116h-172v-202h184l115 46h15l-3 -96h4q30 48 64 72.5t71 24.5q30 0 48 -18.5t18 -49.5q0 -26 -17 -43.5
t-40 -17.5q-27 0 -43.5 18.5t-14.5 45.5z" />
    <glyph glyph-name="lira" unicode="&#x20a4;" horiz-adv-x="611" 
d="M199 267l14 81h-99v39h106l1 3q18 105 69.5 156.5t138.5 51.5q61 0 96.5 -25.5t35.5 -70.5q0 -28 -14.5 -44t-39.5 -16q-23 0 -37.5 13.5t-14.5 34.5t13.5 34t32.5 13q-7 12 -27 19.5t-46 7.5q-30 0 -49 -12t-32 -39q-6 -13 -11.5 -33t-14.5 -66l-6 -27h159v-39h-166
l-16 -81h152v-39h-160l-9 -47q-6 -28 -8.5 -38.5t-5.5 -19.5q8 -3 35 -16t43 -19q25 -10 44.5 -14.5t37.5 -4.5q52 0 75 21t26 68l23 3q5 -14 6.5 -24t1.5 -21q0 -63 -31.5 -94.5t-93.5 -31.5q-35 0 -71 13.5t-118 67.5q-21 -40 -51 -60.5t-70 -20.5q-42 0 -65 20.5
t-23 55.5q0 42 26 66.5t71 24.5q14 0 27 -1.5t26 -4.5l13 77h-109v39h115zM125 119q-23 0 -36.5 -13.5t-13.5 -34.5q0 -19 10 -29.5t27 -10.5q24 0 38.5 18.5t21.5 55.5v3q-13 6 -24.5 8.5t-22.5 2.5z" />
    <glyph glyph-name="uni20A6" unicode="&#x20a6;" horiz-adv-x="777" 
d="M214 503q3 -33 4 -68.5t1 -72.5v-106h161l-90 125q-19 27 -37 57.5t-35 64.5h-4zM492 255q19 -26 35.5 -56.5t31.5 -65.5h4q-2 34 -3.5 68t-1.5 68v68h-124zM160 256v81h-95v39h95v157l-75 23l8 32h165l149 -212h151v157l-75 23l8 32h193l8 -32l-75 -23v-157h95v-39h-95
v-81h95v-39h-95v-217h-53l-156 217h-189v-162l75 -23l-8 -32h-193l-8 32l75 23v162h-95v39h95z" />
    <glyph glyph-name="peseta" unicode="&#x20a7;" horiz-adv-x="1230" 
d="M715 -10q-67 0 -103 36.5t-36 105.5v257h-81q-7 -80 -66 -122.5t-158 -42.5h-54v-169l105 -20l-8 -35h-256l-8 32l75 23v478l-75 23l8 32h213q102 0 159 -38.5t65 -113.5h64l85 119h20v-119h128l-7 -47h-121v-240q0 -53 19 -78.5t59 -25.5q35 0 58.5 24t28.5 68h37
q6 -46 37 -71.5t80 -25.5q39 0 58.5 13.5t19.5 41.5t-14.5 43.5t-53.5 28.5l-57 20q-51 18 -75 50t-24 82q0 60 39 93.5t107 33.5q18 0 42.5 -5.5t37.5 -12.5l48 17l8 -128l-21 -7q-32 50 -60 71.5t-63 21.5q-31 0 -48.5 -15.5t-17.5 -42.5q0 -28 16 -46t51 -30l57 -19
q57 -20 82 -51.5t25 -82.5q0 -61 -41 -93.5t-115 -32.5q-47 0 -85 18t-52 48q-17 -32 -51 -49t-81 -17zM400 410q0 70 -35.5 102.5t-112.5 32.5h-35v-278h36q79 0 113 33.5t34 109.5z" />
    <glyph glyph-name="uni20A8" unicode="&#x20a8;" horiz-adv-x="944" 
d="M217 267v-212l75 -23l-8 -32h-226l-8 32l75 23v478l-75 23l8 32h227q104 0 157.5 -41t53.5 -122q0 -66 -46 -105.5t-119 -42.5v-4q31 -6 60.5 -26t58.5 -55q78 -95 126.5 -125.5t107.5 -30.5q47 0 71 15t24 44q0 26 -15.5 42t-56.5 30l-57 20q-51 18 -75 50t-24 82
q0 60 39 93.5t107 33.5q18 0 42.5 -5.5t37.5 -12.5l48 17l8 -128l-21 -7q-32 50 -60 71.5t-63 21.5q-31 0 -48.5 -15.5t-17.5 -42.5q0 -28 16 -46t51 -30l57 -19q57 -20 82 -51.5t25 -82.5q0 -62 -46.5 -94t-136.5 -32t-157 28.5t-112 85.5l-88 113q-24 31 -45 40.5t-52 9.5
zM400 428q0 58 -32 87.5t-94 29.5h-57v-238h57q68 0 97 29t29 92z" />
    <glyph glyph-name="uni20A9" unicode="&#x20a9;" horiz-adv-x="878" 
d="M706 247l-62 -247h-87l-90 353q-8 34 -13.5 67.5t-7.5 67.5h-4q-3 -36 -9.5 -70t-15.5 -67l-95 -351h-88l-62 247h-112v39h102l-18 71h-84v39h75l-34 136l-51 25l7 31h214l6 -34l-80 -17l31 -141h142l48 192h76l48 -192h140l34 136l-84 22l5 34h184l7 -31l-50 -24
l-35 -137h75v-39h-84l-18 -71h102v-39h-112zM655 286l18 71h-121l18 -71h85zM342 286l18 71h-123l16 -71h89zM590 210q9 -33 14 -66.5t7 -67.5h4q3 34 8.5 67.5t13.5 67.5l9 36h-66zM270 210q7 -31 12.5 -64.5t8.5 -69.5h4q6 34 13.5 67.5t15.5 67.5l9 36h-72z" />
    <glyph glyph-name="uni20AA" unicode="&#x20aa;" horiz-adv-x="701" 
d="M291 588q79 0 114.5 -34.5t35.5 -119.5v-310h-57v316q0 55 -24.5 77.5t-84.5 22.5h-63v-540h-155l-7 31l74 24v478l-74 24l7 31h234zM416 44q44 0 63 23t19 81v440h155l8 -31l-75 -24v-369q0 -90 -36.5 -127t-117.5 -37h-163v464h58v-420h89z" />
    <glyph glyph-name="Euro" unicode="&#x20ac;" horiz-adv-x="597" 
d="M113 376q20 104 89.5 163t171.5 59q75 0 118 -25.5t43 -70.5q0 -29 -15 -44.5t-42 -15.5q-23 0 -39 14t-16 36q0 18 8.5 30t23.5 16q-14 9 -34.5 13.5t-43.5 4.5q-67 0 -109 -46.5t-56 -133.5h220v-39h-225q-1 -8 -1 -17v-28v-23t1 -13h225v-39h-221q13 -81 55.5 -125
t104.5 -44q50 0 87.5 14t76.5 47l22 -31q-32 -44 -80.5 -66t-113.5 -22q-103 0 -168.5 59.5t-83.5 167.5h-71v39h66q-1 6 -1 13v23q0 19 0.5 28t1.5 17h-67v39h73z" />
    <glyph glyph-name="uni20AE" unicode="&#x20ae;" horiz-adv-x="606" 
d="M257 245v74l-105 -35v42l105 35v181h-112l-74 -116l-21 5v157h506v-157l-21 -5l-74 116h-112v-151l105 35v-42l-105 -35v-74l105 35v-42l-105 -35v-178l105 -20l-8 -35h-286l-8 35l105 20v148l-105 -35v42z" />
    <glyph glyph-name="uni20B1" unicode="&#x20b1;" horiz-adv-x="651" 
d="M151 55v318h-96v39h96v121l-75 23l8 32h213q109 0 166.5 -44.5t58.5 -131.5h84v-39h-87q-12 -72 -70.5 -110.5t-151.5 -38.5h-54v-169l105 -20l-8 -35h-256l-8 32zM426 412q-1 69 -36.5 101t-111.5 32h-35v-133h183zM243 373v-106h36q69 0 103 25t41 81h-180z" />
    <glyph glyph-name="afii61289" unicode="&#x2113;" horiz-adv-x="392" 
d="M90 328q-24 -6 -41.5 -10t-33.5 -7l-5 26q30 9 50 15.5t36 12.5l31 176q13 73 49 108.5t97 35.5q55 0 82 -25t27 -78q0 -69 -50.5 -125.5t-147.5 -96.5l-53 -310q62 0 103.5 15t96.5 59l15 -15q-32 -53 -95 -86t-134 -33q-42 0 -60 23.5t-10 67.5zM324 576q0 30 -12.5 47
t-35.5 17q-22 0 -35 -14.5t-18 -44.5l-31 -175q67 34 99.5 76t32.5 94z" />
    <glyph glyph-name="afii61352" unicode="&#x2116;" horiz-adv-x="1075" 
d="M614 582q-25 0 -36.5 -19.5t-11.5 -62.5v-500h-53l-274 381q-19 27 -37 57.5t-35 64.5h-4q3 -33 4 -68.5t1 -72.5v-307l75 -23l-8 -32h-193l-7 32l74 23v478l-74 23l7 32h165l234 -333q19 -26 35.5 -56.5t31.5 -65.5h4q-2 34 -3.5 68t-1.5 68v213q0 76 29 111t90 35
q40 0 63.5 -20t23.5 -53q0 -29 -15.5 -45t-43.5 -16q-26 0 -40.5 13t-14.5 35q0 13 4 22t11 14v4zM838 119q-77 0 -116 42.5t-39 125.5q0 78 42.5 123.5t113.5 45.5q73 0 114.5 -44.5t41.5 -124.5t-42 -124t-115 -44zM839 423q-37 0 -55.5 -34t-18.5 -102q0 -72 18 -105
t56 -33q34 0 52.5 36.5t18.5 101.5q0 66 -18.5 101t-52.5 35zM993 42l-10 -42h-290l-10 42h310z" />
    <glyph glyph-name="published" unicode="&#x2117;" horiz-adv-x="685" 
d="M649 294q0 -131 -88.5 -218.5t-218.5 -87.5q-129 0 -217.5 87.5t-88.5 218.5t88.5 219t217.5 88t218 -88t89 -219zM619 294q0 119 -79.5 198.5t-196.5 79.5t-196.5 -79.5t-79.5 -198.5t79.5 -198t196.5 -79t196.5 79t79.5 198zM356 463q73 0 107 -24.5t34 -76.5
q0 -57 -37 -83t-123 -26h-18v-82l52 -14l-6 -22h-155l-5 22l48 14v256l-48 15l5 21h146zM427 359q0 40 -20 58t-64 18h-24v-154h18q49 0 69.5 18t20.5 60z" />
    <glyph glyph-name="servicemark" unicode="&#x2120;" horiz-adv-x="665" 
d="M387 588l74 -198l72 198h108l4 -22l-36 -11v-223l36 -11l-4 -22h-123l-3 22l36 11v209l-92 -242h-24l-95 242v-209l38 -11l-5 -22h-102l-4 22l37 11v223l-37 11l4 22h116zM57 311l-31 -15l-6 94l20 5q31 -46 48 -59.5t44 -13.5q25 0 38 10.5t13 31.5q0 20 -12 32.5
t-37 19.5l-39 11q-37 11 -54 31t-17 52q0 38 26 60.5t68 22.5q21 0 39.5 -3t28.5 -9l34 11l6 -83l-18 -5q-30 37 -47 49t-40 12q-19 0 -30.5 -10.5t-11.5 -28.5q0 -15 9 -26t25 -17l52 -16q41 -12 58.5 -32.5t17.5 -53.5q0 -41 -29 -63t-83 -22q-17 0 -34.5 3.5t-37.5 11.5z
" />
    <glyph glyph-name="trademark" unicode="&#x2122;" horiz-adv-x="729" 
d="M229 299h-155l-4 23l52 10v224h-55l-26 -58l-21 2v88h264v-88l-20 -2l-27 58h-55v-224l52 -10zM431 588l74 -198l72 198h108l4 -22l-36 -11v-223l36 -11l-4 -22h-123l-3 22l36 11v209l-92 -242h-24l-95 242v-209l38 -11l-5 -22h-102l-4 22l37 11v223l-37 11l4 22h116z
" />
    <glyph glyph-name="ohm" unicode="&#x2126;" horiz-adv-x="716" 
d="M389 24q64 44 98.5 123.5t34.5 187.5q0 115 -40 167t-124 52t-124 -52t-40 -167q0 -108 34.5 -187.5t98.5 -123.5l-8 -24h-269l-20 137l21 8l50 -68h123v4q-68 40 -101 104.5t-33 154.5q0 115 73 186.5t195 71.5t195 -71.5t73 -186.5q0 -90 -33 -154.5t-101 -104.5v-4
h123l50 68l21 -8l-20 -137h-269z" />
    <glyph glyph-name="estimated" unicode="&#x212e;" horiz-adv-x="647" 
d="M323 -10q-129 0 -203.5 84.5t-74.5 219.5q0 136 74.5 220.5t203.5 84.5q130 0 204.5 -84.5t74.5 -220.5v-26h-431v-167q29 -29 67.5 -43.5t84.5 -14.5q64 0 110.5 25.5t73.5 76.5h66q-32 -75 -96 -115t-154 -40zM475 488q-29 29 -67 43.5t-85 14.5t-85 -14.5t-67 -43.5
v-168h304v168z" />
    <glyph glyph-name="uni2153" unicode="&#x2153;" horiz-adv-x="885" 
d="M40 535l169 63l17 -6v-310l99 -16l-10 -32h-255l-10 32l101 16v229h-103zM710 628l-437 -667h-53l437 667h53zM690 -8q-59 0 -89.5 26t-30.5 76l38 7q3 -33 20.5 -50.5t48.5 -17.5q35 0 54.5 15.5t19.5 44.5q0 36 -25 53.5t-75 17.5l-5 25q56 13 72 26.5t16 43.5
q0 27 -14.5 40.5t-41.5 13.5t-41.5 -14t-14.5 -39q0 -4 1 -9.5t2 -8.5l-30 -6q-4 9 -6 18.5t-2 19.5q0 40 31 65t85 25t83.5 -24t29.5 -69q0 -35 -25 -58.5t-64 -28.5v-4q51 -2 77.5 -23.5t26.5 -60.5q0 -49 -38 -76.5t-103 -27.5z" />
    <glyph glyph-name="uni2154" unicode="&#x2154;" horiz-adv-x="855" 
d="M130 299v-4h180v-61h-271l-4 33q56 40 77.5 56t36.5 29q37 32 52 59t15 61q0 32 -18.5 51t-50.5 19q-30 0 -46.5 -17t-16.5 -47q0 -7 1 -14.5t2 -15.5l-31 -9q-5 9 -8 21.5t-3 24.5q0 51 32.5 82t89.5 31q58 0 93 -32t35 -86q0 -48 -32.5 -88t-132.5 -93zM680 628
l-437 -667h-53l437 667h53zM660 -8q-59 0 -89.5 26t-30.5 76l38 7q3 -33 20.5 -50.5t48.5 -17.5q35 0 54.5 15.5t19.5 44.5q0 36 -25 53.5t-75 17.5l-5 25q56 13 72 26.5t16 43.5q0 27 -14.5 40.5t-41.5 13.5t-41.5 -14t-14.5 -39q0 -4 1 -9.5t2 -8.5l-30 -6q-4 9 -6 18.5
t-2 19.5q0 40 31 65t85 25t83.5 -24t29.5 -69q0 -35 -25 -58.5t-64 -28.5v-4q51 -2 77.5 -23.5t26.5 -60.5q0 -49 -38 -76.5t-103 -27.5z" />
    <glyph glyph-name="uni215B" unicode="&#x215b;" horiz-adv-x="899" 
d="M40 535l169 63l17 -6v-310l99 -16l-10 -32h-255l-10 32l101 16v229h-103zM710 628l-437 -667h-53l437 667h53zM779 177q39 -7 62 -30t23 -56q0 -47 -38.5 -73t-108.5 -26t-108.5 26t-38.5 73q0 33 23 56t62 30v5q-35 8 -54 31t-19 57q0 44 35.5 69t99.5 25t99.5 -25
t35.5 -69q0 -34 -19 -57t-54 -31v-5zM717 199q26 0 44 18t18 47q0 32 -17 50.5t-45 18.5t-45 -18.5t-17 -50.5q0 -29 18 -47t44 -18zM717 20q32 0 48.5 19.5t16.5 57.5q0 35 -17.5 54t-47.5 19q-31 0 -48 -19t-17 -54q0 -38 16.5 -57.5t48.5 -19.5z" />
    <glyph glyph-name="uni215C" unicode="&#x215c;" horiz-adv-x="854" 
d="M665 628l-437 -667h-53l437 667h53zM155 226q-59 0 -89.5 26t-30.5 76l38 7q3 -33 20.5 -50.5t48.5 -17.5q35 0 54.5 15.5t19.5 44.5q0 36 -25 53.5t-75 17.5l-5 25q56 13 72 26.5t16 43.5q0 27 -14.5 40.5t-41.5 13.5t-41.5 -14t-14.5 -39q0 -4 1 -9.5t2 -8.5l-30 -6
q-4 9 -6 18.5t-2 19.5q0 40 31 65t85 25t83.5 -24t29.5 -69q0 -35 -25 -58.5t-64 -28.5v-4q51 -2 77.5 -23.5t26.5 -60.5q0 -49 -38 -76.5t-103 -27.5zM734 177q39 -7 62 -30t23 -56q0 -47 -38.5 -73t-108.5 -26t-108.5 26t-38.5 73q0 33 23 56t62 30v5q-35 8 -54 31t-19 57
q0 44 35.5 69t99.5 25t99.5 -25t35.5 -69q0 -34 -19 -57t-54 -31v-5zM672 199q26 0 44 18t18 47q0 32 -17 50.5t-45 18.5t-45 -18.5t-17 -50.5q0 -29 18 -47t44 -18zM672 20q32 0 48.5 19.5t16.5 57.5q0 35 -17.5 54t-47.5 19q-31 0 -48 -19t-17 -54q0 -38 16.5 -57.5
t48.5 -19.5z" />
    <glyph glyph-name="uni215D" unicode="&#x215d;" horiz-adv-x="816" 
d="M627 628l-437 -667h-53l437 667h53zM696 177q39 -7 62 -30t23 -56q0 -47 -38.5 -73t-108.5 -26t-108.5 26t-38.5 73q0 33 23 56t62 30v5q-35 8 -54 31t-19 57q0 44 35.5 69t99.5 25t99.5 -25t35.5 -69q0 -34 -19 -57t-54 -31v-5zM634 199q26 0 44 18t18 47q0 32 -17 50.5
t-45 18.5t-45 -18.5t-17 -50.5q0 -29 18 -47t44 -18zM634 20q32 0 48.5 19.5t16.5 57.5q0 35 -17.5 54t-47.5 19q-31 0 -48 -19t-17 -54q0 -38 16.5 -57.5t48.5 -19.5zM146 226q-52 0 -81.5 27.5t-29.5 73.5l36 7q4 -34 21.5 -50.5t50.5 -16.5q29 0 44.5 15.5t15.5 43.5
q0 41 -33 59.5t-106 20.5l14 182h189v-65h-158l-5 -70q99 -4 137.5 -31.5t38.5 -84.5q0 -53 -35.5 -82t-98.5 -29z" />
    <glyph glyph-name="uni215E" unicode="&#x215e;" horiz-adv-x="766" 
d="M577 628l-437 -667h-53l437 667h53zM646 177q39 -7 62 -30t23 -56q0 -47 -38.5 -73t-108.5 -26t-108.5 26t-38.5 73q0 33 23 56t62 30v5q-35 8 -54 31t-19 57q0 44 35.5 69t99.5 25t99.5 -25t35.5 -69q0 -34 -19 -57t-54 -31v-5zM584 199q26 0 44 18t18 47q0 32 -17 50.5
t-45 18.5t-45 -18.5t-17 -50.5q0 -29 18 -47t44 -18zM584 20q32 0 48.5 19.5t16.5 57.5q0 35 -17.5 54t-47.5 19q-31 0 -48 -19t-17 -54q0 -38 16.5 -57.5t48.5 -19.5zM332 582l-215 -356l-46 16l167 274h-148l-51 -62l-14 5l15 129h288z" />
    <glyph glyph-name="arrowleft" unicode="&#x2190;" horiz-adv-x="709" 
d="M174 267q16 -10 35.5 -26t41.5 -39l189 -190v-14l-56 -10l-334 290v30l334 290l56 -10v-14l-189 -190q-22 -22 -41.5 -38.5t-35.5 -26.5v-4q10 2 31 2.5t52 0.5h392v-50h-392q-31 0 -52 1t-31 2v-4z" />
    <glyph glyph-name="arrowup" unicode="&#x2191;" horiz-adv-x="710" 
d="M329 475q-10 -16 -26 -35t-39 -42l-190 -189h-14l-10 56l290 334h30l290 -334l-10 -56h-14l-190 189q-22 23 -38.5 42t-26.5 35h-4q2 -10 2.5 -30.5t0.5 -52.5v-392h-50v392q0 32 1 52.5t2 30.5h-4z" />
    <glyph glyph-name="arrowright" unicode="&#x2192;" horiz-adv-x="709" 
d="M305 -12l-56 10v14l189 190q23 23 42 39t35 26v4q-10 -1 -30.5 -2t-52.5 -1h-392v50h392q32 0 52.5 -0.5t30.5 -2.5v4q-16 10 -35 26.5t-42 38.5l-189 190v14l56 10l334 -290v-30z" />
    <glyph glyph-name="arrowdown" unicode="&#x2193;" horiz-adv-x="710" 
d="M50 324l10 56h14l190 -189q23 -22 39 -41.5t26 -35.5h4q-1 10 -2 31t-1 52v392h50v-392q0 -31 -0.5 -52t-2.5 -31h4q10 16 26.5 35.5t38.5 41.5l190 189h14l10 -56l-290 -334h-30z" />
    <glyph glyph-name="uni2196" unicode="&#x2196;" horiz-adv-x="708" 
d="M180 437q4 -18 6 -43t2 -57l-1 -268l-10 -10l-46 33l-31 441l21 21l441 -31l33 -47l-10 -10h-268q-32 0 -57 2t-44 6l-2 -3q8 -6 23 -20t37 -36l334 -333l-36 -36l-333 333q-26 26 -41.5 42.5t-15.5 17.5z" />
    <glyph glyph-name="uni2197" unicode="&#x2197;" horiz-adv-x="708" 
d="M577 92l-46 -33l-10 10l-1 268q0 32 2 57t6 43l-2 3q-6 -8 -20 -23t-37 -38l-333 -333l-36 36l334 333q22 22 37 36t23 20l-2 3q-18 -4 -43.5 -6t-57.5 -2h-268l-10 10l33 47l441 31l21 -21z" />
    <glyph glyph-name="uni2198" unicode="&#x2198;" horiz-adv-x="708" 
d="M528 163q-4 18 -6 43t-2 57l1 268l10 10l46 -33l31 -441l-21 -21l-441 31l-33 47l10 10h268q32 0 57.5 -2t43.5 -6l2 3q-8 6 -23 20t-37 36l-334 333l36 36l333 -333q19 -19 33 -34t23 -26l1 -1z" />
    <glyph glyph-name="uni2199" unicode="&#x2199;" horiz-adv-x="708" 
d="M131 508l46 33l10 -10l1 -268q0 -32 -2 -57t-6 -43l2 -3q6 8 20.5 23.5t36.5 37.5l333 333l36 -36l-334 -333q-22 -22 -37 -36t-23 -20l2 -3q19 4 44 6t57 2h268l10 -10l-33 -47l-441 -31l-21 21z" />
    <glyph glyph-name="partialdiff" unicode="&#x2202;" horiz-adv-x="494" 
d="M251 -10q-104 0 -157.5 57.5t-53.5 169.5q0 105 56 167t146 62q32 0 61 -10t54 -30q-8 100 -48.5 159t-103.5 59q-39 0 -64.5 -10t-62.5 -43l-19 16q20 45 62 70t98 25q118 0 176.5 -102.5t58.5 -309.5q0 -142 -50 -211t-153 -69zM251 406q-56 0 -84 -47t-28 -142
q0 -96 28 -142.5t84 -46.5q53 0 81 50t28 139q0 91 -28 140t-81 49z" />
    <glyph glyph-name="Delta" unicode="&#x2206;" horiz-adv-x="564" 
d="M316 588l208 -573l-10 -15h-466l-8 15l194 573h82zM255 522q-5 -26 -12 -54.5t-17 -59.5l-114 -361h300l-123 360q-11 33 -18.5 61.5t-11.5 53.5h-4z" />
    <glyph glyph-name="product" unicode="&#x220f;" horiz-adv-x="681" 
d="M405 -68l74 23v588h-278v-588l75 -23l-8 -32h-226l-7 32l74 23v578l-74 23l7 32h596l8 -32l-75 -23v-578l75 -23l-8 -32h-226z" />
    </font>
</defs>
</svg>
